M48
METRIC,LZ,000.000
;FILE_FORMAT=3:3
;TYPE=PLATED
;Layer: PTH_Through
;EasyEDA v6.5.50, 2025-04-22 20:35:32
;2447ad7b923c4463a7a2b320b029b0bb,035c650733ab4bc79dd6698c18aa45da,10
;Gerber Generator version 0.2
;Holesize 1 = 0.701 mm
T01C0.701
;Holesize 2 = 0.800 mm
T02C0.800
;Holesize 3 = 0.901 mm
T03C0.901
;Holesize 4 = 0.914 mm
T04C0.914
;Holesize 5 = 0.915 mm
T05C0.915
;Holesize 6 = 1.101 mm
T06C1.101
;Holesize 7 = 1.501 mm
T07C1.501
;Holesize 8 = 1.524 mm
T08C1.524
;Holesize 9 = 1.600 mm
T09C1.600
%
G05
G90
T01
X078465Y089725G85X078465Y090525
X072765Y089725G85X072765Y090525
X076050Y089195G85X075250Y089195
T02
X063710Y095600G85X065910Y095600
X078995Y097820G85X078995Y098520
X072145Y097820G85X072145Y098520
X063710Y094165G85X065910Y094165
X063435Y087990G85X066135Y087990
X069555Y089500G85X069555Y091700
T03
X059810Y095500G85X059810Y096700
X069810Y095500G85X069810Y096700
T04
X073725Y078320
X073725Y080860
X073725Y083400
T05
X078105Y060960
X080645Y060960
X083185Y060960
X085725Y060960
X088265Y060960
X078105Y076200
X085725Y076200
X083185Y076200
X088265Y076200
X090805Y076200
X093345Y076200
X095885Y076200
X098425Y076200
X100965Y076200
X103505Y076200
X106045Y076200
X090805Y060960
X100965Y060960
X106045Y060960
X112460Y073505
X112495Y081060
X080645Y076200
X115950Y073485
X115995Y081045
X119100Y073455
X119170Y081045
X122580Y073425
X122635Y081050
X077130Y080890
X079670Y080890
X094615Y073660
X097155Y073660
X085040Y080275
X092660Y080275
X105475Y080365
X097855Y080365
X111595Y064770
X111595Y067310
X122605Y062330
X122605Y064870
X122605Y067410
X122605Y069950
X114985Y062330
X114985Y064870
X114985Y067410
X114985Y069950
X114935Y057150
X097165Y057140
X094625Y057140
X092085Y057140
X112395Y057150
X074765Y067310
X074765Y064770
X103505Y060960
X069215Y057150
X071755Y057150
X074295Y057150
X076835Y057150
X079375Y057150
X081915Y057150
X084455Y057150
X086995Y057150
X089535Y057150
X098425Y060960
X095885Y060960
X093345Y060960
X071549Y061970
X071549Y064510
X071549Y067050
X071549Y069590
X063930Y061970
X063930Y064510
X063930Y067050
X063930Y069590
X074770Y074510
X072230Y074510
X123007Y086370
X125547Y086370
X125547Y088910
X123007Y088910
X109855Y057150
X099695Y057150
X102235Y057150
X104775Y057150
X107315Y057150
X123017Y091450
X125557Y091450
T06
X055945Y074395
X055945Y064235
T07
X090200Y088975
X082580Y088975
X097820Y088975
X095280Y086435
X085120Y086435
X102755Y088975
X110375Y088975
X117995Y088975
X115455Y086435
X105295Y086435
T08
X085120Y098424
X095280Y098424
X105296Y098426
X115456Y098426
X112915Y098421
X107835Y098421
X087664Y098435
X092744Y098435
T09
X064796Y089611
M30
