G04 Layer: BottomLayer*
G04 EasyEDA v6.5.50, 2025-04-22 20:35:32*
G04 2447ad7b923c4463a7a2b320b029b0bb,035c650733ab4bc79dd6698c18aa45da,10*
G04 Gerber Generator version 0.2*
G04 Scale: 100 percent, Rotated: No, Reflected: No *
G04 Dimensions in millimeters *
G04 leading zeros omitted , absolute positions ,4 integer and 5 decimal *
%FSLAX45Y45*%
%MOMM*%

%ADD10C,0.2540*%
%ADD11O,1.778X1.778*%
%ADD12O,1.27X2.032*%
%ADD13R,1.7780X1.7780*%
%ADD14C,1.7780*%
%ADD15R,2.8000X2.8000*%
%ADD16C,2.8000*%
%ADD17C,3.1000*%
%ADD18R,2.0000X3.4000*%
%ADD19R,1.5000X3.4000*%
%ADD20R,4.3000X2.4000*%
%ADD21C,2.1000*%
%ADD22R,2.1000X2.1000*%
%ADD23O,1.6999966X3.9999919999999998*%
%ADD24O,1.499997X3.9999919999999998*%
%ADD25R,4.3000X1.8000*%
%ADD26R,4.9000X1.4500*%
%ADD27R,1.7000X4.2000*%
%ADD28R,2.6000X1.7000*%
%ADD29R,0.0124X1.7000*%

%LPD*%
G36*
X5217160Y5270500D02*
G01*
X5213248Y5271262D01*
X5209946Y5273446D01*
X5207762Y5276748D01*
X5207000Y5280660D01*
X5207000Y6266332D01*
X5207762Y6270193D01*
X5209946Y6273495D01*
X5213248Y6275730D01*
X5217160Y6276492D01*
X5336590Y6276492D01*
X5457494Y6274003D01*
X5458256Y6274155D01*
X5458663Y6276441D01*
X5460085Y6279997D01*
X5462625Y6282740D01*
X5466080Y6284417D01*
X5469839Y6284671D01*
X5474716Y6282842D01*
X5481980Y6280658D01*
X5490006Y6279896D01*
X5535625Y6279896D01*
X5535625Y6364630D01*
X5471160Y6364630D01*
X5467248Y6365392D01*
X5463946Y6367627D01*
X5461762Y6370929D01*
X5461000Y6374790D01*
X5461000Y6472174D01*
X5461762Y6476085D01*
X5463946Y6479336D01*
X5467248Y6481572D01*
X5471160Y6482334D01*
X5535625Y6482334D01*
X5535625Y6567119D01*
X5490006Y6567119D01*
X5481980Y6566306D01*
X5474716Y6564122D01*
X5472684Y6563004D01*
X5469077Y6561886D01*
X5465318Y6562140D01*
X5461863Y6563817D01*
X5457545Y6568490D01*
X5335473Y6566966D01*
X5219700Y6566052D01*
X5215788Y6566814D01*
X5212486Y6568998D01*
X5210251Y6572300D01*
X5209438Y6576212D01*
X5207711Y7272985D01*
X5208473Y7276896D01*
X5210708Y7280198D01*
X5214010Y7282383D01*
X5217922Y7283196D01*
X5714339Y7281367D01*
X5722366Y7282129D01*
X5729630Y7284313D01*
X5736285Y7287869D01*
X5742178Y7292644D01*
X5746953Y7298436D01*
X5750560Y7305090D01*
X5752795Y7312304D01*
X5753608Y7320483D01*
X5753608Y7555992D01*
X5752795Y7564018D01*
X5750610Y7571231D01*
X5747054Y7577886D01*
X5742279Y7583728D01*
X5736386Y7588554D01*
X5729732Y7592110D01*
X5722518Y7594295D01*
X5714492Y7595108D01*
X5217160Y7594650D01*
X5213248Y7595412D01*
X5209946Y7597597D01*
X5207762Y7600899D01*
X5207000Y7604810D01*
X5207000Y10022840D01*
X5207762Y10026700D01*
X5209946Y10030002D01*
X5213248Y10032187D01*
X5217160Y10033000D01*
X7038340Y10033000D01*
X7042200Y10032187D01*
X7045502Y10030002D01*
X7047687Y10026700D01*
X7048500Y10022840D01*
X7048500Y9828733D01*
X7047687Y9824872D01*
X7045502Y9821570D01*
X7042200Y9819386D01*
X7038340Y9818573D01*
X7024827Y9818573D01*
X7024827Y9701326D01*
X7038340Y9701326D01*
X7042200Y9700564D01*
X7045502Y9698380D01*
X7047687Y9695078D01*
X7048500Y9691166D01*
X7048500Y9528810D01*
X7047687Y9524898D01*
X7045502Y9521596D01*
X7042200Y9519412D01*
X7038340Y9518650D01*
X7024827Y9518650D01*
X7024827Y9401352D01*
X7038340Y9401352D01*
X7042200Y9400590D01*
X7045502Y9398406D01*
X7047687Y9395104D01*
X7048500Y9391192D01*
X7048500Y9335465D01*
X7049465Y9334500D01*
X7169200Y9334500D01*
X7172858Y9333788D01*
X7176058Y9331858D01*
X7178294Y9328861D01*
X7218883Y9247733D01*
X7219899Y9244076D01*
X7219543Y9240367D01*
X7217816Y9237014D01*
X7215022Y9234474D01*
X7206284Y9229191D01*
X7194550Y9219996D01*
X7183983Y9209430D01*
X7174788Y9197695D01*
X7167067Y9184894D01*
X7160920Y9171330D01*
X7156500Y9157055D01*
X7153808Y9142374D01*
X7152894Y9127185D01*
X7152894Y8897772D01*
X7153808Y8882583D01*
X7156500Y8867902D01*
X7160920Y8853678D01*
X7167067Y8840063D01*
X7174788Y8827262D01*
X7183983Y8815527D01*
X7194550Y8804960D01*
X7206284Y8795766D01*
X7219035Y8788044D01*
X7232650Y8781897D01*
X7246924Y8777478D01*
X7261606Y8774785D01*
X7276490Y8773871D01*
X7291374Y8774785D01*
X7306056Y8777478D01*
X7320330Y8781897D01*
X7333945Y8788044D01*
X7346696Y8795766D01*
X7358430Y8804960D01*
X7368997Y8815527D01*
X7381595Y8831427D01*
X7385050Y8833104D01*
X7388910Y8833358D01*
X7392619Y8832189D01*
X7395565Y8829649D01*
X7397394Y8826246D01*
X7399375Y8819692D01*
X7402931Y8813038D01*
X7407706Y8807196D01*
X7413548Y8802420D01*
X7420254Y8798814D01*
X7427468Y8796629D01*
X7435494Y8795867D01*
X7493660Y8795867D01*
X7493660Y8870594D01*
X7409180Y8870594D01*
X7405116Y8871458D01*
X7401763Y8873845D01*
X7399629Y8877350D01*
X7399020Y8881414D01*
X7400086Y8897823D01*
X7400086Y8958173D01*
X7400848Y8962034D01*
X7403084Y8965336D01*
X7406386Y8967520D01*
X7410246Y8968333D01*
X7493660Y8968333D01*
X7493660Y9043060D01*
X7435494Y9043060D01*
X7427468Y9042298D01*
X7420254Y9040063D01*
X7415022Y9037320D01*
X7411059Y9036151D01*
X7406944Y9036659D01*
X7403338Y9038793D01*
X7400950Y9042196D01*
X7400086Y9046260D01*
X7400086Y9127185D01*
X7399731Y9133230D01*
X7400340Y9137294D01*
X7402474Y9140799D01*
X7405827Y9143136D01*
X7409891Y9144000D01*
X7713116Y9144000D01*
X7717129Y9143136D01*
X7720482Y9140799D01*
X7722666Y9137294D01*
X7723225Y9133230D01*
X7722870Y9127185D01*
X7722870Y9049816D01*
X7722158Y9046108D01*
X7720177Y9042908D01*
X7717129Y9040672D01*
X7713522Y9039656D01*
X7709763Y9040063D01*
X7702499Y9042298D01*
X7694472Y9043060D01*
X7636357Y9043060D01*
X7636357Y8968333D01*
X7712709Y8968333D01*
X7716621Y8967520D01*
X7719923Y8965336D01*
X7722108Y8962034D01*
X7722870Y8958173D01*
X7722870Y8897823D01*
X7723936Y8881414D01*
X7723378Y8877350D01*
X7721193Y8873845D01*
X7717840Y8871458D01*
X7713776Y8870594D01*
X7636357Y8870594D01*
X7636357Y8795867D01*
X7694472Y8795867D01*
X7702499Y8796629D01*
X7709763Y8798814D01*
X7716418Y8802420D01*
X7722260Y8807196D01*
X7727035Y8813038D01*
X7732826Y8823452D01*
X7736433Y8825941D01*
X7740700Y8826703D01*
X7744917Y8825585D01*
X7748270Y8822791D01*
X7753959Y8815527D01*
X7764525Y8804960D01*
X7776260Y8795766D01*
X7789062Y8788044D01*
X7802676Y8781897D01*
X7816900Y8777478D01*
X7831581Y8774785D01*
X7846466Y8773871D01*
X7861401Y8774785D01*
X7876082Y8777478D01*
X7890306Y8781897D01*
X7903921Y8788044D01*
X7916672Y8795766D01*
X7928457Y8804960D01*
X7938973Y8815527D01*
X7948218Y8827262D01*
X7955940Y8840063D01*
X7962036Y8853678D01*
X7966506Y8867902D01*
X7969199Y8882583D01*
X7970113Y8897772D01*
X7970113Y9127185D01*
X7969199Y9142374D01*
X7966506Y9157055D01*
X7962036Y9171330D01*
X7955940Y9184894D01*
X7948218Y9197695D01*
X7938973Y9209430D01*
X7928457Y9219996D01*
X7916672Y9229191D01*
X7903921Y9236913D01*
X7901127Y9238183D01*
X7897825Y9240520D01*
X7895742Y9244025D01*
X7895183Y9248038D01*
X7896250Y9251950D01*
X7934655Y9328861D01*
X7936941Y9331858D01*
X7940090Y9333788D01*
X7943748Y9334500D01*
X12063984Y9334500D01*
X12065000Y9335465D01*
X12065000Y10022840D01*
X12065762Y10026700D01*
X12067946Y10030002D01*
X12071248Y10032187D01*
X12075160Y10033000D01*
X12689840Y10033000D01*
X12693700Y10032187D01*
X12697002Y10030002D01*
X12699187Y10026700D01*
X12700000Y10022840D01*
X12700000Y9175292D01*
X12699085Y9171127D01*
X12696545Y9167723D01*
X12692837Y9165590D01*
X12688570Y9165234D01*
X12684556Y9166606D01*
X12681458Y9169552D01*
X12679832Y9173464D01*
X12679476Y9175445D01*
X12674854Y9190177D01*
X12668554Y9204198D01*
X12660579Y9217406D01*
X12651079Y9229496D01*
X12640208Y9240367D01*
X12628118Y9249867D01*
X12614910Y9257842D01*
X12600889Y9264142D01*
X12586157Y9268764D01*
X12571018Y9271508D01*
X12555677Y9272473D01*
X12540284Y9271508D01*
X12525146Y9268764D01*
X12510465Y9264142D01*
X12496444Y9257842D01*
X12483236Y9249867D01*
X12471146Y9240367D01*
X12460224Y9229496D01*
X12450775Y9217406D01*
X12442799Y9204198D01*
X12437922Y9193428D01*
X12435687Y9190278D01*
X12432487Y9188196D01*
X12428677Y9187434D01*
X12424867Y9188196D01*
X12421616Y9190278D01*
X12419431Y9193428D01*
X12414554Y9204198D01*
X12406579Y9217406D01*
X12397079Y9229496D01*
X12386208Y9240367D01*
X12374118Y9249867D01*
X12360910Y9257842D01*
X12346889Y9264142D01*
X12332157Y9268764D01*
X12317018Y9271508D01*
X12301677Y9272473D01*
X12286284Y9271508D01*
X12271146Y9268764D01*
X12256465Y9264142D01*
X12242444Y9257842D01*
X12229236Y9249867D01*
X12217146Y9240367D01*
X12206224Y9229496D01*
X12196775Y9217406D01*
X12188799Y9204198D01*
X12182449Y9190177D01*
X12177877Y9175445D01*
X12175134Y9160306D01*
X12174169Y9144965D01*
X12175134Y9129572D01*
X12177877Y9114434D01*
X12182449Y9099753D01*
X12188799Y9085732D01*
X12196775Y9072524D01*
X12206224Y9060434D01*
X12217146Y9049512D01*
X12229236Y9040063D01*
X12242444Y9032087D01*
X12252706Y9027464D01*
X12255855Y9025229D01*
X12257938Y9021978D01*
X12258700Y9018168D01*
X12257938Y9014409D01*
X12255855Y9011158D01*
X12252706Y9008922D01*
X12241428Y9003842D01*
X12228271Y8995867D01*
X12216130Y8986418D01*
X12205258Y8975496D01*
X12195759Y8963406D01*
X12187783Y8950198D01*
X12181484Y8936177D01*
X12176912Y8921496D01*
X12174118Y8906357D01*
X12173204Y8890965D01*
X12174118Y8875623D01*
X12176912Y8860434D01*
X12181484Y8845753D01*
X12187783Y8831732D01*
X12195759Y8818524D01*
X12205258Y8806434D01*
X12216130Y8795562D01*
X12228271Y8786063D01*
X12241428Y8778087D01*
X12252198Y8773210D01*
X12255398Y8771026D01*
X12257481Y8767775D01*
X12258192Y8763965D01*
X12257481Y8760155D01*
X12255398Y8756954D01*
X12252198Y8754719D01*
X12241428Y8749842D01*
X12228271Y8741867D01*
X12216130Y8732418D01*
X12205258Y8721496D01*
X12195759Y8709406D01*
X12187783Y8696198D01*
X12181484Y8682177D01*
X12176912Y8667496D01*
X12174118Y8652357D01*
X12173204Y8636965D01*
X12174118Y8621623D01*
X12176912Y8606434D01*
X12181484Y8591753D01*
X12187783Y8577732D01*
X12195759Y8564524D01*
X12205258Y8552434D01*
X12216130Y8541562D01*
X12228271Y8532063D01*
X12241428Y8524087D01*
X12255500Y8517737D01*
X12270181Y8513165D01*
X12285319Y8510422D01*
X12300712Y8509457D01*
X12316053Y8510422D01*
X12331192Y8513165D01*
X12345873Y8517737D01*
X12359944Y8524087D01*
X12373102Y8532063D01*
X12385243Y8541562D01*
X12396114Y8552434D01*
X12405614Y8564524D01*
X12413589Y8577732D01*
X12418415Y8588502D01*
X12420650Y8591651D01*
X12423902Y8593734D01*
X12427712Y8594496D01*
X12431471Y8593734D01*
X12434722Y8591651D01*
X12436957Y8588502D01*
X12441783Y8577732D01*
X12449759Y8564524D01*
X12459258Y8552434D01*
X12470130Y8541562D01*
X12482271Y8532063D01*
X12495428Y8524087D01*
X12509500Y8517737D01*
X12524181Y8513165D01*
X12539319Y8510422D01*
X12554712Y8509457D01*
X12570053Y8510422D01*
X12585192Y8513165D01*
X12599873Y8517737D01*
X12613944Y8524087D01*
X12627102Y8532063D01*
X12639243Y8541562D01*
X12650114Y8552434D01*
X12659614Y8564524D01*
X12667589Y8577732D01*
X12673888Y8591753D01*
X12678460Y8606434D01*
X12679832Y8613800D01*
X12681458Y8617762D01*
X12684556Y8620658D01*
X12688570Y8622080D01*
X12692837Y8621674D01*
X12696545Y8619591D01*
X12699085Y8616137D01*
X12700000Y8611971D01*
X12700000Y5280660D01*
X12699187Y5276748D01*
X12697002Y5273446D01*
X12693700Y5271262D01*
X12689840Y5270500D01*
G37*

%LPC*%
G36*
X12345822Y5477967D02*
G01*
X12365228Y5479338D01*
X12384379Y5482640D01*
X12403124Y5487720D01*
X12421260Y5494629D01*
X12438684Y5503214D01*
X12455194Y5513476D01*
X12470638Y5525262D01*
X12484862Y5538520D01*
X12497765Y5553049D01*
X12509195Y5568797D01*
X12519050Y5585510D01*
X12527229Y5603138D01*
X12533680Y5621477D01*
X12538303Y5640324D01*
X12541148Y5659577D01*
X12542062Y5678982D01*
X12541148Y5698388D01*
X12538303Y5717641D01*
X12533680Y5736488D01*
X12527229Y5754827D01*
X12519050Y5772454D01*
X12509195Y5789168D01*
X12497765Y5804916D01*
X12484862Y5819444D01*
X12470638Y5832703D01*
X12455194Y5844489D01*
X12438684Y5854750D01*
X12421260Y5863336D01*
X12403124Y5870244D01*
X12384379Y5875324D01*
X12365228Y5878626D01*
X12345822Y5879998D01*
X12326416Y5879541D01*
X12307112Y5877204D01*
X12288164Y5873038D01*
X12269673Y5866993D01*
X12251842Y5859272D01*
X12234875Y5849823D01*
X12218873Y5838748D01*
X12204039Y5826252D01*
X12190425Y5812332D01*
X12178284Y5797194D01*
X12167616Y5780938D01*
X12158624Y5763717D01*
X12151258Y5745734D01*
X12145721Y5727090D01*
X12141962Y5708040D01*
X12140133Y5688685D01*
X12140133Y5669280D01*
X12141962Y5649925D01*
X12145721Y5630875D01*
X12151258Y5612231D01*
X12158624Y5594248D01*
X12167616Y5577027D01*
X12178284Y5560771D01*
X12190425Y5545632D01*
X12204039Y5531713D01*
X12218873Y5519216D01*
X12234875Y5508142D01*
X12251842Y5498693D01*
X12269673Y5490972D01*
X12288164Y5484926D01*
X12307112Y5480761D01*
X12326416Y5478424D01*
G37*
G36*
X5561838Y5477967D02*
G01*
X5581243Y5479338D01*
X5600395Y5482640D01*
X5619140Y5487720D01*
X5637276Y5494629D01*
X5654700Y5503214D01*
X5671210Y5513476D01*
X5686653Y5525262D01*
X5700877Y5538520D01*
X5713780Y5553049D01*
X5725210Y5568797D01*
X5735066Y5585510D01*
X5743244Y5603138D01*
X5749696Y5621477D01*
X5754319Y5640324D01*
X5757164Y5659577D01*
X5758078Y5678982D01*
X5757164Y5698388D01*
X5754319Y5717641D01*
X5749696Y5736488D01*
X5743244Y5754827D01*
X5735066Y5772454D01*
X5725210Y5789168D01*
X5713780Y5804916D01*
X5700877Y5819444D01*
X5686653Y5832703D01*
X5671210Y5844489D01*
X5654700Y5854750D01*
X5637276Y5863336D01*
X5619140Y5870244D01*
X5600395Y5875324D01*
X5581243Y5878626D01*
X5561838Y5879998D01*
X5542432Y5879541D01*
X5523128Y5877204D01*
X5504180Y5873038D01*
X5485688Y5866993D01*
X5467858Y5859272D01*
X5450890Y5849823D01*
X5434888Y5838748D01*
X5420055Y5826252D01*
X5406440Y5812332D01*
X5394299Y5797194D01*
X5383631Y5780938D01*
X5374640Y5763717D01*
X5367274Y5745734D01*
X5361736Y5727090D01*
X5357977Y5708040D01*
X5356148Y5688685D01*
X5356148Y5669280D01*
X5357977Y5649925D01*
X5361736Y5630875D01*
X5367274Y5612231D01*
X5374640Y5594248D01*
X5383631Y5577027D01*
X5394299Y5560771D01*
X5406440Y5545632D01*
X5420055Y5531713D01*
X5434888Y5519216D01*
X5450890Y5508142D01*
X5467858Y5498693D01*
X5485688Y5490972D01*
X5504180Y5484926D01*
X5523128Y5480761D01*
X5542432Y5478424D01*
G37*
G36*
X9513265Y5586476D02*
G01*
X9550908Y5586476D01*
X9558883Y5587238D01*
X9566148Y5589473D01*
X9572802Y5593029D01*
X9578644Y5597804D01*
X9581642Y5601462D01*
X9585147Y5604205D01*
X9589465Y5605170D01*
X9593834Y5604205D01*
X9597339Y5601462D01*
X9600336Y5597804D01*
X9606178Y5593029D01*
X9612833Y5589473D01*
X9620046Y5587238D01*
X9628073Y5586476D01*
X9665665Y5586476D01*
X9665665Y5663184D01*
X9513265Y5663184D01*
G37*
G36*
X9767265Y5586476D02*
G01*
X9804908Y5586476D01*
X9812883Y5587238D01*
X9820148Y5589473D01*
X9826802Y5593029D01*
X9832644Y5597804D01*
X9835540Y5601360D01*
X9839045Y5604052D01*
X9843414Y5605068D01*
X9847732Y5604052D01*
X9851237Y5601360D01*
X9853320Y5598820D01*
X9859162Y5594045D01*
X9865817Y5590489D01*
X9873030Y5588254D01*
X9881057Y5587492D01*
X9918700Y5587492D01*
X9918700Y5664200D01*
X9858552Y5664200D01*
X9854133Y5663184D01*
X9767265Y5663184D01*
G37*
G36*
X9208516Y5586476D02*
G01*
X9223857Y5587390D01*
X9238996Y5590184D01*
X9253728Y5594756D01*
X9267748Y5601106D01*
X9280906Y5609031D01*
X9293047Y5618530D01*
X9303918Y5629452D01*
X9313418Y5641543D01*
X9316110Y5646013D01*
X9319107Y5649163D01*
X9323171Y5650788D01*
X9327540Y5650534D01*
X9331401Y5648502D01*
X9334042Y5645048D01*
X9334957Y5640781D01*
X9334957Y5625592D01*
X9335770Y5617565D01*
X9337954Y5610301D01*
X9341510Y5603646D01*
X9346336Y5597804D01*
X9352178Y5593029D01*
X9358833Y5589473D01*
X9366046Y5587238D01*
X9374073Y5586476D01*
X9411665Y5586476D01*
X9411665Y5663184D01*
X9339783Y5663184D01*
X9336074Y5663895D01*
X9332823Y5665876D01*
X9330588Y5668924D01*
X9329623Y5672582D01*
X9330080Y5676341D01*
X9332264Y5683453D01*
X9335058Y5698591D01*
X9335973Y5713984D01*
X9335058Y5729325D01*
X9332264Y5744464D01*
X9330080Y5751576D01*
X9329623Y5755335D01*
X9330588Y5758992D01*
X9332823Y5762040D01*
X9336024Y5764072D01*
X9339783Y5764784D01*
X9411665Y5764784D01*
X9411665Y5841492D01*
X9374073Y5841492D01*
X9366046Y5840679D01*
X9358833Y5838494D01*
X9352178Y5834938D01*
X9346336Y5830163D01*
X9341510Y5824321D01*
X9337954Y5817616D01*
X9335770Y5810402D01*
X9334957Y5802376D01*
X9334957Y5787186D01*
X9334042Y5782919D01*
X9331401Y5779414D01*
X9327540Y5777382D01*
X9323171Y5777128D01*
X9319107Y5778754D01*
X9316110Y5781903D01*
X9313418Y5786374D01*
X9303918Y5798515D01*
X9293047Y5809386D01*
X9280906Y5818886D01*
X9267748Y5826861D01*
X9253728Y5833160D01*
X9238996Y5837732D01*
X9223857Y5840526D01*
X9208516Y5841441D01*
X9193123Y5840526D01*
X9177985Y5837732D01*
X9163304Y5833160D01*
X9149232Y5826861D01*
X9136075Y5818886D01*
X9123934Y5809386D01*
X9113062Y5798515D01*
X9103563Y5786374D01*
X9095587Y5773216D01*
X9090456Y5761837D01*
X9088272Y5758688D01*
X9085021Y5756554D01*
X9081211Y5755843D01*
X9077401Y5756554D01*
X9074200Y5758688D01*
X9071965Y5761837D01*
X9066377Y5774232D01*
X9058402Y5787390D01*
X9048902Y5799531D01*
X9038031Y5810402D01*
X9025890Y5819902D01*
X9012732Y5827877D01*
X8998712Y5834176D01*
X8983980Y5838799D01*
X8968841Y5841542D01*
X8953500Y5842457D01*
X8938107Y5841542D01*
X8922969Y5838799D01*
X8908288Y5834176D01*
X8894216Y5827877D01*
X8881059Y5819902D01*
X8868918Y5810402D01*
X8858046Y5799531D01*
X8848547Y5787390D01*
X8840571Y5774232D01*
X8835745Y5763463D01*
X8833510Y5760313D01*
X8830259Y5758230D01*
X8826500Y5757468D01*
X8822690Y5758230D01*
X8819438Y5760313D01*
X8817203Y5763463D01*
X8812377Y5774232D01*
X8804402Y5787390D01*
X8794902Y5799531D01*
X8784031Y5810402D01*
X8771890Y5819902D01*
X8758732Y5827877D01*
X8744712Y5834176D01*
X8729980Y5838799D01*
X8714841Y5841542D01*
X8699500Y5842457D01*
X8684107Y5841542D01*
X8668969Y5838799D01*
X8654288Y5834176D01*
X8640216Y5827877D01*
X8627059Y5819902D01*
X8614918Y5810402D01*
X8604046Y5799531D01*
X8594547Y5787390D01*
X8586571Y5774232D01*
X8581745Y5763463D01*
X8579510Y5760313D01*
X8576259Y5758230D01*
X8572500Y5757468D01*
X8568690Y5758230D01*
X8565438Y5760313D01*
X8563203Y5763463D01*
X8558377Y5774232D01*
X8550402Y5787390D01*
X8540902Y5799531D01*
X8530031Y5810402D01*
X8517890Y5819902D01*
X8504732Y5827877D01*
X8490712Y5834176D01*
X8475980Y5838799D01*
X8460841Y5841542D01*
X8445500Y5842457D01*
X8430107Y5841542D01*
X8414969Y5838799D01*
X8400288Y5834176D01*
X8386216Y5827877D01*
X8373059Y5819902D01*
X8360918Y5810402D01*
X8350046Y5799531D01*
X8340547Y5787390D01*
X8332571Y5774232D01*
X8327745Y5763463D01*
X8325510Y5760313D01*
X8322259Y5758230D01*
X8318500Y5757468D01*
X8314690Y5758230D01*
X8311438Y5760313D01*
X8309203Y5763463D01*
X8304377Y5774232D01*
X8296402Y5787390D01*
X8286902Y5799531D01*
X8276031Y5810402D01*
X8263940Y5819902D01*
X8250732Y5827877D01*
X8236712Y5834176D01*
X8221980Y5838748D01*
X8206841Y5841542D01*
X8191500Y5842457D01*
X8176107Y5841542D01*
X8160969Y5838748D01*
X8146288Y5834176D01*
X8132267Y5827877D01*
X8119059Y5819902D01*
X8106968Y5810402D01*
X8096046Y5799531D01*
X8086598Y5787390D01*
X8078622Y5774232D01*
X8073745Y5763463D01*
X8071510Y5760313D01*
X8068309Y5758180D01*
X8064500Y5757468D01*
X8060690Y5758180D01*
X8057438Y5760313D01*
X8055254Y5763463D01*
X8050377Y5774232D01*
X8042402Y5787390D01*
X8032902Y5799531D01*
X8022031Y5810402D01*
X8009940Y5819902D01*
X7996732Y5827877D01*
X7982712Y5834176D01*
X7968030Y5838748D01*
X7952841Y5841542D01*
X7937500Y5842457D01*
X7922107Y5841542D01*
X7906969Y5838748D01*
X7892288Y5834176D01*
X7878267Y5827877D01*
X7865059Y5819902D01*
X7852968Y5810402D01*
X7842046Y5799531D01*
X7832598Y5787390D01*
X7824622Y5774232D01*
X7819745Y5763463D01*
X7817510Y5760313D01*
X7814309Y5758180D01*
X7810500Y5757468D01*
X7806690Y5758180D01*
X7803438Y5760313D01*
X7801254Y5763463D01*
X7796377Y5774232D01*
X7788402Y5787390D01*
X7778902Y5799531D01*
X7768031Y5810402D01*
X7755940Y5819902D01*
X7742732Y5827877D01*
X7728712Y5834176D01*
X7714030Y5838748D01*
X7698841Y5841542D01*
X7683500Y5842457D01*
X7668107Y5841542D01*
X7652969Y5838748D01*
X7638288Y5834176D01*
X7624267Y5827877D01*
X7611059Y5819902D01*
X7598968Y5810402D01*
X7588046Y5799531D01*
X7578598Y5787390D01*
X7570622Y5774232D01*
X7565745Y5763412D01*
X7563510Y5760262D01*
X7560259Y5758180D01*
X7556500Y5757418D01*
X7552690Y5758180D01*
X7549438Y5760262D01*
X7547203Y5763412D01*
X7542377Y5774232D01*
X7534402Y5787390D01*
X7524902Y5799531D01*
X7514031Y5810402D01*
X7501890Y5819902D01*
X7488732Y5827877D01*
X7474712Y5834176D01*
X7459980Y5838748D01*
X7444841Y5841542D01*
X7429500Y5842457D01*
X7414107Y5841542D01*
X7398969Y5838748D01*
X7384288Y5834176D01*
X7370216Y5827877D01*
X7357059Y5819902D01*
X7344918Y5810402D01*
X7334046Y5799531D01*
X7324547Y5787390D01*
X7316571Y5774232D01*
X7311745Y5763463D01*
X7309510Y5760313D01*
X7306259Y5758180D01*
X7302500Y5757468D01*
X7298690Y5758180D01*
X7295438Y5760313D01*
X7293203Y5763463D01*
X7288377Y5774232D01*
X7280402Y5787390D01*
X7270902Y5799531D01*
X7260031Y5810402D01*
X7247890Y5819902D01*
X7234732Y5827877D01*
X7220712Y5834176D01*
X7205980Y5838748D01*
X7190841Y5841542D01*
X7175500Y5842457D01*
X7160107Y5841542D01*
X7144969Y5838748D01*
X7130288Y5834176D01*
X7116216Y5827877D01*
X7103059Y5819902D01*
X7090918Y5810402D01*
X7080046Y5799531D01*
X7070547Y5787390D01*
X7062571Y5774232D01*
X7057745Y5763463D01*
X7055510Y5760313D01*
X7052259Y5758180D01*
X7048500Y5757468D01*
X7044690Y5758180D01*
X7041438Y5760313D01*
X7039203Y5763463D01*
X7034377Y5774232D01*
X7026402Y5787390D01*
X7016902Y5799531D01*
X7006031Y5810402D01*
X6993890Y5819902D01*
X6980732Y5827877D01*
X6966712Y5834176D01*
X6951980Y5838748D01*
X6936841Y5841542D01*
X6921500Y5842457D01*
X6906107Y5841542D01*
X6890969Y5838748D01*
X6876288Y5834176D01*
X6862216Y5827877D01*
X6849059Y5819902D01*
X6836918Y5810402D01*
X6826046Y5799531D01*
X6816547Y5787390D01*
X6808571Y5774232D01*
X6802272Y5760212D01*
X6797700Y5745480D01*
X6794906Y5730341D01*
X6793992Y5715000D01*
X6794906Y5699607D01*
X6797700Y5684469D01*
X6802272Y5669788D01*
X6808571Y5655716D01*
X6816547Y5642559D01*
X6826046Y5630418D01*
X6836918Y5619546D01*
X6849059Y5610047D01*
X6862216Y5602071D01*
X6876288Y5595772D01*
X6890969Y5591200D01*
X6906107Y5588406D01*
X6921500Y5587492D01*
X6936841Y5588406D01*
X6951980Y5591200D01*
X6966712Y5595772D01*
X6980732Y5602071D01*
X6993890Y5610047D01*
X7006031Y5619546D01*
X7016902Y5630418D01*
X7026402Y5642559D01*
X7034377Y5655716D01*
X7039203Y5666486D01*
X7041438Y5669635D01*
X7044690Y5671769D01*
X7048500Y5672480D01*
X7052259Y5671769D01*
X7055510Y5669635D01*
X7057745Y5666486D01*
X7062571Y5655716D01*
X7070547Y5642559D01*
X7080046Y5630418D01*
X7090918Y5619546D01*
X7103059Y5610047D01*
X7116216Y5602071D01*
X7130288Y5595772D01*
X7144969Y5591200D01*
X7160107Y5588406D01*
X7175500Y5587492D01*
X7190841Y5588406D01*
X7205980Y5591200D01*
X7220712Y5595772D01*
X7234732Y5602071D01*
X7247890Y5610047D01*
X7260031Y5619546D01*
X7270902Y5630418D01*
X7280402Y5642559D01*
X7288377Y5655716D01*
X7293203Y5666486D01*
X7295438Y5669686D01*
X7298690Y5671769D01*
X7302500Y5672480D01*
X7306259Y5671769D01*
X7309510Y5669686D01*
X7311745Y5666486D01*
X7316571Y5655716D01*
X7324547Y5642559D01*
X7334046Y5630418D01*
X7344918Y5619546D01*
X7357059Y5610047D01*
X7370216Y5602071D01*
X7384288Y5595772D01*
X7398969Y5591200D01*
X7414107Y5588406D01*
X7429500Y5587492D01*
X7444841Y5588406D01*
X7459980Y5591200D01*
X7474712Y5595772D01*
X7488732Y5602071D01*
X7501890Y5610047D01*
X7514031Y5619546D01*
X7524902Y5630418D01*
X7534402Y5642559D01*
X7542377Y5655716D01*
X7547203Y5666536D01*
X7549438Y5669686D01*
X7552690Y5671769D01*
X7556500Y5672531D01*
X7560259Y5671769D01*
X7563510Y5669686D01*
X7565745Y5666536D01*
X7570622Y5655716D01*
X7578598Y5642559D01*
X7588046Y5630418D01*
X7598968Y5619546D01*
X7611059Y5610047D01*
X7624267Y5602071D01*
X7638288Y5595772D01*
X7652969Y5591200D01*
X7668107Y5588406D01*
X7683500Y5587492D01*
X7698841Y5588406D01*
X7714030Y5591200D01*
X7728712Y5595772D01*
X7742732Y5602071D01*
X7755940Y5610047D01*
X7768031Y5619546D01*
X7778902Y5630418D01*
X7788402Y5642559D01*
X7796377Y5655716D01*
X7801254Y5666486D01*
X7803438Y5669686D01*
X7806690Y5671769D01*
X7810500Y5672480D01*
X7814309Y5671769D01*
X7817510Y5669686D01*
X7819745Y5666486D01*
X7824622Y5655716D01*
X7832598Y5642559D01*
X7842046Y5630418D01*
X7852968Y5619546D01*
X7865059Y5610047D01*
X7878267Y5602071D01*
X7892288Y5595772D01*
X7906969Y5591200D01*
X7922107Y5588406D01*
X7937500Y5587492D01*
X7952841Y5588406D01*
X7968030Y5591200D01*
X7982712Y5595772D01*
X7996732Y5602071D01*
X8009940Y5610047D01*
X8022031Y5619546D01*
X8032902Y5630418D01*
X8042402Y5642559D01*
X8050377Y5655716D01*
X8055254Y5666486D01*
X8057438Y5669635D01*
X8060690Y5671769D01*
X8064500Y5672480D01*
X8068309Y5671769D01*
X8071510Y5669635D01*
X8073745Y5666486D01*
X8078622Y5655716D01*
X8086598Y5642559D01*
X8096046Y5630418D01*
X8106968Y5619546D01*
X8119059Y5610047D01*
X8132267Y5602071D01*
X8146288Y5595772D01*
X8160969Y5591200D01*
X8176107Y5588406D01*
X8191500Y5587492D01*
X8206841Y5588406D01*
X8221980Y5591200D01*
X8236712Y5595772D01*
X8250732Y5602071D01*
X8263940Y5610047D01*
X8276031Y5619546D01*
X8286902Y5630418D01*
X8296402Y5642559D01*
X8304377Y5655716D01*
X8309203Y5666486D01*
X8311438Y5669635D01*
X8314690Y5671769D01*
X8318500Y5672480D01*
X8322259Y5671769D01*
X8325510Y5669635D01*
X8327745Y5666486D01*
X8332571Y5655767D01*
X8340547Y5642559D01*
X8350046Y5630468D01*
X8360918Y5619546D01*
X8373059Y5610047D01*
X8386216Y5602122D01*
X8400288Y5595772D01*
X8414969Y5591200D01*
X8430107Y5588406D01*
X8445500Y5587492D01*
X8460841Y5588406D01*
X8475980Y5591200D01*
X8490712Y5595772D01*
X8504732Y5602122D01*
X8517890Y5610047D01*
X8530031Y5619546D01*
X8540902Y5630468D01*
X8550402Y5642559D01*
X8558377Y5655767D01*
X8563203Y5666536D01*
X8565438Y5669686D01*
X8568690Y5671769D01*
X8572500Y5672531D01*
X8576259Y5671769D01*
X8579510Y5669686D01*
X8581745Y5666536D01*
X8586571Y5655767D01*
X8594547Y5642559D01*
X8604046Y5630468D01*
X8614918Y5619546D01*
X8627059Y5610047D01*
X8640216Y5602122D01*
X8654288Y5595772D01*
X8668969Y5591200D01*
X8684107Y5588406D01*
X8699500Y5587492D01*
X8714841Y5588406D01*
X8729980Y5591200D01*
X8744712Y5595772D01*
X8758732Y5602122D01*
X8771890Y5610047D01*
X8784031Y5619546D01*
X8794902Y5630468D01*
X8804402Y5642559D01*
X8812377Y5655767D01*
X8817203Y5666536D01*
X8819438Y5669686D01*
X8822690Y5671769D01*
X8826500Y5672531D01*
X8830259Y5671769D01*
X8833510Y5669686D01*
X8835745Y5666536D01*
X8840571Y5655767D01*
X8848547Y5642559D01*
X8858046Y5630468D01*
X8868918Y5619546D01*
X8881059Y5610047D01*
X8894216Y5602122D01*
X8908288Y5595772D01*
X8922969Y5591200D01*
X8938107Y5588406D01*
X8953500Y5587492D01*
X8968841Y5588406D01*
X8983980Y5591200D01*
X8998712Y5595772D01*
X9012732Y5602122D01*
X9025890Y5610047D01*
X9038031Y5619546D01*
X9048902Y5630468D01*
X9058402Y5642559D01*
X9066377Y5655767D01*
X9071508Y5667146D01*
X9073743Y5670296D01*
X9076944Y5672378D01*
X9080754Y5673140D01*
X9084564Y5672378D01*
X9087815Y5670296D01*
X9089999Y5667146D01*
X9095587Y5654700D01*
X9103563Y5641543D01*
X9113062Y5629452D01*
X9123934Y5618530D01*
X9136075Y5609031D01*
X9149232Y5601106D01*
X9163304Y5594756D01*
X9177985Y5590184D01*
X9193123Y5587390D01*
G37*
G36*
X10020300Y5587492D02*
G01*
X10057892Y5587492D01*
X10065918Y5588254D01*
X10073132Y5590489D01*
X10079786Y5594045D01*
X10085628Y5598820D01*
X10088626Y5602478D01*
X10092131Y5605221D01*
X10096500Y5606186D01*
X10100818Y5605221D01*
X10104323Y5602478D01*
X10107320Y5598820D01*
X10113162Y5594045D01*
X10119817Y5590489D01*
X10127030Y5588254D01*
X10135057Y5587492D01*
X10172700Y5587492D01*
X10172700Y5664200D01*
X10020300Y5664200D01*
G37*
G36*
X10274300Y5587492D02*
G01*
X10311892Y5587492D01*
X10319918Y5588254D01*
X10327132Y5590489D01*
X10333786Y5594045D01*
X10339628Y5598820D01*
X10344454Y5604662D01*
X10348010Y5611317D01*
X10350195Y5618581D01*
X10351008Y5626608D01*
X10351008Y5641797D01*
X10351922Y5646064D01*
X10354564Y5649569D01*
X10358424Y5651601D01*
X10362793Y5651855D01*
X10366857Y5650230D01*
X10369854Y5647080D01*
X10372547Y5642559D01*
X10382046Y5630468D01*
X10392918Y5619546D01*
X10405059Y5610098D01*
X10418216Y5602122D01*
X10432288Y5595772D01*
X10446969Y5591200D01*
X10462107Y5588457D01*
X10477500Y5587492D01*
X10492841Y5588457D01*
X10507980Y5591200D01*
X10522661Y5595772D01*
X10536732Y5602122D01*
X10549890Y5610098D01*
X10562031Y5619546D01*
X10572902Y5630468D01*
X10582402Y5642559D01*
X10590377Y5655767D01*
X10595203Y5666536D01*
X10597438Y5669686D01*
X10600690Y5671769D01*
X10604500Y5672531D01*
X10608259Y5671769D01*
X10611510Y5669686D01*
X10613745Y5666536D01*
X10618571Y5655767D01*
X10626547Y5642559D01*
X10636046Y5630468D01*
X10646918Y5619597D01*
X10659059Y5610098D01*
X10672216Y5602122D01*
X10686288Y5595772D01*
X10700969Y5591200D01*
X10716107Y5588457D01*
X10731500Y5587492D01*
X10746841Y5588457D01*
X10761980Y5591200D01*
X10776712Y5595772D01*
X10790732Y5602122D01*
X10803890Y5610098D01*
X10816031Y5619597D01*
X10826902Y5630468D01*
X10836402Y5642559D01*
X10844377Y5655767D01*
X10849203Y5666536D01*
X10851438Y5669686D01*
X10854690Y5671769D01*
X10858500Y5672531D01*
X10862259Y5671769D01*
X10865510Y5669686D01*
X10867745Y5666536D01*
X10872571Y5655767D01*
X10880547Y5642559D01*
X10890046Y5630468D01*
X10900918Y5619546D01*
X10913059Y5610098D01*
X10926216Y5602122D01*
X10940288Y5595772D01*
X10954969Y5591200D01*
X10970107Y5588457D01*
X10985500Y5587492D01*
X11000841Y5588457D01*
X11015980Y5591200D01*
X11030661Y5595772D01*
X11044732Y5602122D01*
X11057890Y5610098D01*
X11070031Y5619546D01*
X11080902Y5630468D01*
X11090402Y5642559D01*
X11098377Y5655767D01*
X11103203Y5666536D01*
X11105438Y5669686D01*
X11108690Y5671769D01*
X11112500Y5672531D01*
X11116259Y5671769D01*
X11119510Y5669686D01*
X11121745Y5666536D01*
X11126571Y5655767D01*
X11134547Y5642559D01*
X11144046Y5630468D01*
X11154918Y5619597D01*
X11167059Y5610098D01*
X11180216Y5602122D01*
X11194288Y5595772D01*
X11208969Y5591200D01*
X11224107Y5588457D01*
X11239500Y5587492D01*
X11254841Y5588457D01*
X11269980Y5591200D01*
X11284712Y5595772D01*
X11298732Y5602122D01*
X11311890Y5610098D01*
X11324031Y5619597D01*
X11334902Y5630468D01*
X11344402Y5642559D01*
X11352377Y5655767D01*
X11357203Y5666536D01*
X11359438Y5669686D01*
X11362690Y5671769D01*
X11366500Y5672531D01*
X11370259Y5671769D01*
X11373510Y5669686D01*
X11375745Y5666536D01*
X11380571Y5655767D01*
X11388547Y5642559D01*
X11398046Y5630468D01*
X11408918Y5619597D01*
X11421059Y5610098D01*
X11434216Y5602122D01*
X11448288Y5595772D01*
X11462969Y5591200D01*
X11478107Y5588457D01*
X11493500Y5587492D01*
X11508841Y5588457D01*
X11523980Y5591200D01*
X11538661Y5595772D01*
X11552732Y5602122D01*
X11565890Y5610098D01*
X11578031Y5619597D01*
X11588902Y5630468D01*
X11598402Y5642559D01*
X11606377Y5655767D01*
X11612676Y5669788D01*
X11617248Y5684469D01*
X11620042Y5699658D01*
X11620957Y5715000D01*
X11620042Y5730392D01*
X11617248Y5745530D01*
X11612676Y5760212D01*
X11606377Y5774232D01*
X11598402Y5787440D01*
X11588902Y5799531D01*
X11578031Y5810453D01*
X11565890Y5819902D01*
X11552732Y5827877D01*
X11538661Y5834227D01*
X11523980Y5838799D01*
X11508841Y5841542D01*
X11493500Y5842508D01*
X11478107Y5841542D01*
X11462969Y5838799D01*
X11448288Y5834227D01*
X11434216Y5827877D01*
X11421059Y5819902D01*
X11408918Y5810453D01*
X11398046Y5799531D01*
X11388547Y5787440D01*
X11380571Y5774232D01*
X11375745Y5763463D01*
X11373510Y5760313D01*
X11370259Y5758230D01*
X11366500Y5757468D01*
X11362690Y5758230D01*
X11359438Y5760313D01*
X11357203Y5763463D01*
X11352377Y5774232D01*
X11344402Y5787440D01*
X11334902Y5799531D01*
X11324031Y5810453D01*
X11311890Y5819902D01*
X11298732Y5827877D01*
X11284712Y5834227D01*
X11269980Y5838799D01*
X11254841Y5841542D01*
X11239500Y5842508D01*
X11224107Y5841542D01*
X11208969Y5838799D01*
X11194288Y5834227D01*
X11180216Y5827877D01*
X11167059Y5819902D01*
X11154918Y5810453D01*
X11144046Y5799531D01*
X11134547Y5787440D01*
X11126571Y5774232D01*
X11121745Y5763463D01*
X11119510Y5760313D01*
X11116259Y5758230D01*
X11112500Y5757468D01*
X11108690Y5758230D01*
X11105438Y5760313D01*
X11103203Y5763463D01*
X11098377Y5774232D01*
X11090402Y5787440D01*
X11080902Y5799531D01*
X11070031Y5810402D01*
X11057890Y5819902D01*
X11044732Y5827877D01*
X11030661Y5834176D01*
X11015980Y5838799D01*
X11000841Y5841542D01*
X10985500Y5842508D01*
X10970107Y5841542D01*
X10954969Y5838799D01*
X10940288Y5834176D01*
X10926216Y5827877D01*
X10913059Y5819902D01*
X10900918Y5810402D01*
X10890046Y5799531D01*
X10880547Y5787440D01*
X10872571Y5774232D01*
X10867745Y5763463D01*
X10865510Y5760313D01*
X10862259Y5758230D01*
X10858500Y5757468D01*
X10854690Y5758230D01*
X10851438Y5760313D01*
X10849203Y5763463D01*
X10844377Y5774232D01*
X10836402Y5787440D01*
X10826902Y5799531D01*
X10816031Y5810453D01*
X10803890Y5819902D01*
X10790732Y5827877D01*
X10776712Y5834227D01*
X10761980Y5838799D01*
X10746841Y5841542D01*
X10731500Y5842508D01*
X10716107Y5841542D01*
X10700969Y5838799D01*
X10686288Y5834227D01*
X10672216Y5827877D01*
X10659059Y5819902D01*
X10646918Y5810453D01*
X10636046Y5799531D01*
X10626547Y5787440D01*
X10618571Y5774232D01*
X10613745Y5763463D01*
X10611510Y5760313D01*
X10608259Y5758230D01*
X10604500Y5757468D01*
X10600690Y5758230D01*
X10597438Y5760313D01*
X10595203Y5763463D01*
X10590377Y5774232D01*
X10582402Y5787440D01*
X10572902Y5799531D01*
X10562031Y5810402D01*
X10549890Y5819902D01*
X10536732Y5827877D01*
X10522661Y5834176D01*
X10507980Y5838799D01*
X10492841Y5841542D01*
X10477500Y5842508D01*
X10462107Y5841542D01*
X10446969Y5838799D01*
X10432288Y5834176D01*
X10418216Y5827877D01*
X10405059Y5819902D01*
X10392918Y5810402D01*
X10382046Y5799531D01*
X10372547Y5787440D01*
X10369854Y5782919D01*
X10366857Y5779770D01*
X10362793Y5778144D01*
X10358424Y5778398D01*
X10354564Y5780430D01*
X10351922Y5783935D01*
X10351008Y5788202D01*
X10351008Y5803392D01*
X10350195Y5811418D01*
X10348010Y5818632D01*
X10344454Y5825286D01*
X10339628Y5831179D01*
X10333786Y5835954D01*
X10327132Y5839510D01*
X10319918Y5841695D01*
X10311892Y5842508D01*
X10274300Y5842508D01*
X10274300Y5765800D01*
X10346182Y5765800D01*
X10349941Y5765088D01*
X10353141Y5763056D01*
X10355376Y5760008D01*
X10356342Y5756351D01*
X10355884Y5752592D01*
X10353700Y5745530D01*
X10350906Y5730341D01*
X10349992Y5715000D01*
X10350906Y5699607D01*
X10353700Y5684469D01*
X10355884Y5677357D01*
X10356342Y5673598D01*
X10355376Y5669940D01*
X10353141Y5666892D01*
X10349941Y5664911D01*
X10346232Y5664200D01*
X10274300Y5664200D01*
G37*
G36*
X9827260Y5764580D02*
G01*
X9831832Y5765800D01*
X9918700Y5765800D01*
X9918700Y5842508D01*
X9881057Y5842508D01*
X9873030Y5841695D01*
X9865817Y5839510D01*
X9859162Y5835954D01*
X9853320Y5831179D01*
X9850424Y5827623D01*
X9846919Y5824880D01*
X9842550Y5823915D01*
X9838232Y5824880D01*
X9834727Y5827623D01*
X9832644Y5830163D01*
X9826802Y5834938D01*
X9820148Y5838494D01*
X9812883Y5840679D01*
X9804908Y5841492D01*
X9767265Y5841492D01*
X9767265Y5764784D01*
G37*
G36*
X9513265Y5764784D02*
G01*
X9665665Y5764784D01*
X9665665Y5841492D01*
X9628073Y5841492D01*
X9620046Y5840679D01*
X9612833Y5838494D01*
X9606178Y5834938D01*
X9600336Y5830163D01*
X9597339Y5826506D01*
X9593834Y5823762D01*
X9589465Y5822797D01*
X9585147Y5823762D01*
X9581642Y5826506D01*
X9578644Y5830163D01*
X9572802Y5834938D01*
X9566148Y5838494D01*
X9558883Y5840679D01*
X9550908Y5841492D01*
X9513265Y5841492D01*
G37*
G36*
X10020300Y5765800D02*
G01*
X10172700Y5765800D01*
X10172700Y5842508D01*
X10135057Y5842508D01*
X10127030Y5841695D01*
X10119817Y5839510D01*
X10113162Y5835954D01*
X10107320Y5831179D01*
X10104323Y5827522D01*
X10100818Y5824778D01*
X10096500Y5823813D01*
X10092131Y5824778D01*
X10088626Y5827522D01*
X10085628Y5831179D01*
X10079786Y5835954D01*
X10073132Y5839510D01*
X10065918Y5841695D01*
X10057892Y5842508D01*
X10020300Y5842508D01*
G37*
G36*
X7810500Y5968492D02*
G01*
X7825892Y5969457D01*
X7841030Y5972200D01*
X7855712Y5976772D01*
X7869732Y5983122D01*
X7882940Y5991098D01*
X7895031Y6000597D01*
X7905902Y6011468D01*
X7915402Y6023559D01*
X7923377Y6036767D01*
X7928254Y6047536D01*
X7930438Y6050686D01*
X7933690Y6052769D01*
X7937500Y6053531D01*
X7941309Y6052769D01*
X7944561Y6050686D01*
X7946745Y6047536D01*
X7951622Y6036767D01*
X7959598Y6023559D01*
X7969097Y6011468D01*
X7979968Y6000597D01*
X7992059Y5991098D01*
X8005267Y5983122D01*
X8019288Y5976772D01*
X8033969Y5972200D01*
X8049107Y5969457D01*
X8064500Y5968492D01*
X8079892Y5969457D01*
X8095030Y5972200D01*
X8109712Y5976772D01*
X8123732Y5983122D01*
X8136940Y5991098D01*
X8149031Y6000597D01*
X8159902Y6011468D01*
X8169402Y6023559D01*
X8177377Y6036767D01*
X8182254Y6047536D01*
X8184438Y6050686D01*
X8187690Y6052769D01*
X8191500Y6053531D01*
X8195309Y6052769D01*
X8198561Y6050686D01*
X8200745Y6047536D01*
X8205622Y6036767D01*
X8213598Y6023559D01*
X8223097Y6011468D01*
X8233968Y6000597D01*
X8246059Y5991098D01*
X8259267Y5983122D01*
X8273288Y5976772D01*
X8287969Y5972200D01*
X8303107Y5969457D01*
X8318500Y5968492D01*
X8333892Y5969457D01*
X8349030Y5972200D01*
X8363712Y5976772D01*
X8377732Y5983122D01*
X8390940Y5991098D01*
X8403031Y6000597D01*
X8413902Y6011468D01*
X8423402Y6023559D01*
X8431377Y6036767D01*
X8436254Y6047536D01*
X8438438Y6050686D01*
X8441690Y6052769D01*
X8445500Y6053531D01*
X8449310Y6052769D01*
X8452561Y6050686D01*
X8454745Y6047536D01*
X8459622Y6036767D01*
X8467598Y6023559D01*
X8477097Y6011468D01*
X8487968Y6000597D01*
X8500059Y5991098D01*
X8513267Y5983122D01*
X8527288Y5976772D01*
X8541969Y5972200D01*
X8557107Y5969457D01*
X8572500Y5968492D01*
X8587892Y5969457D01*
X8603030Y5972200D01*
X8617712Y5976772D01*
X8631732Y5983122D01*
X8644940Y5991098D01*
X8657031Y6000597D01*
X8667902Y6011468D01*
X8677402Y6023559D01*
X8685377Y6036767D01*
X8690254Y6047536D01*
X8692438Y6050686D01*
X8695690Y6052769D01*
X8699500Y6053531D01*
X8703310Y6052769D01*
X8706561Y6050686D01*
X8708745Y6047536D01*
X8713622Y6036767D01*
X8721598Y6023559D01*
X8731097Y6011468D01*
X8741968Y6000597D01*
X8754059Y5991098D01*
X8767267Y5983122D01*
X8781288Y5976772D01*
X8795969Y5972200D01*
X8811107Y5969457D01*
X8826500Y5968492D01*
X8841892Y5969457D01*
X8857030Y5972200D01*
X8871712Y5976772D01*
X8885732Y5983122D01*
X8898940Y5991098D01*
X8911031Y6000597D01*
X8921902Y6011468D01*
X8931402Y6023559D01*
X8939377Y6036767D01*
X8944254Y6047536D01*
X8946438Y6050686D01*
X8949690Y6052769D01*
X8953500Y6053531D01*
X8957310Y6052769D01*
X8960561Y6050686D01*
X8962745Y6047536D01*
X8967622Y6036767D01*
X8975598Y6023559D01*
X8985097Y6011468D01*
X8995968Y6000597D01*
X9008059Y5991098D01*
X9021267Y5983122D01*
X9035288Y5976772D01*
X9049969Y5972200D01*
X9065107Y5969457D01*
X9080500Y5968492D01*
X9095892Y5969457D01*
X9111030Y5972200D01*
X9125712Y5976772D01*
X9139732Y5983122D01*
X9152940Y5991098D01*
X9165031Y6000597D01*
X9175902Y6011468D01*
X9185402Y6023559D01*
X9193377Y6036767D01*
X9198203Y6047486D01*
X9200438Y6050635D01*
X9203690Y6052769D01*
X9207500Y6053480D01*
X9211259Y6052769D01*
X9214510Y6050635D01*
X9216745Y6047486D01*
X9221571Y6036716D01*
X9229547Y6023559D01*
X9239046Y6011468D01*
X9249918Y6000546D01*
X9262059Y5991047D01*
X9275216Y5983122D01*
X9289288Y5976772D01*
X9303969Y5972200D01*
X9319107Y5969406D01*
X9334500Y5968492D01*
X9349841Y5969406D01*
X9364980Y5972200D01*
X9379712Y5976772D01*
X9393732Y5983122D01*
X9406890Y5991047D01*
X9419031Y6000546D01*
X9429902Y6011468D01*
X9439402Y6023559D01*
X9447377Y6036716D01*
X9452203Y6047536D01*
X9454438Y6050686D01*
X9457690Y6052769D01*
X9461500Y6053480D01*
X9465259Y6052769D01*
X9468510Y6050686D01*
X9470745Y6047536D01*
X9475571Y6036716D01*
X9483547Y6023559D01*
X9493046Y6011468D01*
X9503918Y6000546D01*
X9516059Y5991047D01*
X9529216Y5983122D01*
X9543288Y5976772D01*
X9557969Y5972200D01*
X9573107Y5969406D01*
X9588500Y5968492D01*
X9603841Y5969406D01*
X9618980Y5972200D01*
X9633712Y5976772D01*
X9647732Y5983122D01*
X9660890Y5991047D01*
X9673031Y6000546D01*
X9683902Y6011468D01*
X9693402Y6023559D01*
X9701377Y6036716D01*
X9706203Y6047536D01*
X9708438Y6050686D01*
X9711690Y6052769D01*
X9715500Y6053480D01*
X9719259Y6052769D01*
X9722510Y6050686D01*
X9724745Y6047536D01*
X9729571Y6036716D01*
X9737547Y6023559D01*
X9747046Y6011468D01*
X9757918Y6000546D01*
X9770059Y5991047D01*
X9783216Y5983122D01*
X9797288Y5976772D01*
X9811969Y5972200D01*
X9827107Y5969406D01*
X9842500Y5968492D01*
X9857841Y5969406D01*
X9872980Y5972200D01*
X9887712Y5976772D01*
X9901732Y5983122D01*
X9914890Y5991047D01*
X9927031Y6000546D01*
X9937902Y6011468D01*
X9947402Y6023559D01*
X9955377Y6036716D01*
X9960254Y6047536D01*
X9962438Y6050686D01*
X9965690Y6052820D01*
X9969500Y6053531D01*
X9973310Y6052820D01*
X9976510Y6050686D01*
X9978745Y6047536D01*
X9983622Y6036767D01*
X9991598Y6023559D01*
X10001097Y6011468D01*
X10011968Y6000597D01*
X10024059Y5991098D01*
X10037267Y5983122D01*
X10051288Y5976772D01*
X10065969Y5972200D01*
X10081107Y5969457D01*
X10096500Y5968492D01*
X10111892Y5969457D01*
X10127030Y5972200D01*
X10141712Y5976772D01*
X10155732Y5983122D01*
X10168940Y5991098D01*
X10181031Y6000597D01*
X10191902Y6011468D01*
X10201402Y6023559D01*
X10209377Y6036767D01*
X10214254Y6047536D01*
X10216438Y6050686D01*
X10219690Y6052769D01*
X10223500Y6053531D01*
X10227310Y6052769D01*
X10230561Y6050686D01*
X10232745Y6047536D01*
X10237622Y6036767D01*
X10245598Y6023559D01*
X10255097Y6011468D01*
X10265968Y6000597D01*
X10278059Y5991098D01*
X10291267Y5983122D01*
X10305288Y5976772D01*
X10319969Y5972200D01*
X10335107Y5969457D01*
X10350500Y5968492D01*
X10365892Y5969457D01*
X10381030Y5972200D01*
X10395712Y5976772D01*
X10409732Y5983122D01*
X10422940Y5991098D01*
X10435031Y6000597D01*
X10445902Y6011468D01*
X10455402Y6023559D01*
X10463377Y6036767D01*
X10468254Y6047536D01*
X10470438Y6050686D01*
X10473690Y6052769D01*
X10477500Y6053531D01*
X10481310Y6052769D01*
X10484561Y6050686D01*
X10486745Y6047536D01*
X10491622Y6036767D01*
X10499598Y6023559D01*
X10509097Y6011468D01*
X10519968Y6000597D01*
X10532059Y5991098D01*
X10545267Y5983122D01*
X10559288Y5976772D01*
X10573969Y5972200D01*
X10589107Y5969457D01*
X10604500Y5968492D01*
X10619892Y5969457D01*
X10635030Y5972200D01*
X10649712Y5976772D01*
X10663732Y5983122D01*
X10676940Y5991098D01*
X10689031Y6000597D01*
X10699902Y6011468D01*
X10709402Y6023559D01*
X10717377Y6036767D01*
X10723727Y6050788D01*
X10728299Y6065469D01*
X10731042Y6080607D01*
X10732008Y6096000D01*
X10731042Y6111392D01*
X10728299Y6126530D01*
X10723727Y6141212D01*
X10717377Y6155232D01*
X10709402Y6168440D01*
X10699902Y6180531D01*
X10689031Y6191402D01*
X10676940Y6200902D01*
X10663732Y6208877D01*
X10649712Y6215227D01*
X10635030Y6219799D01*
X10619892Y6222542D01*
X10604500Y6223508D01*
X10589107Y6222542D01*
X10573969Y6219799D01*
X10559288Y6215227D01*
X10545267Y6208877D01*
X10532059Y6200902D01*
X10519968Y6191402D01*
X10509097Y6180531D01*
X10499598Y6168440D01*
X10491622Y6155232D01*
X10486745Y6144463D01*
X10484561Y6141313D01*
X10481310Y6139230D01*
X10477500Y6138468D01*
X10473690Y6139230D01*
X10470438Y6141313D01*
X10468254Y6144463D01*
X10463377Y6155232D01*
X10455402Y6168440D01*
X10445902Y6180531D01*
X10435031Y6191402D01*
X10422940Y6200902D01*
X10409732Y6208877D01*
X10395712Y6215227D01*
X10381030Y6219799D01*
X10365892Y6222542D01*
X10350500Y6223508D01*
X10335107Y6222542D01*
X10319969Y6219799D01*
X10305288Y6215227D01*
X10291267Y6208877D01*
X10278059Y6200902D01*
X10265968Y6191402D01*
X10255097Y6180531D01*
X10245598Y6168440D01*
X10237622Y6155232D01*
X10232745Y6144463D01*
X10230561Y6141313D01*
X10227310Y6139230D01*
X10223500Y6138468D01*
X10219690Y6139230D01*
X10216438Y6141313D01*
X10214254Y6144463D01*
X10209377Y6155232D01*
X10201402Y6168440D01*
X10191902Y6180531D01*
X10181031Y6191402D01*
X10168940Y6200902D01*
X10155732Y6208877D01*
X10141712Y6215227D01*
X10127030Y6219799D01*
X10111892Y6222542D01*
X10096500Y6223508D01*
X10081107Y6222542D01*
X10065969Y6219799D01*
X10051288Y6215227D01*
X10037267Y6208877D01*
X10024059Y6200902D01*
X10011968Y6191402D01*
X10001097Y6180531D01*
X9991598Y6168440D01*
X9983622Y6155232D01*
X9978745Y6144463D01*
X9976510Y6141313D01*
X9973259Y6139180D01*
X9969500Y6138468D01*
X9965690Y6139180D01*
X9962438Y6141313D01*
X9960203Y6144463D01*
X9955377Y6155232D01*
X9947402Y6168390D01*
X9937902Y6180531D01*
X9927031Y6191402D01*
X9914890Y6200902D01*
X9901732Y6208877D01*
X9887712Y6215176D01*
X9872980Y6219748D01*
X9857841Y6222542D01*
X9842500Y6223457D01*
X9827107Y6222542D01*
X9811969Y6219748D01*
X9797288Y6215176D01*
X9783216Y6208877D01*
X9770059Y6200902D01*
X9757918Y6191402D01*
X9747046Y6180531D01*
X9737547Y6168390D01*
X9729571Y6155232D01*
X9724745Y6144463D01*
X9722510Y6141313D01*
X9719259Y6139180D01*
X9715500Y6138468D01*
X9711690Y6139180D01*
X9708438Y6141313D01*
X9706203Y6144463D01*
X9701377Y6155232D01*
X9693402Y6168390D01*
X9683902Y6180531D01*
X9673031Y6191402D01*
X9660890Y6200902D01*
X9647732Y6208877D01*
X9633712Y6215176D01*
X9618980Y6219748D01*
X9603841Y6222542D01*
X9588500Y6223457D01*
X9573107Y6222542D01*
X9557969Y6219748D01*
X9543288Y6215176D01*
X9529216Y6208877D01*
X9516059Y6200902D01*
X9503918Y6191402D01*
X9493046Y6180531D01*
X9483547Y6168390D01*
X9475571Y6155232D01*
X9470745Y6144463D01*
X9468510Y6141313D01*
X9465259Y6139180D01*
X9461500Y6138468D01*
X9457690Y6139180D01*
X9454438Y6141313D01*
X9452203Y6144463D01*
X9447377Y6155232D01*
X9439402Y6168390D01*
X9429902Y6180531D01*
X9419031Y6191402D01*
X9406890Y6200902D01*
X9393732Y6208877D01*
X9379712Y6215176D01*
X9364980Y6219748D01*
X9349841Y6222542D01*
X9334500Y6223457D01*
X9319107Y6222542D01*
X9303969Y6219748D01*
X9289288Y6215176D01*
X9275216Y6208877D01*
X9262059Y6200902D01*
X9249918Y6191402D01*
X9239046Y6180531D01*
X9229547Y6168390D01*
X9221571Y6155232D01*
X9216745Y6144463D01*
X9214510Y6141313D01*
X9211310Y6139230D01*
X9207500Y6138519D01*
X9203690Y6139230D01*
X9200438Y6141313D01*
X9198254Y6144463D01*
X9193377Y6155232D01*
X9185402Y6168440D01*
X9175902Y6180531D01*
X9165031Y6191402D01*
X9152940Y6200902D01*
X9139732Y6208877D01*
X9125712Y6215227D01*
X9111030Y6219799D01*
X9095892Y6222542D01*
X9080500Y6223508D01*
X9065107Y6222542D01*
X9049969Y6219799D01*
X9035288Y6215227D01*
X9021267Y6208877D01*
X9008059Y6200902D01*
X8995968Y6191402D01*
X8985097Y6180531D01*
X8975598Y6168440D01*
X8967622Y6155232D01*
X8962745Y6144463D01*
X8960561Y6141313D01*
X8957310Y6139230D01*
X8953500Y6138468D01*
X8949690Y6139230D01*
X8946438Y6141313D01*
X8944254Y6144463D01*
X8939377Y6155232D01*
X8931402Y6168440D01*
X8921902Y6180531D01*
X8911031Y6191402D01*
X8898940Y6200902D01*
X8885732Y6208877D01*
X8871712Y6215227D01*
X8857030Y6219799D01*
X8841892Y6222542D01*
X8826500Y6223508D01*
X8811107Y6222542D01*
X8795969Y6219799D01*
X8781288Y6215227D01*
X8767267Y6208877D01*
X8754059Y6200902D01*
X8741968Y6191402D01*
X8731097Y6180531D01*
X8721598Y6168440D01*
X8713622Y6155232D01*
X8708745Y6144463D01*
X8706561Y6141313D01*
X8703310Y6139230D01*
X8699500Y6138468D01*
X8695690Y6139230D01*
X8692438Y6141313D01*
X8690254Y6144463D01*
X8685377Y6155232D01*
X8677402Y6168440D01*
X8667902Y6180531D01*
X8657031Y6191402D01*
X8644940Y6200902D01*
X8631732Y6208877D01*
X8617712Y6215227D01*
X8603030Y6219799D01*
X8587892Y6222542D01*
X8572500Y6223508D01*
X8557107Y6222542D01*
X8541969Y6219799D01*
X8527288Y6215227D01*
X8513267Y6208877D01*
X8500059Y6200902D01*
X8487968Y6191402D01*
X8477097Y6180531D01*
X8467598Y6168440D01*
X8459622Y6155232D01*
X8454745Y6144463D01*
X8452561Y6141313D01*
X8449310Y6139230D01*
X8445500Y6138468D01*
X8441690Y6139230D01*
X8438438Y6141313D01*
X8436254Y6144463D01*
X8431377Y6155232D01*
X8423402Y6168440D01*
X8413902Y6180531D01*
X8403031Y6191402D01*
X8390940Y6200902D01*
X8377732Y6208877D01*
X8363712Y6215227D01*
X8349030Y6219799D01*
X8333892Y6222542D01*
X8318500Y6223508D01*
X8303107Y6222542D01*
X8287969Y6219799D01*
X8273288Y6215227D01*
X8259267Y6208877D01*
X8246059Y6200902D01*
X8233968Y6191402D01*
X8223097Y6180531D01*
X8213598Y6168440D01*
X8205622Y6155232D01*
X8200745Y6144463D01*
X8198561Y6141313D01*
X8195309Y6139230D01*
X8191500Y6138468D01*
X8187690Y6139230D01*
X8184438Y6141313D01*
X8182254Y6144463D01*
X8177377Y6155232D01*
X8169402Y6168440D01*
X8159902Y6180531D01*
X8149031Y6191402D01*
X8136940Y6200902D01*
X8123732Y6208877D01*
X8109712Y6215227D01*
X8095030Y6219799D01*
X8079892Y6222542D01*
X8064500Y6223508D01*
X8049107Y6222542D01*
X8033969Y6219799D01*
X8019288Y6215227D01*
X8005267Y6208877D01*
X7992059Y6200902D01*
X7979968Y6191402D01*
X7969097Y6180531D01*
X7959598Y6168440D01*
X7951622Y6155232D01*
X7946745Y6144463D01*
X7944561Y6141313D01*
X7941309Y6139230D01*
X7937500Y6138468D01*
X7933690Y6139230D01*
X7930438Y6141313D01*
X7928254Y6144463D01*
X7923377Y6155232D01*
X7915402Y6168440D01*
X7905902Y6180531D01*
X7895031Y6191402D01*
X7882940Y6200902D01*
X7869732Y6208877D01*
X7855712Y6215227D01*
X7841030Y6219799D01*
X7825892Y6222542D01*
X7810500Y6223508D01*
X7795107Y6222542D01*
X7779969Y6219799D01*
X7765288Y6215227D01*
X7751267Y6208877D01*
X7738059Y6200902D01*
X7725968Y6191402D01*
X7715097Y6180531D01*
X7705598Y6168440D01*
X7697622Y6155232D01*
X7691272Y6141212D01*
X7686700Y6126530D01*
X7683957Y6111392D01*
X7682992Y6096000D01*
X7683957Y6080607D01*
X7686700Y6065469D01*
X7691272Y6050788D01*
X7697622Y6036767D01*
X7705598Y6023559D01*
X7715097Y6011468D01*
X7725968Y6000597D01*
X7738059Y5991098D01*
X7751267Y5983122D01*
X7765288Y5976772D01*
X7779969Y5972200D01*
X7795107Y5969457D01*
G37*
G36*
X6392976Y6069482D02*
G01*
X6408318Y6070396D01*
X6423456Y6073190D01*
X6438138Y6077762D01*
X6452209Y6084062D01*
X6465366Y6092037D01*
X6477508Y6101537D01*
X6488379Y6112408D01*
X6497878Y6124549D01*
X6505854Y6137706D01*
X6512153Y6151778D01*
X6516725Y6166459D01*
X6519519Y6181598D01*
X6520434Y6196939D01*
X6519519Y6212332D01*
X6516725Y6227470D01*
X6512153Y6242151D01*
X6505854Y6256223D01*
X6497878Y6269380D01*
X6488379Y6281521D01*
X6477508Y6292392D01*
X6465366Y6301892D01*
X6452209Y6309868D01*
X6441440Y6314694D01*
X6438290Y6316929D01*
X6436156Y6320180D01*
X6435445Y6323939D01*
X6436156Y6327749D01*
X6438290Y6331000D01*
X6441440Y6333236D01*
X6452209Y6338062D01*
X6465366Y6346037D01*
X6477508Y6355537D01*
X6488379Y6366408D01*
X6497878Y6378549D01*
X6505854Y6391706D01*
X6512153Y6405778D01*
X6516725Y6420459D01*
X6519519Y6435598D01*
X6520434Y6450939D01*
X6519519Y6466332D01*
X6516725Y6481470D01*
X6512153Y6496151D01*
X6505854Y6510223D01*
X6497878Y6523380D01*
X6488379Y6535521D01*
X6477508Y6546392D01*
X6465366Y6555892D01*
X6452209Y6563868D01*
X6441440Y6568694D01*
X6438290Y6570929D01*
X6436156Y6574180D01*
X6435445Y6577939D01*
X6436156Y6581749D01*
X6438290Y6585000D01*
X6441440Y6587236D01*
X6452209Y6592062D01*
X6465366Y6600037D01*
X6477508Y6609537D01*
X6488379Y6620408D01*
X6497878Y6632549D01*
X6505854Y6645706D01*
X6512153Y6659778D01*
X6516725Y6674459D01*
X6519519Y6689598D01*
X6520434Y6704939D01*
X6519519Y6720331D01*
X6516725Y6735470D01*
X6512153Y6750151D01*
X6505854Y6764223D01*
X6497878Y6777380D01*
X6488379Y6789521D01*
X6477508Y6800392D01*
X6465366Y6809892D01*
X6460896Y6812584D01*
X6457696Y6815581D01*
X6456121Y6819646D01*
X6456375Y6824014D01*
X6458407Y6827875D01*
X6461861Y6830517D01*
X6466128Y6831431D01*
X6481368Y6831431D01*
X6489395Y6832244D01*
X6496608Y6834428D01*
X6503263Y6837984D01*
X6509105Y6842810D01*
X6513931Y6848652D01*
X6517487Y6855307D01*
X6519672Y6862521D01*
X6520484Y6870547D01*
X6520484Y6908139D01*
X6443776Y6908139D01*
X6443776Y6836257D01*
X6443065Y6832498D01*
X6441033Y6829298D01*
X6437985Y6827062D01*
X6434328Y6826097D01*
X6430568Y6826554D01*
X6423456Y6828739D01*
X6408318Y6831533D01*
X6392976Y6832447D01*
X6377584Y6831533D01*
X6362446Y6828739D01*
X6355334Y6826554D01*
X6351574Y6826097D01*
X6347917Y6827062D01*
X6344869Y6829298D01*
X6342837Y6832498D01*
X6342176Y6836257D01*
X6342176Y6908139D01*
X6265468Y6908139D01*
X6265468Y6870547D01*
X6266230Y6862521D01*
X6268415Y6855307D01*
X6271971Y6848652D01*
X6276797Y6842810D01*
X6282639Y6837984D01*
X6289294Y6834428D01*
X6296507Y6832244D01*
X6304534Y6831431D01*
X6319774Y6831431D01*
X6324041Y6830517D01*
X6327495Y6827875D01*
X6329527Y6824014D01*
X6329781Y6819646D01*
X6328206Y6815581D01*
X6325006Y6812584D01*
X6320536Y6809892D01*
X6308394Y6800392D01*
X6297523Y6789521D01*
X6288024Y6777380D01*
X6280048Y6764223D01*
X6273749Y6750151D01*
X6269177Y6735470D01*
X6266383Y6720331D01*
X6265468Y6704939D01*
X6266383Y6689598D01*
X6269177Y6674459D01*
X6273749Y6659778D01*
X6280048Y6645706D01*
X6288024Y6632549D01*
X6297523Y6620408D01*
X6308394Y6609537D01*
X6320536Y6600037D01*
X6333693Y6592062D01*
X6344462Y6587236D01*
X6347612Y6585000D01*
X6349746Y6581749D01*
X6350457Y6577939D01*
X6349746Y6574180D01*
X6347612Y6570929D01*
X6344462Y6568694D01*
X6333693Y6563868D01*
X6320536Y6555892D01*
X6308394Y6546392D01*
X6297523Y6535521D01*
X6288024Y6523380D01*
X6280048Y6510223D01*
X6273749Y6496151D01*
X6269177Y6481470D01*
X6266383Y6466332D01*
X6265468Y6450939D01*
X6266383Y6435598D01*
X6269177Y6420459D01*
X6273749Y6405778D01*
X6280048Y6391706D01*
X6288024Y6378549D01*
X6297523Y6366408D01*
X6308394Y6355537D01*
X6320536Y6346037D01*
X6333693Y6338062D01*
X6344462Y6333236D01*
X6347612Y6331000D01*
X6349746Y6327749D01*
X6350457Y6323939D01*
X6349746Y6320180D01*
X6347612Y6316929D01*
X6344462Y6314694D01*
X6333693Y6309868D01*
X6320536Y6301892D01*
X6308394Y6292392D01*
X6297523Y6281521D01*
X6288024Y6269380D01*
X6280048Y6256223D01*
X6273749Y6242151D01*
X6269177Y6227470D01*
X6266383Y6212332D01*
X6265468Y6196939D01*
X6266383Y6181598D01*
X6269177Y6166459D01*
X6273749Y6151778D01*
X6280048Y6137706D01*
X6288024Y6124549D01*
X6297523Y6112408D01*
X6308394Y6101537D01*
X6320536Y6092037D01*
X6333693Y6084062D01*
X6347764Y6077762D01*
X6362446Y6073190D01*
X6377584Y6070396D01*
G37*
G36*
X7154925Y6069482D02*
G01*
X7170318Y6070396D01*
X7185456Y6073190D01*
X7200138Y6077762D01*
X7214209Y6084062D01*
X7227366Y6092037D01*
X7239508Y6101537D01*
X7250379Y6112408D01*
X7259878Y6124549D01*
X7267854Y6137706D01*
X7274153Y6151778D01*
X7278725Y6166459D01*
X7281519Y6181598D01*
X7282434Y6196939D01*
X7281519Y6212332D01*
X7278725Y6227470D01*
X7274153Y6242151D01*
X7267854Y6256223D01*
X7259878Y6269380D01*
X7250379Y6281521D01*
X7239508Y6292392D01*
X7227366Y6301892D01*
X7214209Y6309868D01*
X7203440Y6314694D01*
X7200290Y6316929D01*
X7198156Y6320180D01*
X7197445Y6323939D01*
X7198156Y6327749D01*
X7200290Y6331000D01*
X7203440Y6333236D01*
X7214209Y6338062D01*
X7227366Y6346037D01*
X7239508Y6355537D01*
X7250379Y6366408D01*
X7259878Y6378549D01*
X7267854Y6391706D01*
X7274153Y6405778D01*
X7278725Y6420459D01*
X7281519Y6435598D01*
X7282434Y6450939D01*
X7281519Y6466332D01*
X7278725Y6481470D01*
X7274153Y6496151D01*
X7267854Y6510223D01*
X7259878Y6523380D01*
X7250379Y6535521D01*
X7239508Y6546392D01*
X7227366Y6555892D01*
X7214209Y6563868D01*
X7203440Y6568694D01*
X7200290Y6570929D01*
X7198156Y6574180D01*
X7197445Y6577939D01*
X7198156Y6581749D01*
X7200290Y6585000D01*
X7203440Y6587236D01*
X7214209Y6592062D01*
X7227366Y6600037D01*
X7239508Y6609537D01*
X7250379Y6620408D01*
X7259878Y6632549D01*
X7267854Y6645706D01*
X7274153Y6659778D01*
X7278725Y6674459D01*
X7281519Y6689598D01*
X7282434Y6704939D01*
X7281519Y6720331D01*
X7278725Y6735470D01*
X7274153Y6750151D01*
X7267854Y6764223D01*
X7259878Y6777380D01*
X7250379Y6789521D01*
X7239508Y6800392D01*
X7227366Y6809892D01*
X7214209Y6817868D01*
X7203440Y6822694D01*
X7200290Y6824929D01*
X7198156Y6828180D01*
X7197445Y6831939D01*
X7198156Y6835749D01*
X7200290Y6839000D01*
X7203440Y6841236D01*
X7214209Y6846062D01*
X7227366Y6854037D01*
X7239508Y6863537D01*
X7250379Y6874408D01*
X7259878Y6886549D01*
X7267854Y6899706D01*
X7274153Y6913778D01*
X7278725Y6928459D01*
X7281519Y6943598D01*
X7282434Y6958939D01*
X7281519Y6974331D01*
X7278725Y6989470D01*
X7274153Y7004151D01*
X7267854Y7018223D01*
X7259878Y7031380D01*
X7250379Y7043521D01*
X7239508Y7054392D01*
X7227366Y7063892D01*
X7214209Y7071868D01*
X7200138Y7078167D01*
X7185456Y7082739D01*
X7170318Y7085533D01*
X7154925Y7086447D01*
X7139584Y7085533D01*
X7124446Y7082739D01*
X7109764Y7078167D01*
X7095693Y7071868D01*
X7082536Y7063892D01*
X7070394Y7054392D01*
X7059523Y7043521D01*
X7050024Y7031380D01*
X7042048Y7018223D01*
X7035749Y7004151D01*
X7031177Y6989470D01*
X7028383Y6974331D01*
X7027468Y6958939D01*
X7028383Y6943598D01*
X7031177Y6928459D01*
X7035749Y6913778D01*
X7042048Y6899706D01*
X7050024Y6886549D01*
X7059523Y6874408D01*
X7070394Y6863537D01*
X7082536Y6854037D01*
X7095693Y6846062D01*
X7106462Y6841236D01*
X7109612Y6839000D01*
X7111746Y6835749D01*
X7112457Y6831939D01*
X7111746Y6828180D01*
X7109612Y6824929D01*
X7106462Y6822694D01*
X7095693Y6817868D01*
X7082536Y6809892D01*
X7070394Y6800392D01*
X7059523Y6789521D01*
X7050024Y6777380D01*
X7042048Y6764223D01*
X7035749Y6750151D01*
X7031177Y6735470D01*
X7028383Y6720331D01*
X7027468Y6704939D01*
X7028383Y6689598D01*
X7031177Y6674459D01*
X7035749Y6659778D01*
X7042048Y6645706D01*
X7050024Y6632549D01*
X7059523Y6620408D01*
X7070394Y6609537D01*
X7082536Y6600037D01*
X7095693Y6592062D01*
X7106462Y6587236D01*
X7109612Y6585000D01*
X7111746Y6581749D01*
X7112457Y6577939D01*
X7111746Y6574180D01*
X7109612Y6570929D01*
X7106462Y6568694D01*
X7095693Y6563868D01*
X7082536Y6555892D01*
X7070394Y6546392D01*
X7059523Y6535521D01*
X7050024Y6523380D01*
X7042048Y6510223D01*
X7035749Y6496151D01*
X7031177Y6481470D01*
X7028383Y6466332D01*
X7027468Y6450939D01*
X7028383Y6435598D01*
X7031177Y6420459D01*
X7035749Y6405778D01*
X7042048Y6391706D01*
X7050024Y6378549D01*
X7059523Y6366408D01*
X7070394Y6355537D01*
X7082536Y6346037D01*
X7095693Y6338062D01*
X7106462Y6333236D01*
X7109612Y6331000D01*
X7111746Y6327749D01*
X7112457Y6323939D01*
X7111746Y6320180D01*
X7109612Y6316929D01*
X7106462Y6314694D01*
X7095693Y6309868D01*
X7082536Y6301892D01*
X7070394Y6292392D01*
X7059523Y6281521D01*
X7050024Y6269380D01*
X7042048Y6256223D01*
X7035749Y6242151D01*
X7031177Y6227470D01*
X7028383Y6212332D01*
X7027468Y6196939D01*
X7028383Y6181598D01*
X7031177Y6166459D01*
X7035749Y6151778D01*
X7042048Y6137706D01*
X7050024Y6124549D01*
X7059523Y6112408D01*
X7070394Y6101537D01*
X7082536Y6092037D01*
X7095693Y6084062D01*
X7109764Y6077762D01*
X7124446Y6073190D01*
X7139584Y6070396D01*
G37*
G36*
X11549278Y6105499D02*
G01*
X11586870Y6105499D01*
X11594896Y6106261D01*
X11602110Y6108446D01*
X11608816Y6112002D01*
X11614658Y6116828D01*
X11619433Y6122670D01*
X11622989Y6129324D01*
X11625173Y6136538D01*
X11625986Y6144564D01*
X11625986Y6182207D01*
X11549278Y6182207D01*
G37*
G36*
X11410086Y6105499D02*
G01*
X11447678Y6105499D01*
X11447678Y6182207D01*
X11370970Y6182207D01*
X11370970Y6144564D01*
X11371783Y6136538D01*
X11373967Y6129324D01*
X11377523Y6122670D01*
X11382298Y6116828D01*
X11388140Y6112002D01*
X11394795Y6108446D01*
X11402060Y6106261D01*
G37*
G36*
X12260478Y6105499D02*
G01*
X12275820Y6106414D01*
X12290958Y6109208D01*
X12305690Y6113780D01*
X12319711Y6120079D01*
X12332868Y6128054D01*
X12345009Y6137554D01*
X12355880Y6148425D01*
X12365380Y6160566D01*
X12373356Y6173724D01*
X12379655Y6187795D01*
X12384227Y6202476D01*
X12387021Y6217615D01*
X12387935Y6233007D01*
X12387021Y6248349D01*
X12384227Y6263487D01*
X12379655Y6278219D01*
X12373356Y6292240D01*
X12365380Y6305397D01*
X12355880Y6317538D01*
X12345009Y6328410D01*
X12332868Y6337909D01*
X12319711Y6345885D01*
X12308941Y6350711D01*
X12305792Y6352946D01*
X12303709Y6356197D01*
X12302947Y6360007D01*
X12303709Y6363766D01*
X12305792Y6367018D01*
X12308941Y6369253D01*
X12319711Y6374079D01*
X12332868Y6382054D01*
X12345009Y6391554D01*
X12355880Y6402425D01*
X12365380Y6414566D01*
X12373356Y6427724D01*
X12379655Y6441795D01*
X12384227Y6456476D01*
X12387021Y6471615D01*
X12387935Y6487007D01*
X12387021Y6502349D01*
X12384227Y6517487D01*
X12379655Y6532219D01*
X12373356Y6546240D01*
X12365380Y6559397D01*
X12355880Y6571538D01*
X12345009Y6582409D01*
X12332868Y6591909D01*
X12319711Y6599885D01*
X12308941Y6604711D01*
X12305792Y6606946D01*
X12303709Y6610197D01*
X12302947Y6614007D01*
X12303709Y6617766D01*
X12305792Y6621018D01*
X12308941Y6623253D01*
X12319711Y6628079D01*
X12332868Y6636054D01*
X12345009Y6645554D01*
X12355880Y6656425D01*
X12365380Y6668566D01*
X12373356Y6681724D01*
X12379655Y6695795D01*
X12384227Y6710476D01*
X12387021Y6725615D01*
X12387935Y6741007D01*
X12387021Y6756349D01*
X12384227Y6771487D01*
X12379655Y6786219D01*
X12373356Y6800240D01*
X12365380Y6813397D01*
X12355880Y6825538D01*
X12345009Y6836409D01*
X12332868Y6845909D01*
X12319711Y6853885D01*
X12308941Y6858711D01*
X12305792Y6860946D01*
X12303709Y6864197D01*
X12302947Y6868007D01*
X12303709Y6871766D01*
X12305792Y6875018D01*
X12308941Y6877253D01*
X12319711Y6882079D01*
X12332868Y6890054D01*
X12345009Y6899554D01*
X12355880Y6910425D01*
X12365380Y6922566D01*
X12373356Y6935724D01*
X12379655Y6949795D01*
X12384227Y6964476D01*
X12387021Y6979615D01*
X12387935Y6995007D01*
X12387021Y7010349D01*
X12384227Y7025487D01*
X12379655Y7040219D01*
X12373356Y7054240D01*
X12365380Y7067397D01*
X12355880Y7079538D01*
X12345009Y7090409D01*
X12332868Y7099909D01*
X12319711Y7107885D01*
X12305690Y7114184D01*
X12290958Y7118756D01*
X12275820Y7121550D01*
X12260478Y7122464D01*
X12245086Y7121550D01*
X12229947Y7118756D01*
X12215266Y7114184D01*
X12201194Y7107885D01*
X12188037Y7099909D01*
X12175947Y7090409D01*
X12165025Y7079538D01*
X12155525Y7067397D01*
X12147600Y7054240D01*
X12141250Y7040219D01*
X12136678Y7025487D01*
X12133884Y7010349D01*
X12132970Y6995007D01*
X12133884Y6979615D01*
X12136678Y6964476D01*
X12141250Y6949795D01*
X12147600Y6935724D01*
X12155525Y6922566D01*
X12165025Y6910425D01*
X12175947Y6899554D01*
X12188037Y6890054D01*
X12201194Y6882079D01*
X12212015Y6877253D01*
X12215164Y6875018D01*
X12217247Y6871766D01*
X12217958Y6868007D01*
X12217247Y6864197D01*
X12215164Y6860946D01*
X12212015Y6858711D01*
X12201194Y6853885D01*
X12188037Y6845909D01*
X12175947Y6836409D01*
X12165025Y6825538D01*
X12155525Y6813397D01*
X12147600Y6800240D01*
X12141250Y6786219D01*
X12136678Y6771487D01*
X12133884Y6756349D01*
X12132970Y6741007D01*
X12133884Y6725615D01*
X12136678Y6710476D01*
X12141250Y6695795D01*
X12147600Y6681724D01*
X12155525Y6668566D01*
X12165025Y6656425D01*
X12175947Y6645554D01*
X12188037Y6636054D01*
X12201194Y6628079D01*
X12212015Y6623253D01*
X12215164Y6621018D01*
X12217247Y6617766D01*
X12217958Y6614007D01*
X12217247Y6610197D01*
X12215164Y6606946D01*
X12212015Y6604711D01*
X12201194Y6599885D01*
X12188037Y6591909D01*
X12175947Y6582409D01*
X12165025Y6571538D01*
X12155525Y6559397D01*
X12147600Y6546240D01*
X12141250Y6532219D01*
X12136678Y6517487D01*
X12133884Y6502349D01*
X12132970Y6487007D01*
X12133884Y6471615D01*
X12136678Y6456476D01*
X12141250Y6441795D01*
X12147600Y6427724D01*
X12155525Y6414566D01*
X12165025Y6402425D01*
X12175947Y6391554D01*
X12188037Y6382054D01*
X12201194Y6374079D01*
X12212015Y6369253D01*
X12215164Y6367018D01*
X12217247Y6363766D01*
X12217958Y6360007D01*
X12217247Y6356197D01*
X12215164Y6352946D01*
X12212015Y6350711D01*
X12201194Y6345885D01*
X12188037Y6337909D01*
X12175947Y6328410D01*
X12165025Y6317538D01*
X12155525Y6305397D01*
X12147600Y6292240D01*
X12141250Y6278219D01*
X12136678Y6263487D01*
X12133884Y6248349D01*
X12132970Y6233007D01*
X12133884Y6217615D01*
X12136678Y6202476D01*
X12141250Y6187795D01*
X12147600Y6173724D01*
X12155525Y6160566D01*
X12165025Y6148425D01*
X12175947Y6137554D01*
X12188037Y6128054D01*
X12201194Y6120079D01*
X12215266Y6113780D01*
X12229947Y6109208D01*
X12245086Y6106414D01*
G37*
G36*
X5653328Y6279896D02*
G01*
X5698998Y6279896D01*
X5707024Y6280658D01*
X5714238Y6282842D01*
X5720892Y6286449D01*
X5726734Y6291224D01*
X5731560Y6297066D01*
X5735116Y6303721D01*
X5737301Y6310985D01*
X5738114Y6318961D01*
X5738114Y6364630D01*
X5653328Y6364630D01*
G37*
G36*
X11370970Y6283807D02*
G01*
X11447678Y6283807D01*
X11447678Y6355740D01*
X11448389Y6359448D01*
X11450370Y6362649D01*
X11453418Y6364884D01*
X11457076Y6365849D01*
X11460835Y6365392D01*
X11467947Y6363208D01*
X11483086Y6360414D01*
X11498478Y6359499D01*
X11513820Y6360414D01*
X11528958Y6363208D01*
X11536070Y6365443D01*
X11539829Y6365849D01*
X11543487Y6364884D01*
X11546535Y6362649D01*
X11548567Y6359448D01*
X11549278Y6355740D01*
X11549278Y6283807D01*
X11625986Y6283807D01*
X11625986Y6321399D01*
X11625173Y6329426D01*
X11622989Y6336639D01*
X11619433Y6343294D01*
X11614658Y6349136D01*
X11608816Y6353962D01*
X11602110Y6357518D01*
X11594896Y6359702D01*
X11586870Y6360515D01*
X11571630Y6360515D01*
X11567363Y6361430D01*
X11563908Y6364071D01*
X11561876Y6367932D01*
X11561622Y6372301D01*
X11563248Y6376314D01*
X11566398Y6379362D01*
X11570868Y6382054D01*
X11583009Y6391554D01*
X11593880Y6402425D01*
X11603380Y6414566D01*
X11611356Y6427724D01*
X11617655Y6441795D01*
X11622227Y6456476D01*
X11625021Y6471615D01*
X11625935Y6487007D01*
X11625021Y6502349D01*
X11622227Y6517487D01*
X11617655Y6532219D01*
X11611356Y6546240D01*
X11603380Y6559397D01*
X11593880Y6571538D01*
X11583009Y6582409D01*
X11570868Y6591909D01*
X11557711Y6599885D01*
X11546941Y6604711D01*
X11543792Y6606946D01*
X11541709Y6610197D01*
X11540947Y6614007D01*
X11541709Y6617766D01*
X11543792Y6621018D01*
X11546941Y6623253D01*
X11557711Y6628079D01*
X11570868Y6636054D01*
X11583009Y6645554D01*
X11593880Y6656425D01*
X11603380Y6668566D01*
X11611356Y6681724D01*
X11617655Y6695795D01*
X11622227Y6710476D01*
X11625021Y6725615D01*
X11625935Y6741007D01*
X11625021Y6756349D01*
X11622227Y6771487D01*
X11617655Y6786219D01*
X11611356Y6800240D01*
X11603380Y6813397D01*
X11593880Y6825538D01*
X11583009Y6836409D01*
X11570868Y6845909D01*
X11557711Y6853885D01*
X11546941Y6858711D01*
X11543792Y6860946D01*
X11541709Y6864197D01*
X11540947Y6868007D01*
X11541709Y6871766D01*
X11543792Y6875018D01*
X11546941Y6877253D01*
X11557711Y6882079D01*
X11570868Y6890054D01*
X11583009Y6899554D01*
X11593880Y6910425D01*
X11603380Y6922566D01*
X11611356Y6935724D01*
X11617655Y6949795D01*
X11622227Y6964476D01*
X11625021Y6979615D01*
X11625935Y6995007D01*
X11625021Y7010349D01*
X11622227Y7025487D01*
X11617655Y7040219D01*
X11611356Y7054240D01*
X11603380Y7067397D01*
X11593880Y7079538D01*
X11583009Y7090409D01*
X11570868Y7099909D01*
X11557711Y7107885D01*
X11543690Y7114184D01*
X11528958Y7118756D01*
X11513820Y7121550D01*
X11498478Y7122464D01*
X11483086Y7121550D01*
X11467947Y7118756D01*
X11453266Y7114184D01*
X11439194Y7107885D01*
X11426037Y7099909D01*
X11413947Y7090409D01*
X11403025Y7079538D01*
X11393525Y7067397D01*
X11385600Y7054240D01*
X11379250Y7040219D01*
X11374678Y7025487D01*
X11371884Y7010349D01*
X11370970Y6995007D01*
X11371884Y6979615D01*
X11374678Y6964476D01*
X11379250Y6949795D01*
X11385600Y6935724D01*
X11393525Y6922566D01*
X11403025Y6910425D01*
X11413947Y6899554D01*
X11426037Y6890054D01*
X11439194Y6882079D01*
X11450015Y6877253D01*
X11453164Y6875018D01*
X11455247Y6871766D01*
X11455958Y6868007D01*
X11455247Y6864197D01*
X11453164Y6860946D01*
X11450015Y6858711D01*
X11439194Y6853885D01*
X11426037Y6845909D01*
X11413947Y6836409D01*
X11403025Y6825538D01*
X11393525Y6813397D01*
X11385600Y6800240D01*
X11379250Y6786219D01*
X11374678Y6771487D01*
X11371884Y6756349D01*
X11370970Y6741007D01*
X11371884Y6725615D01*
X11374678Y6710476D01*
X11379250Y6695795D01*
X11385600Y6681724D01*
X11393525Y6668566D01*
X11403025Y6656425D01*
X11413947Y6645554D01*
X11426037Y6636054D01*
X11439194Y6628079D01*
X11450015Y6623253D01*
X11453164Y6621018D01*
X11455247Y6617766D01*
X11455958Y6614007D01*
X11455247Y6610197D01*
X11453164Y6606946D01*
X11450015Y6604711D01*
X11439194Y6599885D01*
X11426037Y6591909D01*
X11413947Y6582409D01*
X11403025Y6571538D01*
X11393525Y6559397D01*
X11385600Y6546240D01*
X11379250Y6532219D01*
X11374678Y6517487D01*
X11371884Y6502349D01*
X11370970Y6487007D01*
X11371884Y6471615D01*
X11374678Y6456476D01*
X11379250Y6441795D01*
X11385600Y6427724D01*
X11393525Y6414566D01*
X11403025Y6402425D01*
X11413947Y6391554D01*
X11426037Y6382054D01*
X11430558Y6379362D01*
X11433708Y6376314D01*
X11435334Y6372301D01*
X11435080Y6367932D01*
X11433048Y6364071D01*
X11429542Y6361430D01*
X11425275Y6360515D01*
X11410086Y6360515D01*
X11402060Y6359702D01*
X11394795Y6357518D01*
X11388140Y6353962D01*
X11382298Y6349136D01*
X11377523Y6343294D01*
X11373967Y6336639D01*
X11371783Y6329426D01*
X11370970Y6321399D01*
G37*
G36*
X11210290Y6349492D02*
G01*
X11247882Y6349492D01*
X11255908Y6350304D01*
X11263122Y6352489D01*
X11269776Y6356045D01*
X11275618Y6360820D01*
X11280444Y6366662D01*
X11284000Y6373368D01*
X11286185Y6380581D01*
X11286998Y6388608D01*
X11286998Y6426200D01*
X11210290Y6426200D01*
G37*
G36*
X11071098Y6349492D02*
G01*
X11108690Y6349492D01*
X11108690Y6426200D01*
X11031982Y6426200D01*
X11031982Y6388608D01*
X11032744Y6380581D01*
X11034928Y6373368D01*
X11038535Y6366662D01*
X11043310Y6360820D01*
X11049152Y6356045D01*
X11055807Y6352489D01*
X11063071Y6350304D01*
G37*
G36*
X7476439Y6349542D02*
G01*
X7491831Y6350457D01*
X7506970Y6353251D01*
X7521651Y6357823D01*
X7535722Y6364122D01*
X7548880Y6372098D01*
X7561021Y6381597D01*
X7571892Y6392468D01*
X7581392Y6404610D01*
X7589367Y6417767D01*
X7595666Y6431788D01*
X7600238Y6446520D01*
X7603032Y6461658D01*
X7603947Y6477000D01*
X7603032Y6492392D01*
X7600238Y6507530D01*
X7595666Y6522212D01*
X7589367Y6536283D01*
X7581392Y6549440D01*
X7571892Y6561531D01*
X7561021Y6572453D01*
X7548880Y6581952D01*
X7544358Y6584645D01*
X7541209Y6587693D01*
X7539583Y6591706D01*
X7539837Y6596075D01*
X7541869Y6599936D01*
X7545374Y6602577D01*
X7549642Y6603492D01*
X7564881Y6603492D01*
X7572908Y6604304D01*
X7580122Y6606489D01*
X7586776Y6610045D01*
X7592618Y6614871D01*
X7597444Y6620713D01*
X7601000Y6627368D01*
X7603185Y6634581D01*
X7603998Y6642608D01*
X7603998Y6680200D01*
X7527290Y6680200D01*
X7527290Y6608267D01*
X7526578Y6604558D01*
X7524546Y6601358D01*
X7521498Y6599123D01*
X7517841Y6598158D01*
X7514081Y6598564D01*
X7506970Y6600799D01*
X7491831Y6603593D01*
X7476439Y6604508D01*
X7461097Y6603593D01*
X7445959Y6600799D01*
X7438847Y6598564D01*
X7435088Y6598158D01*
X7431430Y6599123D01*
X7428382Y6601358D01*
X7426401Y6604558D01*
X7425690Y6608267D01*
X7425690Y6680200D01*
X7348981Y6680200D01*
X7348981Y6642608D01*
X7349744Y6634581D01*
X7351928Y6627368D01*
X7355535Y6620713D01*
X7360310Y6614871D01*
X7366152Y6610045D01*
X7372807Y6606489D01*
X7380071Y6604304D01*
X7388047Y6603492D01*
X7403287Y6603492D01*
X7407554Y6602577D01*
X7411059Y6599936D01*
X7413091Y6596075D01*
X7413345Y6591706D01*
X7411720Y6587693D01*
X7408570Y6584645D01*
X7404049Y6581952D01*
X7391908Y6572453D01*
X7381036Y6561531D01*
X7371537Y6549440D01*
X7363561Y6536283D01*
X7357262Y6522212D01*
X7352690Y6507530D01*
X7349896Y6492392D01*
X7348981Y6477000D01*
X7349896Y6461658D01*
X7352690Y6446520D01*
X7357262Y6431788D01*
X7363561Y6417767D01*
X7371537Y6404610D01*
X7381036Y6392468D01*
X7391908Y6381597D01*
X7404049Y6372098D01*
X7417206Y6364122D01*
X7431278Y6357823D01*
X7445959Y6353251D01*
X7461097Y6350457D01*
G37*
G36*
X5653328Y6482334D02*
G01*
X5738114Y6482334D01*
X5738114Y6528003D01*
X5737301Y6536029D01*
X5735116Y6543243D01*
X5731560Y6549898D01*
X5726734Y6555740D01*
X5720892Y6560566D01*
X5714238Y6564122D01*
X5707024Y6566306D01*
X5698998Y6567119D01*
X5653328Y6567119D01*
G37*
G36*
X11031982Y6527800D02*
G01*
X11108690Y6527800D01*
X11108690Y6599732D01*
X11109401Y6603441D01*
X11111382Y6606641D01*
X11114430Y6608876D01*
X11118088Y6609842D01*
X11121847Y6609435D01*
X11128959Y6607200D01*
X11144097Y6604406D01*
X11159490Y6603492D01*
X11174831Y6604406D01*
X11189970Y6607200D01*
X11197082Y6609435D01*
X11200841Y6609842D01*
X11204498Y6608876D01*
X11207546Y6606641D01*
X11209578Y6603441D01*
X11210290Y6599732D01*
X11210290Y6527800D01*
X11286998Y6527800D01*
X11286998Y6565392D01*
X11286185Y6573418D01*
X11284000Y6580631D01*
X11280444Y6587337D01*
X11275618Y6593179D01*
X11269776Y6597954D01*
X11263122Y6601510D01*
X11255908Y6603695D01*
X11247882Y6604508D01*
X11232692Y6604508D01*
X11228425Y6605422D01*
X11224920Y6608064D01*
X11222888Y6611924D01*
X11222634Y6616293D01*
X11224260Y6620357D01*
X11227409Y6623354D01*
X11231880Y6626047D01*
X11244021Y6635546D01*
X11254892Y6646468D01*
X11264392Y6658559D01*
X11272367Y6671716D01*
X11278666Y6685788D01*
X11283238Y6700469D01*
X11286032Y6715607D01*
X11286947Y6731000D01*
X11286032Y6746341D01*
X11283238Y6761480D01*
X11278666Y6776212D01*
X11272367Y6790232D01*
X11264392Y6803390D01*
X11254892Y6815531D01*
X11244021Y6826402D01*
X11231880Y6835902D01*
X11218722Y6843877D01*
X11204651Y6850176D01*
X11189970Y6854748D01*
X11174831Y6857542D01*
X11159490Y6858457D01*
X11144097Y6857542D01*
X11128959Y6854748D01*
X11114278Y6850176D01*
X11100206Y6843877D01*
X11087049Y6835902D01*
X11074908Y6826402D01*
X11064036Y6815531D01*
X11054537Y6803390D01*
X11046561Y6790232D01*
X11040262Y6776212D01*
X11035690Y6761480D01*
X11032896Y6746341D01*
X11031982Y6731000D01*
X11032896Y6715607D01*
X11035690Y6700469D01*
X11040262Y6685788D01*
X11046561Y6671716D01*
X11054537Y6658559D01*
X11064036Y6646468D01*
X11074908Y6635546D01*
X11087049Y6626047D01*
X11091519Y6623354D01*
X11094669Y6620357D01*
X11096294Y6616293D01*
X11096040Y6611924D01*
X11094008Y6608064D01*
X11090503Y6605422D01*
X11086236Y6604508D01*
X11071098Y6604508D01*
X11063071Y6603695D01*
X11055807Y6601510D01*
X11049152Y6597954D01*
X11043310Y6593179D01*
X11038535Y6587337D01*
X11034928Y6580631D01*
X11032744Y6573418D01*
X11031982Y6565392D01*
G37*
G36*
X7527290Y6781800D02*
G01*
X7603998Y6781800D01*
X7603998Y6819442D01*
X7603185Y6827469D01*
X7601000Y6834682D01*
X7597444Y6841337D01*
X7592618Y6847179D01*
X7586776Y6852005D01*
X7580122Y6855561D01*
X7572908Y6857746D01*
X7564881Y6858508D01*
X7527290Y6858508D01*
G37*
G36*
X7348981Y6781800D02*
G01*
X7425690Y6781800D01*
X7425690Y6858508D01*
X7388047Y6858508D01*
X7380071Y6857746D01*
X7372807Y6855561D01*
X7366152Y6852005D01*
X7360310Y6847179D01*
X7355535Y6841337D01*
X7351928Y6834682D01*
X7349744Y6827469D01*
X7348981Y6819442D01*
G37*
G36*
X6443776Y7009739D02*
G01*
X6520484Y7009739D01*
X6520484Y7047382D01*
X6519672Y7055408D01*
X6517487Y7062622D01*
X6513931Y7069277D01*
X6509105Y7075119D01*
X6503263Y7079945D01*
X6496608Y7083501D01*
X6489395Y7085685D01*
X6481368Y7086447D01*
X6443776Y7086447D01*
G37*
G36*
X6265468Y7009739D02*
G01*
X6342176Y7009739D01*
X6342176Y7086447D01*
X6304534Y7086447D01*
X6296507Y7085685D01*
X6289294Y7083501D01*
X6282639Y7079945D01*
X6276797Y7075119D01*
X6271971Y7069277D01*
X6268415Y7062622D01*
X6266230Y7055408D01*
X6265468Y7047382D01*
G37*
G36*
X12257938Y7215022D02*
G01*
X12273330Y7215936D01*
X12288469Y7218730D01*
X12303150Y7223302D01*
X12317222Y7229602D01*
X12330379Y7237577D01*
X12342520Y7247077D01*
X12353391Y7257948D01*
X12362891Y7270089D01*
X12370866Y7283246D01*
X12377166Y7297267D01*
X12381738Y7311999D01*
X12384532Y7327138D01*
X12385446Y7342479D01*
X12384532Y7357872D01*
X12381738Y7373010D01*
X12377166Y7387691D01*
X12370866Y7401763D01*
X12362891Y7414920D01*
X12353391Y7427010D01*
X12342520Y7437932D01*
X12330379Y7447432D01*
X12317222Y7455357D01*
X12303150Y7461707D01*
X12288469Y7466279D01*
X12273330Y7469073D01*
X12257938Y7469987D01*
X12242596Y7469073D01*
X12227458Y7466279D01*
X12212726Y7461707D01*
X12198705Y7455357D01*
X12185548Y7447432D01*
X12173407Y7437932D01*
X12162536Y7427010D01*
X12153036Y7414920D01*
X12145060Y7401763D01*
X12138761Y7387691D01*
X12134189Y7373010D01*
X12131395Y7357872D01*
X12130481Y7342479D01*
X12131395Y7327138D01*
X12134189Y7311999D01*
X12138761Y7297267D01*
X12145060Y7283246D01*
X12153036Y7270089D01*
X12162536Y7257948D01*
X12173407Y7247077D01*
X12185548Y7237577D01*
X12198705Y7229602D01*
X12212726Y7223302D01*
X12227458Y7218730D01*
X12242596Y7215936D01*
G37*
G36*
X11909958Y7218019D02*
G01*
X11925300Y7218934D01*
X11940438Y7221728D01*
X11955170Y7226300D01*
X11969191Y7232599D01*
X11982348Y7240574D01*
X11994489Y7250074D01*
X12005360Y7260945D01*
X12014860Y7273086D01*
X12022836Y7286244D01*
X12029135Y7300264D01*
X12033758Y7314996D01*
X12036501Y7330135D01*
X12037415Y7345476D01*
X12036501Y7360869D01*
X12033758Y7376007D01*
X12029135Y7390688D01*
X12022836Y7404760D01*
X12014860Y7417917D01*
X12005360Y7430008D01*
X11994489Y7440930D01*
X11982348Y7450429D01*
X11969191Y7458354D01*
X11955170Y7464704D01*
X11940438Y7469276D01*
X11925300Y7472070D01*
X11909958Y7472984D01*
X11894566Y7472070D01*
X11879427Y7469276D01*
X11864746Y7464704D01*
X11850725Y7458354D01*
X11837517Y7450429D01*
X11825427Y7440930D01*
X11814505Y7430008D01*
X11805005Y7417917D01*
X11797080Y7404760D01*
X11790730Y7390688D01*
X11786158Y7376007D01*
X11783415Y7360869D01*
X11782450Y7345476D01*
X11783415Y7330135D01*
X11786158Y7314996D01*
X11790730Y7300264D01*
X11797080Y7286244D01*
X11805005Y7273086D01*
X11814505Y7260945D01*
X11825427Y7250074D01*
X11837517Y7240574D01*
X11850725Y7232599D01*
X11864746Y7226300D01*
X11879427Y7221728D01*
X11894566Y7218934D01*
G37*
G36*
X11594947Y7221016D02*
G01*
X11610340Y7221931D01*
X11625478Y7224725D01*
X11640159Y7229297D01*
X11654231Y7235596D01*
X11667388Y7243572D01*
X11679529Y7253071D01*
X11690400Y7263942D01*
X11699900Y7276084D01*
X11707876Y7289241D01*
X11714175Y7303262D01*
X11718747Y7317994D01*
X11721541Y7333132D01*
X11722455Y7348474D01*
X11721541Y7363866D01*
X11718747Y7379004D01*
X11714175Y7393686D01*
X11707876Y7407757D01*
X11699900Y7420914D01*
X11690400Y7433005D01*
X11679529Y7443927D01*
X11667388Y7453426D01*
X11654231Y7461351D01*
X11640159Y7467701D01*
X11625478Y7472273D01*
X11610340Y7475067D01*
X11594947Y7475981D01*
X11579606Y7475067D01*
X11564467Y7472273D01*
X11549735Y7467701D01*
X11535714Y7461351D01*
X11522557Y7453426D01*
X11510416Y7443927D01*
X11499545Y7433005D01*
X11490045Y7420914D01*
X11482070Y7407757D01*
X11475770Y7393686D01*
X11471198Y7379004D01*
X11468404Y7363866D01*
X11467490Y7348474D01*
X11468404Y7333132D01*
X11471198Y7317994D01*
X11475770Y7303262D01*
X11482070Y7289241D01*
X11490045Y7276084D01*
X11499545Y7263942D01*
X11510416Y7253071D01*
X11522557Y7243572D01*
X11535714Y7235596D01*
X11549735Y7229297D01*
X11564467Y7224725D01*
X11579606Y7221931D01*
G37*
G36*
X11245951Y7222998D02*
G01*
X11261344Y7223912D01*
X11276482Y7226706D01*
X11291163Y7231278D01*
X11305235Y7237628D01*
X11318392Y7245553D01*
X11330533Y7255052D01*
X11341404Y7265974D01*
X11350904Y7278065D01*
X11358880Y7291222D01*
X11365179Y7305294D01*
X11369751Y7319975D01*
X11372545Y7335113D01*
X11373459Y7350506D01*
X11372545Y7365847D01*
X11369751Y7380986D01*
X11365179Y7395718D01*
X11358880Y7409738D01*
X11350904Y7422896D01*
X11341404Y7435037D01*
X11330533Y7445908D01*
X11318392Y7455408D01*
X11305235Y7463383D01*
X11291163Y7469682D01*
X11276482Y7474254D01*
X11261344Y7477048D01*
X11245951Y7477963D01*
X11230610Y7477048D01*
X11215471Y7474254D01*
X11200739Y7469682D01*
X11186718Y7463383D01*
X11173561Y7455408D01*
X11161420Y7445908D01*
X11150549Y7435037D01*
X11141049Y7422896D01*
X11133074Y7409738D01*
X11126774Y7395718D01*
X11122202Y7380986D01*
X11119408Y7365847D01*
X11118494Y7350506D01*
X11119408Y7335113D01*
X11122202Y7319975D01*
X11126774Y7305294D01*
X11133074Y7291222D01*
X11141049Y7278065D01*
X11150549Y7265974D01*
X11161420Y7255052D01*
X11173561Y7245553D01*
X11186718Y7237628D01*
X11200739Y7231278D01*
X11215471Y7226706D01*
X11230610Y7223912D01*
G37*
G36*
X9461500Y7238492D02*
G01*
X9476892Y7239457D01*
X9492030Y7242200D01*
X9506712Y7246772D01*
X9520732Y7253122D01*
X9533940Y7261098D01*
X9546031Y7270597D01*
X9556902Y7281468D01*
X9566402Y7293559D01*
X9574377Y7306767D01*
X9579203Y7317486D01*
X9581438Y7320635D01*
X9584690Y7322718D01*
X9588500Y7323480D01*
X9592259Y7322718D01*
X9595510Y7320635D01*
X9597745Y7317486D01*
X9602571Y7306716D01*
X9610547Y7293559D01*
X9620046Y7281418D01*
X9630918Y7270546D01*
X9643059Y7261047D01*
X9656216Y7253071D01*
X9670288Y7246772D01*
X9684969Y7242200D01*
X9700107Y7239406D01*
X9715500Y7238492D01*
X9730841Y7239406D01*
X9745980Y7242200D01*
X9760661Y7246772D01*
X9774732Y7253071D01*
X9787890Y7261047D01*
X9800031Y7270546D01*
X9810902Y7281418D01*
X9820402Y7293559D01*
X9828377Y7306716D01*
X9834676Y7320788D01*
X9839248Y7335469D01*
X9842042Y7350607D01*
X9842957Y7365949D01*
X9842042Y7381341D01*
X9839248Y7396480D01*
X9834676Y7411161D01*
X9828377Y7425232D01*
X9820402Y7438390D01*
X9810902Y7450531D01*
X9800031Y7461402D01*
X9787890Y7470902D01*
X9774732Y7478877D01*
X9760661Y7485176D01*
X9745980Y7489748D01*
X9730841Y7492542D01*
X9715500Y7493457D01*
X9700107Y7492542D01*
X9684969Y7489748D01*
X9670288Y7485176D01*
X9656216Y7478877D01*
X9643059Y7470902D01*
X9630918Y7461402D01*
X9620046Y7450531D01*
X9610547Y7438390D01*
X9602571Y7425232D01*
X9597745Y7414514D01*
X9595510Y7411313D01*
X9592310Y7409230D01*
X9588500Y7408519D01*
X9584690Y7409230D01*
X9581438Y7411313D01*
X9579203Y7414514D01*
X9574377Y7425232D01*
X9566402Y7438440D01*
X9556902Y7450531D01*
X9546031Y7461402D01*
X9533940Y7470902D01*
X9520732Y7478877D01*
X9506712Y7485227D01*
X9492030Y7489799D01*
X9476892Y7492542D01*
X9461500Y7493508D01*
X9446107Y7492542D01*
X9430969Y7489799D01*
X9416288Y7485227D01*
X9402267Y7478877D01*
X9389059Y7470902D01*
X9376968Y7461402D01*
X9366097Y7450531D01*
X9356598Y7438440D01*
X9348622Y7425232D01*
X9342272Y7411212D01*
X9337700Y7396530D01*
X9334957Y7381392D01*
X9333992Y7366000D01*
X9334957Y7350607D01*
X9337700Y7335469D01*
X9342272Y7320788D01*
X9348622Y7306767D01*
X9356598Y7293559D01*
X9366097Y7281468D01*
X9376968Y7270597D01*
X9389059Y7261098D01*
X9402267Y7253122D01*
X9416288Y7246772D01*
X9430969Y7242200D01*
X9446107Y7239457D01*
G37*
G36*
X7527798Y7323480D02*
G01*
X7565390Y7323480D01*
X7573416Y7324242D01*
X7580630Y7326426D01*
X7587335Y7330033D01*
X7593177Y7334808D01*
X7597952Y7340650D01*
X7601508Y7347305D01*
X7603693Y7354570D01*
X7604506Y7362596D01*
X7604506Y7400188D01*
X7527798Y7400188D01*
G37*
G36*
X7388606Y7323480D02*
G01*
X7426198Y7323480D01*
X7426198Y7400188D01*
X7354265Y7400188D01*
X7350556Y7400899D01*
X7347356Y7402880D01*
X7345070Y7405928D01*
X7344105Y7409586D01*
X7344562Y7413345D01*
X7346797Y7420508D01*
X7349540Y7435646D01*
X7350455Y7450988D01*
X7349540Y7466380D01*
X7346797Y7481519D01*
X7344562Y7488580D01*
X7344156Y7492339D01*
X7345121Y7495997D01*
X7347356Y7499045D01*
X7350556Y7501077D01*
X7354265Y7501788D01*
X7426198Y7501788D01*
X7426198Y7578496D01*
X7388606Y7578496D01*
X7380579Y7577683D01*
X7373366Y7575499D01*
X7366660Y7571943D01*
X7360818Y7567117D01*
X7356043Y7561275D01*
X7352487Y7554620D01*
X7350302Y7547406D01*
X7349490Y7539380D01*
X7349490Y7524191D01*
X7348575Y7519924D01*
X7345934Y7516418D01*
X7342073Y7514386D01*
X7337704Y7514132D01*
X7333640Y7515758D01*
X7330643Y7518908D01*
X7327900Y7523429D01*
X7318400Y7535519D01*
X7307529Y7546441D01*
X7295388Y7555941D01*
X7282230Y7563866D01*
X7268209Y7570216D01*
X7253478Y7574788D01*
X7238339Y7577531D01*
X7222998Y7578496D01*
X7207605Y7577531D01*
X7192467Y7574788D01*
X7177786Y7570216D01*
X7163765Y7563866D01*
X7150557Y7555941D01*
X7138466Y7546441D01*
X7127544Y7535519D01*
X7118045Y7523429D01*
X7110120Y7510221D01*
X7103770Y7496200D01*
X7099198Y7481519D01*
X7096455Y7466380D01*
X7095490Y7450988D01*
X7096455Y7435646D01*
X7099198Y7420508D01*
X7103770Y7405776D01*
X7110120Y7391755D01*
X7118045Y7378598D01*
X7127544Y7366457D01*
X7138466Y7355586D01*
X7150557Y7346086D01*
X7163765Y7338110D01*
X7177786Y7331811D01*
X7192467Y7327188D01*
X7207605Y7324445D01*
X7222998Y7323531D01*
X7238339Y7324445D01*
X7253478Y7327188D01*
X7268209Y7331811D01*
X7282230Y7338110D01*
X7295388Y7346086D01*
X7307529Y7355586D01*
X7318400Y7366457D01*
X7327900Y7378598D01*
X7330643Y7383068D01*
X7333640Y7386218D01*
X7337704Y7387844D01*
X7342073Y7387590D01*
X7345934Y7385558D01*
X7348575Y7382103D01*
X7349490Y7377836D01*
X7349490Y7362596D01*
X7350302Y7354570D01*
X7352487Y7347305D01*
X7356043Y7340650D01*
X7360818Y7334808D01*
X7366660Y7330033D01*
X7373366Y7326426D01*
X7380579Y7324242D01*
G37*
G36*
X8064500Y7479792D02*
G01*
X8077809Y7480706D01*
X8090916Y7483297D01*
X8103565Y7487564D01*
X8115553Y7493508D01*
X8126628Y7500924D01*
X8136686Y7509713D01*
X8145475Y7519771D01*
X8152892Y7530846D01*
X8158835Y7542834D01*
X8163102Y7555484D01*
X8165693Y7568590D01*
X8166608Y7582255D01*
X8166608Y7657744D01*
X8165693Y7671409D01*
X8163102Y7684516D01*
X8158835Y7697165D01*
X8152892Y7709153D01*
X8145475Y7720228D01*
X8136686Y7730286D01*
X8126628Y7739075D01*
X8115553Y7746492D01*
X8103565Y7752435D01*
X8090916Y7756702D01*
X8077809Y7759293D01*
X8064500Y7760208D01*
X8051190Y7759293D01*
X8038084Y7756702D01*
X8025434Y7752435D01*
X8013446Y7746492D01*
X8002371Y7739075D01*
X7992313Y7730286D01*
X7983524Y7720228D01*
X7976108Y7709153D01*
X7970164Y7697165D01*
X7965897Y7684516D01*
X7963306Y7671409D01*
X7962392Y7657744D01*
X7962392Y7582255D01*
X7963306Y7568590D01*
X7965897Y7555484D01*
X7970164Y7542834D01*
X7976108Y7530846D01*
X7983524Y7519771D01*
X7992313Y7509713D01*
X8002371Y7500924D01*
X8013446Y7493508D01*
X8025434Y7487564D01*
X8038084Y7483297D01*
X8051190Y7480706D01*
G37*
G36*
X7810500Y7479792D02*
G01*
X7823809Y7480706D01*
X7836916Y7483297D01*
X7849565Y7487564D01*
X7861553Y7493508D01*
X7872628Y7500924D01*
X7882686Y7509713D01*
X7891475Y7519771D01*
X7898892Y7530846D01*
X7904835Y7542834D01*
X7909102Y7555484D01*
X7911693Y7568590D01*
X7912608Y7582255D01*
X7912608Y7657744D01*
X7911693Y7671409D01*
X7909102Y7684516D01*
X7904835Y7697165D01*
X7898892Y7709153D01*
X7891475Y7720228D01*
X7882686Y7730286D01*
X7872628Y7739075D01*
X7861553Y7746492D01*
X7849565Y7752435D01*
X7836916Y7756702D01*
X7823809Y7759293D01*
X7810500Y7760208D01*
X7797190Y7759293D01*
X7784084Y7756702D01*
X7771434Y7752435D01*
X7759446Y7746492D01*
X7748371Y7739075D01*
X7738313Y7730286D01*
X7729524Y7720228D01*
X7722108Y7709153D01*
X7716164Y7697165D01*
X7711897Y7684516D01*
X7709306Y7671409D01*
X7708392Y7657744D01*
X7708392Y7582255D01*
X7709306Y7568590D01*
X7711897Y7555484D01*
X7716164Y7542834D01*
X7722108Y7530846D01*
X7729524Y7519771D01*
X7738313Y7509713D01*
X7748371Y7500924D01*
X7759446Y7493508D01*
X7771434Y7487564D01*
X7784084Y7483297D01*
X7797190Y7480706D01*
G37*
G36*
X9334500Y7479792D02*
G01*
X9347809Y7480706D01*
X9360916Y7483297D01*
X9373565Y7487564D01*
X9385554Y7493508D01*
X9396628Y7500924D01*
X9406686Y7509713D01*
X9415475Y7519771D01*
X9422892Y7530846D01*
X9428835Y7542834D01*
X9433102Y7555484D01*
X9435693Y7568590D01*
X9436608Y7582255D01*
X9436608Y7657744D01*
X9435693Y7671409D01*
X9433102Y7684516D01*
X9428835Y7697165D01*
X9422892Y7709153D01*
X9415475Y7720228D01*
X9406686Y7730286D01*
X9396628Y7739075D01*
X9385554Y7746492D01*
X9373565Y7752435D01*
X9360916Y7756702D01*
X9347809Y7759293D01*
X9334500Y7760208D01*
X9321190Y7759293D01*
X9308084Y7756702D01*
X9295434Y7752435D01*
X9283446Y7746492D01*
X9272371Y7739075D01*
X9262313Y7730286D01*
X9253524Y7720228D01*
X9246108Y7709153D01*
X9240164Y7697165D01*
X9235897Y7684516D01*
X9233306Y7671409D01*
X9232392Y7657744D01*
X9232392Y7582255D01*
X9233306Y7568590D01*
X9235897Y7555484D01*
X9240164Y7542834D01*
X9246108Y7530846D01*
X9253524Y7519771D01*
X9262313Y7509713D01*
X9272371Y7500924D01*
X9283446Y7493508D01*
X9295434Y7487564D01*
X9308084Y7483297D01*
X9321190Y7480706D01*
G37*
G36*
X9588500Y7479792D02*
G01*
X9601809Y7480706D01*
X9614916Y7483297D01*
X9627565Y7487564D01*
X9639554Y7493508D01*
X9650628Y7500924D01*
X9660686Y7509713D01*
X9669475Y7519771D01*
X9676892Y7530846D01*
X9682835Y7542834D01*
X9687102Y7555484D01*
X9689693Y7568590D01*
X9690608Y7582255D01*
X9690608Y7657744D01*
X9689693Y7671409D01*
X9687102Y7684516D01*
X9682835Y7697165D01*
X9676892Y7709153D01*
X9669475Y7720228D01*
X9660686Y7730286D01*
X9650628Y7739075D01*
X9639554Y7746492D01*
X9627565Y7752435D01*
X9614916Y7756702D01*
X9601809Y7759293D01*
X9588500Y7760208D01*
X9575190Y7759293D01*
X9562084Y7756702D01*
X9549434Y7752435D01*
X9537446Y7746492D01*
X9526371Y7739075D01*
X9516313Y7730286D01*
X9507524Y7720228D01*
X9500108Y7709153D01*
X9494164Y7697165D01*
X9489897Y7684516D01*
X9487306Y7671409D01*
X9486392Y7657744D01*
X9486392Y7582255D01*
X9487306Y7568590D01*
X9489897Y7555484D01*
X9494164Y7542834D01*
X9500108Y7530846D01*
X9507524Y7519771D01*
X9516313Y7509713D01*
X9526371Y7500924D01*
X9537446Y7493508D01*
X9549434Y7487564D01*
X9562084Y7483297D01*
X9575190Y7480706D01*
G37*
G36*
X10401300Y7492492D02*
G01*
X10438892Y7492492D01*
X10446918Y7493304D01*
X10454132Y7495489D01*
X10460837Y7499045D01*
X10466679Y7503820D01*
X10471454Y7509662D01*
X10475010Y7516368D01*
X10477195Y7523581D01*
X10478008Y7531608D01*
X10478008Y7546797D01*
X10478922Y7551064D01*
X10481564Y7554569D01*
X10485424Y7556601D01*
X10489793Y7556855D01*
X10493857Y7555230D01*
X10496854Y7552080D01*
X10499598Y7547559D01*
X10509097Y7535468D01*
X10519968Y7524597D01*
X10532059Y7515098D01*
X10545267Y7507122D01*
X10559288Y7500772D01*
X10573969Y7496200D01*
X10589107Y7493457D01*
X10604500Y7492492D01*
X10619892Y7493457D01*
X10635030Y7496200D01*
X10649712Y7500772D01*
X10663732Y7507122D01*
X10676940Y7515098D01*
X10689031Y7524597D01*
X10699902Y7535468D01*
X10709402Y7547559D01*
X10717377Y7560767D01*
X10723727Y7574788D01*
X10728299Y7589469D01*
X10731042Y7604607D01*
X10732008Y7620000D01*
X10731042Y7635392D01*
X10728299Y7650530D01*
X10723727Y7665212D01*
X10717377Y7679232D01*
X10709402Y7692440D01*
X10699902Y7704531D01*
X10689031Y7715402D01*
X10676940Y7724902D01*
X10663732Y7732877D01*
X10649712Y7739227D01*
X10635030Y7743799D01*
X10619892Y7746542D01*
X10604500Y7747508D01*
X10589107Y7746542D01*
X10573969Y7743799D01*
X10559288Y7739227D01*
X10545267Y7732877D01*
X10532059Y7724902D01*
X10519968Y7715402D01*
X10509097Y7704531D01*
X10499598Y7692440D01*
X10496854Y7687919D01*
X10493857Y7684770D01*
X10489793Y7683144D01*
X10485424Y7683398D01*
X10481564Y7685430D01*
X10478922Y7688935D01*
X10478008Y7693202D01*
X10478008Y7708392D01*
X10477195Y7716418D01*
X10475010Y7723631D01*
X10471454Y7730337D01*
X10466679Y7736179D01*
X10460837Y7740954D01*
X10454132Y7744510D01*
X10446918Y7746695D01*
X10438892Y7747508D01*
X10401300Y7747508D01*
X10401300Y7670800D01*
X10473232Y7670800D01*
X10476941Y7670088D01*
X10480141Y7668056D01*
X10482376Y7665008D01*
X10483342Y7661351D01*
X10482935Y7657592D01*
X10480700Y7650530D01*
X10477957Y7635392D01*
X10476992Y7620000D01*
X10477957Y7604607D01*
X10480700Y7589469D01*
X10482935Y7582357D01*
X10483342Y7578648D01*
X10482376Y7574991D01*
X10480141Y7571943D01*
X10476941Y7569911D01*
X10473232Y7569200D01*
X10401300Y7569200D01*
G37*
G36*
X9842500Y7492492D02*
G01*
X9857892Y7493457D01*
X9873030Y7496200D01*
X9887712Y7500772D01*
X9901732Y7507122D01*
X9914940Y7515098D01*
X9927031Y7524597D01*
X9937902Y7535468D01*
X9947402Y7547559D01*
X9955377Y7560767D01*
X9960254Y7571536D01*
X9962438Y7574686D01*
X9965690Y7576769D01*
X9969500Y7577531D01*
X9973310Y7576769D01*
X9976561Y7574686D01*
X9978745Y7571536D01*
X9983622Y7560767D01*
X9991598Y7547559D01*
X10001097Y7535468D01*
X10011968Y7524597D01*
X10024059Y7515098D01*
X10037267Y7507122D01*
X10051288Y7500772D01*
X10065969Y7496200D01*
X10081107Y7493457D01*
X10096500Y7492492D01*
X10111892Y7493457D01*
X10127030Y7496200D01*
X10141712Y7500772D01*
X10155732Y7507122D01*
X10168940Y7515098D01*
X10181031Y7524597D01*
X10191902Y7535468D01*
X10201402Y7547559D01*
X10204145Y7552080D01*
X10207142Y7555230D01*
X10211206Y7556855D01*
X10215575Y7556601D01*
X10219436Y7554569D01*
X10222077Y7551064D01*
X10222992Y7546797D01*
X10222992Y7531608D01*
X10223804Y7523581D01*
X10225989Y7516368D01*
X10229545Y7509662D01*
X10234320Y7503820D01*
X10240162Y7499045D01*
X10246868Y7495489D01*
X10254081Y7493304D01*
X10262108Y7492492D01*
X10299700Y7492492D01*
X10299700Y7569200D01*
X10227767Y7569200D01*
X10224058Y7569911D01*
X10220858Y7571943D01*
X10218623Y7574991D01*
X10217658Y7578648D01*
X10218064Y7582357D01*
X10220299Y7589469D01*
X10223042Y7604607D01*
X10224008Y7620000D01*
X10223042Y7635392D01*
X10220299Y7650530D01*
X10218064Y7657592D01*
X10217658Y7661351D01*
X10218623Y7665008D01*
X10220858Y7668056D01*
X10224058Y7670088D01*
X10227767Y7670800D01*
X10299700Y7670800D01*
X10299700Y7747508D01*
X10262108Y7747508D01*
X10254081Y7746695D01*
X10246868Y7744510D01*
X10240162Y7740954D01*
X10234320Y7736179D01*
X10229545Y7730337D01*
X10225989Y7723631D01*
X10223804Y7716418D01*
X10222992Y7708392D01*
X10222992Y7693202D01*
X10222077Y7688935D01*
X10219436Y7685430D01*
X10215575Y7683398D01*
X10211206Y7683144D01*
X10207142Y7684770D01*
X10204145Y7687919D01*
X10201402Y7692440D01*
X10191902Y7704531D01*
X10181031Y7715402D01*
X10168940Y7724902D01*
X10155732Y7732877D01*
X10141712Y7739227D01*
X10127030Y7743799D01*
X10111892Y7746542D01*
X10096500Y7747508D01*
X10081107Y7746542D01*
X10065969Y7743799D01*
X10051288Y7739227D01*
X10037267Y7732877D01*
X10024059Y7724902D01*
X10011968Y7715402D01*
X10001097Y7704531D01*
X9991598Y7692440D01*
X9983622Y7679232D01*
X9978745Y7668463D01*
X9976561Y7665313D01*
X9973310Y7663230D01*
X9969500Y7662468D01*
X9965690Y7663230D01*
X9962438Y7665313D01*
X9960254Y7668463D01*
X9955377Y7679232D01*
X9947402Y7692440D01*
X9937902Y7704531D01*
X9927031Y7715402D01*
X9914940Y7724902D01*
X9901732Y7732877D01*
X9887712Y7739227D01*
X9873030Y7743799D01*
X9857892Y7746542D01*
X9842500Y7747508D01*
X9827107Y7746542D01*
X9811969Y7743799D01*
X9797288Y7739227D01*
X9783267Y7732877D01*
X9770059Y7724902D01*
X9757968Y7715402D01*
X9747097Y7704531D01*
X9737598Y7692440D01*
X9729622Y7679232D01*
X9723272Y7665212D01*
X9718700Y7650530D01*
X9715957Y7635392D01*
X9714992Y7620000D01*
X9715957Y7604607D01*
X9718700Y7589469D01*
X9723272Y7574788D01*
X9729622Y7560767D01*
X9737598Y7547559D01*
X9747097Y7535468D01*
X9757968Y7524597D01*
X9770059Y7515098D01*
X9783267Y7507122D01*
X9797288Y7500772D01*
X9811969Y7496200D01*
X9827107Y7493457D01*
G37*
G36*
X8318500Y7492492D02*
G01*
X8333892Y7493457D01*
X8349030Y7496200D01*
X8363712Y7500772D01*
X8377732Y7507122D01*
X8390940Y7515098D01*
X8403031Y7524597D01*
X8413902Y7535468D01*
X8423402Y7547559D01*
X8431377Y7560767D01*
X8436254Y7571536D01*
X8438438Y7574686D01*
X8441690Y7576769D01*
X8445500Y7577531D01*
X8449310Y7576769D01*
X8452561Y7574686D01*
X8454745Y7571536D01*
X8459622Y7560767D01*
X8467598Y7547559D01*
X8477097Y7535468D01*
X8487968Y7524597D01*
X8500059Y7515098D01*
X8513267Y7507122D01*
X8527288Y7500772D01*
X8541969Y7496200D01*
X8557107Y7493457D01*
X8572500Y7492492D01*
X8587892Y7493457D01*
X8603030Y7496200D01*
X8617712Y7500772D01*
X8631732Y7507122D01*
X8644940Y7515098D01*
X8657031Y7524597D01*
X8667902Y7535468D01*
X8677402Y7547559D01*
X8685377Y7560767D01*
X8690254Y7571536D01*
X8692438Y7574686D01*
X8695690Y7576769D01*
X8699500Y7577531D01*
X8703310Y7576769D01*
X8706561Y7574686D01*
X8708745Y7571536D01*
X8713622Y7560767D01*
X8721598Y7547559D01*
X8731097Y7535468D01*
X8741968Y7524597D01*
X8754059Y7515098D01*
X8767267Y7507122D01*
X8781288Y7500772D01*
X8795969Y7496200D01*
X8811107Y7493457D01*
X8826500Y7492492D01*
X8841892Y7493457D01*
X8857030Y7496200D01*
X8871712Y7500772D01*
X8885732Y7507122D01*
X8898940Y7515098D01*
X8911031Y7524597D01*
X8921902Y7535468D01*
X8931402Y7547559D01*
X8939377Y7560767D01*
X8944203Y7571486D01*
X8946438Y7574635D01*
X8949690Y7576718D01*
X8953500Y7577480D01*
X8957259Y7576718D01*
X8960510Y7574635D01*
X8962745Y7571486D01*
X8967571Y7560716D01*
X8975547Y7547559D01*
X8985046Y7535418D01*
X8995918Y7524546D01*
X9008059Y7515047D01*
X9021216Y7507071D01*
X9035288Y7500772D01*
X9049969Y7496200D01*
X9065107Y7493406D01*
X9080500Y7492492D01*
X9095841Y7493406D01*
X9110980Y7496200D01*
X9125661Y7500772D01*
X9139732Y7507071D01*
X9152890Y7515047D01*
X9165031Y7524546D01*
X9175902Y7535418D01*
X9185402Y7547559D01*
X9193377Y7560716D01*
X9199676Y7574788D01*
X9204248Y7589469D01*
X9207042Y7604607D01*
X9207957Y7619949D01*
X9207042Y7635341D01*
X9204248Y7650480D01*
X9199676Y7665161D01*
X9193377Y7679232D01*
X9185402Y7692390D01*
X9175902Y7704531D01*
X9165031Y7715402D01*
X9152890Y7724902D01*
X9139732Y7732877D01*
X9125661Y7739176D01*
X9110980Y7743748D01*
X9095841Y7746542D01*
X9080500Y7747457D01*
X9065107Y7746542D01*
X9049969Y7743748D01*
X9035288Y7739176D01*
X9021216Y7732877D01*
X9008059Y7724902D01*
X8995918Y7715402D01*
X8985046Y7704531D01*
X8975547Y7692390D01*
X8967571Y7679232D01*
X8962745Y7668514D01*
X8960510Y7665313D01*
X8957310Y7663230D01*
X8953500Y7662519D01*
X8949690Y7663230D01*
X8946438Y7665313D01*
X8944203Y7668514D01*
X8939377Y7679232D01*
X8931402Y7692440D01*
X8921902Y7704531D01*
X8911031Y7715402D01*
X8898940Y7724902D01*
X8885732Y7732877D01*
X8871712Y7739227D01*
X8857030Y7743799D01*
X8841892Y7746542D01*
X8826500Y7747508D01*
X8811107Y7746542D01*
X8795969Y7743799D01*
X8781288Y7739227D01*
X8767267Y7732877D01*
X8754059Y7724902D01*
X8741968Y7715402D01*
X8731097Y7704531D01*
X8721598Y7692440D01*
X8713622Y7679232D01*
X8708745Y7668463D01*
X8706561Y7665313D01*
X8703310Y7663230D01*
X8699500Y7662468D01*
X8695690Y7663230D01*
X8692438Y7665313D01*
X8690254Y7668463D01*
X8685377Y7679232D01*
X8677402Y7692440D01*
X8667902Y7704531D01*
X8657031Y7715402D01*
X8644940Y7724902D01*
X8631732Y7732877D01*
X8617712Y7739227D01*
X8603030Y7743799D01*
X8587892Y7746542D01*
X8572500Y7747508D01*
X8557107Y7746542D01*
X8541969Y7743799D01*
X8527288Y7739227D01*
X8513267Y7732877D01*
X8500059Y7724902D01*
X8487968Y7715402D01*
X8477097Y7704531D01*
X8467598Y7692440D01*
X8459622Y7679232D01*
X8454745Y7668463D01*
X8452561Y7665313D01*
X8449310Y7663230D01*
X8445500Y7662468D01*
X8441690Y7663230D01*
X8438438Y7665313D01*
X8436254Y7668463D01*
X8431377Y7679232D01*
X8423402Y7692440D01*
X8413902Y7704531D01*
X8403031Y7715402D01*
X8390940Y7724902D01*
X8377732Y7732877D01*
X8363712Y7739227D01*
X8349030Y7743799D01*
X8333892Y7746542D01*
X8318500Y7747508D01*
X8303107Y7746542D01*
X8287969Y7743799D01*
X8273288Y7739227D01*
X8259267Y7732877D01*
X8246059Y7724902D01*
X8233968Y7715402D01*
X8223097Y7704531D01*
X8213598Y7692440D01*
X8205622Y7679232D01*
X8199272Y7665212D01*
X8194700Y7650530D01*
X8191957Y7635392D01*
X8190992Y7620000D01*
X8191957Y7604607D01*
X8194700Y7589469D01*
X8199272Y7574788D01*
X8205622Y7560767D01*
X8213598Y7547559D01*
X8223097Y7535468D01*
X8233968Y7524597D01*
X8246059Y7515098D01*
X8259267Y7507122D01*
X8273288Y7500772D01*
X8287969Y7496200D01*
X8303107Y7493457D01*
G37*
G36*
X7527798Y7501788D02*
G01*
X7604506Y7501788D01*
X7604506Y7539380D01*
X7603693Y7547406D01*
X7601508Y7554620D01*
X7597952Y7561275D01*
X7593177Y7567117D01*
X7587335Y7571943D01*
X7580630Y7575499D01*
X7573416Y7577683D01*
X7565390Y7578496D01*
X7527798Y7578496D01*
G37*
G36*
X7368336Y7688478D02*
G01*
X7384745Y7688935D01*
X7400950Y7691272D01*
X7416850Y7695438D01*
X7432090Y7701381D01*
X7446619Y7709052D01*
X7460132Y7718298D01*
X7472527Y7729067D01*
X7483602Y7741107D01*
X7493253Y7754366D01*
X7501331Y7768640D01*
X7507681Y7783779D01*
X7512303Y7799476D01*
X7515098Y7815630D01*
X7516063Y7832039D01*
X7515098Y7848396D01*
X7512303Y7864551D01*
X7507681Y7880248D01*
X7501331Y7895386D01*
X7493253Y7909661D01*
X7483602Y7922920D01*
X7480300Y7926527D01*
X7478217Y7930032D01*
X7477658Y7934045D01*
X7478725Y7938008D01*
X7481265Y7941157D01*
X7484821Y7943138D01*
X7492238Y7945374D01*
X7498892Y7948930D01*
X7504734Y7953705D01*
X7509509Y7959547D01*
X7513116Y7966252D01*
X7515301Y7973466D01*
X7516063Y7981492D01*
X7516063Y8027162D01*
X7431328Y8027162D01*
X7431328Y7977784D01*
X7430566Y7973974D01*
X7428433Y7970672D01*
X7425181Y7968437D01*
X7421321Y7967624D01*
X7416850Y7968589D01*
X7400950Y7972755D01*
X7384745Y7975092D01*
X7368336Y7975549D01*
X7352030Y7974126D01*
X7335977Y7970875D01*
X7326934Y7967980D01*
X7323124Y7967472D01*
X7319467Y7968437D01*
X7316368Y7970672D01*
X7314336Y7973872D01*
X7313625Y7977631D01*
X7313625Y8027162D01*
X7228890Y8027162D01*
X7228890Y7981492D01*
X7229652Y7973466D01*
X7231837Y7966252D01*
X7235393Y7959547D01*
X7240219Y7953705D01*
X7246061Y7948930D01*
X7252716Y7945374D01*
X7260031Y7943138D01*
X7263536Y7941309D01*
X7266025Y7938211D01*
X7267194Y7934452D01*
X7266787Y7930489D01*
X7264958Y7926984D01*
X7256272Y7916418D01*
X7247432Y7902651D01*
X7240168Y7887919D01*
X7234681Y7872475D01*
X7230973Y7856524D01*
X7229094Y7840218D01*
X7229094Y7823809D01*
X7230973Y7807553D01*
X7234681Y7791551D01*
X7240168Y7776108D01*
X7247432Y7761427D01*
X7256272Y7747609D01*
X7266686Y7734909D01*
X7278420Y7723479D01*
X7291425Y7713472D01*
X7305446Y7705039D01*
X7320381Y7698231D01*
X7335977Y7693152D01*
X7352030Y7689900D01*
G37*
G36*
X9265970Y7900009D02*
G01*
X9281363Y7900924D01*
X9296501Y7903718D01*
X9311182Y7908290D01*
X9325203Y7914589D01*
X9338411Y7922564D01*
X9350502Y7932064D01*
X9361424Y7942935D01*
X9370872Y7955076D01*
X9378848Y7968234D01*
X9385198Y7982254D01*
X9389770Y7996986D01*
X9392513Y8012125D01*
X9393478Y8027466D01*
X9392513Y8042859D01*
X9389770Y8057997D01*
X9385198Y8072678D01*
X9378848Y8086750D01*
X9370872Y8099907D01*
X9361424Y8111998D01*
X9350502Y8122920D01*
X9338411Y8132419D01*
X9325203Y8140344D01*
X9311182Y8146694D01*
X9296501Y8151266D01*
X9281363Y8154060D01*
X9265970Y8154974D01*
X9250629Y8154060D01*
X9235490Y8151266D01*
X9220758Y8146694D01*
X9206738Y8140344D01*
X9193530Y8132419D01*
X9181439Y8122920D01*
X9170568Y8111998D01*
X9161068Y8099907D01*
X9153093Y8086750D01*
X9146794Y8072678D01*
X9142171Y8057997D01*
X9139428Y8042859D01*
X9138462Y8027466D01*
X9139428Y8012125D01*
X9142171Y7996986D01*
X9146794Y7982254D01*
X9153093Y7968234D01*
X9161068Y7955076D01*
X9170568Y7942935D01*
X9181439Y7932064D01*
X9193530Y7922564D01*
X9206738Y7914589D01*
X9220758Y7908290D01*
X9235490Y7903718D01*
X9250629Y7900924D01*
G37*
G36*
X8503970Y7900009D02*
G01*
X8519363Y7900924D01*
X8534501Y7903718D01*
X8549182Y7908290D01*
X8563203Y7914589D01*
X8576411Y7922564D01*
X8588502Y7932064D01*
X8599424Y7942935D01*
X8608872Y7955076D01*
X8616848Y7968234D01*
X8623198Y7982254D01*
X8627770Y7996986D01*
X8630513Y8012125D01*
X8631478Y8027466D01*
X8630513Y8042859D01*
X8627770Y8057997D01*
X8623198Y8072678D01*
X8616848Y8086750D01*
X8608872Y8099907D01*
X8599424Y8111998D01*
X8588502Y8122920D01*
X8576411Y8132419D01*
X8563203Y8140344D01*
X8549182Y8146694D01*
X8534501Y8151266D01*
X8519363Y8154060D01*
X8503970Y8154974D01*
X8488629Y8154060D01*
X8473490Y8151266D01*
X8458758Y8146694D01*
X8444738Y8140344D01*
X8431530Y8132419D01*
X8419439Y8122920D01*
X8408568Y8111998D01*
X8399068Y8099907D01*
X8391093Y8086750D01*
X8384794Y8072678D01*
X8380171Y8057997D01*
X8377428Y8042859D01*
X8376462Y8027466D01*
X8377428Y8012125D01*
X8380171Y7996986D01*
X8384794Y7982254D01*
X8391093Y7968234D01*
X8399068Y7955076D01*
X8408568Y7942935D01*
X8419439Y7932064D01*
X8431530Y7922564D01*
X8444738Y7914589D01*
X8458758Y7908290D01*
X8473490Y7903718D01*
X8488629Y7900924D01*
G37*
G36*
X10547502Y7909001D02*
G01*
X10562844Y7909915D01*
X10577982Y7912709D01*
X10592663Y7917281D01*
X10606735Y7923580D01*
X10619892Y7931556D01*
X10632033Y7941056D01*
X10642904Y7951927D01*
X10652404Y7964068D01*
X10660380Y7977225D01*
X10666679Y7991297D01*
X10671251Y8005978D01*
X10674045Y8021116D01*
X10674959Y8036458D01*
X10674045Y8051850D01*
X10671251Y8066989D01*
X10666679Y8081670D01*
X10660380Y8095742D01*
X10652404Y8108899D01*
X10642904Y8121040D01*
X10632033Y8131911D01*
X10619892Y8141411D01*
X10606735Y8149386D01*
X10592663Y8155686D01*
X10577982Y8160258D01*
X10562844Y8163052D01*
X10547502Y8163966D01*
X10532110Y8163052D01*
X10516971Y8160258D01*
X10502290Y8155686D01*
X10488218Y8149386D01*
X10475061Y8141411D01*
X10462920Y8131911D01*
X10452049Y8121040D01*
X10442549Y8108899D01*
X10434574Y8095742D01*
X10428274Y8081670D01*
X10423702Y8066989D01*
X10420908Y8051850D01*
X10419994Y8036458D01*
X10420908Y8021116D01*
X10423702Y8005978D01*
X10428274Y7991297D01*
X10434574Y7977225D01*
X10442549Y7964068D01*
X10452049Y7951927D01*
X10462920Y7941056D01*
X10475061Y7931556D01*
X10488218Y7923580D01*
X10502290Y7917281D01*
X10516971Y7912709D01*
X10532110Y7909915D01*
G37*
G36*
X9785502Y7909001D02*
G01*
X9800844Y7909915D01*
X9815982Y7912709D01*
X9830663Y7917281D01*
X9844735Y7923580D01*
X9857892Y7931556D01*
X9870033Y7941056D01*
X9880904Y7951927D01*
X9890404Y7964068D01*
X9898380Y7977225D01*
X9904679Y7991297D01*
X9909251Y8005978D01*
X9912045Y8021116D01*
X9912959Y8036458D01*
X9912045Y8051850D01*
X9909251Y8066989D01*
X9904679Y8081670D01*
X9898380Y8095742D01*
X9890404Y8108899D01*
X9880904Y8121040D01*
X9870033Y8131911D01*
X9857892Y8141411D01*
X9844735Y8149386D01*
X9830663Y8155686D01*
X9815982Y8160258D01*
X9800844Y8163052D01*
X9785502Y8163966D01*
X9770110Y8163052D01*
X9754971Y8160258D01*
X9740290Y8155686D01*
X9726218Y8149386D01*
X9713061Y8141411D01*
X9700920Y8131911D01*
X9690049Y8121040D01*
X9680549Y8108899D01*
X9672574Y8095742D01*
X9666274Y8081670D01*
X9661702Y8066989D01*
X9658908Y8051850D01*
X9657994Y8036458D01*
X9658908Y8021116D01*
X9661702Y8005978D01*
X9666274Y7991297D01*
X9672574Y7977225D01*
X9680549Y7964068D01*
X9690049Y7951927D01*
X9700920Y7941056D01*
X9713061Y7931556D01*
X9726218Y7923580D01*
X9740290Y7917281D01*
X9754971Y7912709D01*
X9770110Y7909915D01*
G37*
G36*
X8017764Y7961477D02*
G01*
X8055356Y7961477D01*
X8063382Y7962290D01*
X8070646Y7964474D01*
X8077301Y7968030D01*
X8083143Y7972806D01*
X8087918Y7978698D01*
X8091474Y7985353D01*
X8093709Y7992567D01*
X8094472Y8000593D01*
X8094472Y8038185D01*
X8017764Y8038185D01*
G37*
G36*
X7712964Y7961477D02*
G01*
X7728356Y7962442D01*
X7743494Y7965186D01*
X7758175Y7969758D01*
X7772196Y7976108D01*
X7785404Y7984083D01*
X7797495Y7993583D01*
X7808417Y8004454D01*
X7817866Y8016544D01*
X7820609Y8021066D01*
X7823606Y8024215D01*
X7827670Y8025841D01*
X7832039Y8025587D01*
X7835900Y8023555D01*
X7838541Y8020050D01*
X7839456Y8015782D01*
X7839456Y8000593D01*
X7840268Y7992567D01*
X7842453Y7985353D01*
X7846009Y7978698D01*
X7850784Y7972806D01*
X7856626Y7968030D01*
X7863331Y7964474D01*
X7870545Y7962290D01*
X7878572Y7961477D01*
X7916164Y7961477D01*
X7916164Y8038185D01*
X7844231Y8038185D01*
X7840522Y8038896D01*
X7837322Y8040928D01*
X7835087Y8043976D01*
X7834122Y8047634D01*
X7834528Y8051393D01*
X7836763Y8058454D01*
X7839506Y8073593D01*
X7840472Y8088985D01*
X7839506Y8104378D01*
X7836763Y8119516D01*
X7834528Y8126628D01*
X7834122Y8130387D01*
X7835087Y8134045D01*
X7837322Y8137093D01*
X7840522Y8139074D01*
X7844231Y8139785D01*
X7916164Y8139785D01*
X7916164Y8216493D01*
X7878572Y8216493D01*
X7870545Y8215731D01*
X7863331Y8213496D01*
X7856626Y8209940D01*
X7850784Y8205165D01*
X7846009Y8199323D01*
X7842453Y8192668D01*
X7840268Y8185403D01*
X7839456Y8177377D01*
X7839456Y8162188D01*
X7838541Y8157921D01*
X7835900Y8154416D01*
X7832039Y8152384D01*
X7827670Y8152130D01*
X7823606Y8153755D01*
X7820609Y8156905D01*
X7817866Y8161426D01*
X7808417Y8173516D01*
X7797495Y8184388D01*
X7785404Y8193887D01*
X7772196Y8201863D01*
X7758175Y8208213D01*
X7743494Y8212785D01*
X7728356Y8215528D01*
X7712964Y8216493D01*
X7697622Y8215528D01*
X7682484Y8212785D01*
X7667752Y8208213D01*
X7653731Y8201863D01*
X7640523Y8193887D01*
X7628432Y8184388D01*
X7617561Y8173516D01*
X7608062Y8161426D01*
X7600086Y8148218D01*
X7593787Y8134197D01*
X7589164Y8119516D01*
X7586421Y8104378D01*
X7585456Y8088985D01*
X7586421Y8073593D01*
X7589164Y8058454D01*
X7593787Y8043773D01*
X7600086Y8029752D01*
X7608062Y8016544D01*
X7617561Y8004454D01*
X7628432Y7993583D01*
X7640523Y7984083D01*
X7653731Y7976108D01*
X7667752Y7969758D01*
X7682484Y7965186D01*
X7697622Y7962442D01*
G37*
G36*
X11916968Y7977022D02*
G01*
X11932310Y7977936D01*
X11947448Y7980730D01*
X11962180Y7985302D01*
X11976201Y7991602D01*
X11989358Y7999577D01*
X12001500Y8009077D01*
X12012371Y8019948D01*
X12021870Y8032089D01*
X12029846Y8045246D01*
X12036145Y8059267D01*
X12040768Y8073999D01*
X12043511Y8089138D01*
X12044426Y8104479D01*
X12043511Y8119872D01*
X12040768Y8135010D01*
X12036145Y8149691D01*
X12029846Y8163763D01*
X12021870Y8176920D01*
X12012371Y8189010D01*
X12001500Y8199932D01*
X11989358Y8209432D01*
X11976201Y8217357D01*
X11962180Y8223707D01*
X11947448Y8228279D01*
X11932310Y8231073D01*
X11916968Y8231987D01*
X11901576Y8231073D01*
X11886438Y8228279D01*
X11871756Y8223707D01*
X11857736Y8217357D01*
X11844528Y8209432D01*
X11832437Y8199932D01*
X11821515Y8189010D01*
X11812016Y8176920D01*
X11804091Y8163763D01*
X11797741Y8149691D01*
X11793169Y8135010D01*
X11790426Y8119872D01*
X11789460Y8104479D01*
X11790426Y8089138D01*
X11793169Y8073999D01*
X11797741Y8059267D01*
X11804091Y8045246D01*
X11812016Y8032089D01*
X11821515Y8019948D01*
X11832437Y8009077D01*
X11844528Y7999577D01*
X11857736Y7991602D01*
X11871756Y7985302D01*
X11886438Y7980730D01*
X11901576Y7977936D01*
G37*
G36*
X11599468Y7977022D02*
G01*
X11614810Y7977936D01*
X11629948Y7980730D01*
X11644680Y7985302D01*
X11658701Y7991602D01*
X11671858Y7999577D01*
X11684000Y8009077D01*
X11694871Y8019948D01*
X11704370Y8032089D01*
X11712346Y8045246D01*
X11718645Y8059267D01*
X11723268Y8073999D01*
X11726011Y8089138D01*
X11726926Y8104479D01*
X11726011Y8119872D01*
X11723268Y8135010D01*
X11718645Y8149691D01*
X11712346Y8163763D01*
X11704370Y8176920D01*
X11694871Y8189010D01*
X11684000Y8199932D01*
X11671858Y8209432D01*
X11658701Y8217357D01*
X11644680Y8223707D01*
X11629948Y8228279D01*
X11614810Y8231073D01*
X11599468Y8231987D01*
X11584076Y8231073D01*
X11568938Y8228279D01*
X11554256Y8223707D01*
X11540236Y8217357D01*
X11527028Y8209432D01*
X11514937Y8199932D01*
X11504015Y8189010D01*
X11494516Y8176920D01*
X11486591Y8163763D01*
X11480241Y8149691D01*
X11475669Y8135010D01*
X11472926Y8119872D01*
X11471960Y8104479D01*
X11472926Y8089138D01*
X11475669Y8073999D01*
X11480241Y8059267D01*
X11486591Y8045246D01*
X11494516Y8032089D01*
X11504015Y8019948D01*
X11514937Y8009077D01*
X11527028Y7999577D01*
X11540236Y7991602D01*
X11554256Y7985302D01*
X11568938Y7980730D01*
X11584076Y7977936D01*
G37*
G36*
X12263475Y7977530D02*
G01*
X12278817Y7978444D01*
X12293955Y7981238D01*
X12308687Y7985810D01*
X12322708Y7992109D01*
X12335865Y8000085D01*
X12348006Y8009585D01*
X12358878Y8020456D01*
X12368377Y8032597D01*
X12376353Y8045754D01*
X12382652Y8059775D01*
X12387275Y8074507D01*
X12390018Y8089646D01*
X12390932Y8104987D01*
X12390018Y8120380D01*
X12387275Y8135518D01*
X12382652Y8150199D01*
X12376353Y8164271D01*
X12368377Y8177428D01*
X12358878Y8189518D01*
X12348006Y8200440D01*
X12335865Y8209940D01*
X12322708Y8217865D01*
X12308687Y8224215D01*
X12293955Y8228787D01*
X12278817Y8231581D01*
X12263475Y8232495D01*
X12248083Y8231581D01*
X12232944Y8228787D01*
X12218263Y8224215D01*
X12204242Y8217865D01*
X12191034Y8209940D01*
X12178944Y8200440D01*
X12168022Y8189518D01*
X12158522Y8177428D01*
X12150598Y8164271D01*
X12144248Y8150199D01*
X12139676Y8135518D01*
X12136932Y8120380D01*
X12135967Y8104987D01*
X12136932Y8089646D01*
X12139676Y8074507D01*
X12144248Y8059775D01*
X12150598Y8045754D01*
X12158522Y8032597D01*
X12168022Y8020456D01*
X12178944Y8009585D01*
X12191034Y8000085D01*
X12204242Y7992109D01*
X12218263Y7985810D01*
X12232944Y7981238D01*
X12248083Y7978444D01*
G37*
G36*
X11249456Y7978495D02*
G01*
X11264849Y7979409D01*
X11279987Y7982203D01*
X11294668Y7986775D01*
X11308740Y7993125D01*
X11321897Y8001050D01*
X11334038Y8010550D01*
X11344910Y8021472D01*
X11354409Y8033562D01*
X11362385Y8046720D01*
X11368684Y8060791D01*
X11373256Y8075472D01*
X11376050Y8090611D01*
X11376964Y8106003D01*
X11376050Y8121345D01*
X11373256Y8136483D01*
X11368684Y8151215D01*
X11362385Y8165236D01*
X11354409Y8178393D01*
X11344910Y8190534D01*
X11334038Y8201406D01*
X11321897Y8210905D01*
X11308740Y8218881D01*
X11294668Y8225180D01*
X11279987Y8229752D01*
X11264849Y8232546D01*
X11249456Y8233460D01*
X11234115Y8232546D01*
X11218976Y8229752D01*
X11204244Y8225180D01*
X11190224Y8218881D01*
X11177066Y8210905D01*
X11164925Y8201406D01*
X11154054Y8190534D01*
X11144554Y8178393D01*
X11136579Y8165236D01*
X11130280Y8151215D01*
X11125708Y8136483D01*
X11122914Y8121345D01*
X11121999Y8106003D01*
X11122914Y8090611D01*
X11125708Y8075472D01*
X11130280Y8060791D01*
X11136579Y8046720D01*
X11144554Y8033562D01*
X11154054Y8021472D01*
X11164925Y8010550D01*
X11177066Y8001050D01*
X11190224Y7993125D01*
X11204244Y7986775D01*
X11218976Y7982203D01*
X11234115Y7979409D01*
G37*
G36*
X8017764Y8139785D02*
G01*
X8094472Y8139785D01*
X8094472Y8177377D01*
X8093709Y8185403D01*
X8091474Y8192668D01*
X8087918Y8199323D01*
X8083143Y8205165D01*
X8077301Y8209940D01*
X8070646Y8213496D01*
X8063382Y8215731D01*
X8055356Y8216493D01*
X8017764Y8216493D01*
G37*
G36*
X7228890Y8144865D02*
G01*
X7313625Y8144865D01*
X7313625Y8194395D01*
X7314336Y8198154D01*
X7316368Y8201355D01*
X7319467Y8203590D01*
X7323124Y8204555D01*
X7326934Y8204098D01*
X7335977Y8201152D01*
X7352030Y8197900D01*
X7368336Y8196478D01*
X7384745Y8196935D01*
X7400950Y8199272D01*
X7416850Y8203438D01*
X7421321Y8204403D01*
X7425181Y8203590D01*
X7428433Y8201355D01*
X7430566Y8198103D01*
X7431328Y8194243D01*
X7431328Y8144865D01*
X7516063Y8144865D01*
X7516063Y8190484D01*
X7515301Y8198510D01*
X7513116Y8205724D01*
X7509509Y8212429D01*
X7504734Y8218271D01*
X7498892Y8223046D01*
X7492238Y8226602D01*
X7484770Y8228888D01*
X7481214Y8230819D01*
X7478674Y8234019D01*
X7477607Y8237931D01*
X7478166Y8241944D01*
X7480249Y8245449D01*
X7483602Y8249107D01*
X7493253Y8262366D01*
X7501331Y8276640D01*
X7507681Y8291779D01*
X7512303Y8307476D01*
X7515098Y8323630D01*
X7516063Y8340039D01*
X7515098Y8356396D01*
X7512303Y8372551D01*
X7507681Y8388248D01*
X7501331Y8403386D01*
X7493253Y8417661D01*
X7483602Y8430920D01*
X7472527Y8443010D01*
X7460132Y8453729D01*
X7446619Y8462975D01*
X7432090Y8470646D01*
X7416850Y8476589D01*
X7400950Y8480755D01*
X7384745Y8483092D01*
X7368336Y8483549D01*
X7352030Y8482126D01*
X7335977Y8478875D01*
X7320381Y8473846D01*
X7305446Y8467039D01*
X7291425Y8458555D01*
X7278420Y8448548D01*
X7266686Y8437118D01*
X7256272Y8424418D01*
X7247432Y8410651D01*
X7240168Y8395919D01*
X7234681Y8380475D01*
X7230973Y8364524D01*
X7229094Y8348218D01*
X7229094Y8331809D01*
X7230973Y8315553D01*
X7234681Y8299551D01*
X7240168Y8284108D01*
X7247432Y8269427D01*
X7256272Y8255609D01*
X7264958Y8244992D01*
X7266838Y8241487D01*
X7267244Y8237575D01*
X7266076Y8233765D01*
X7263536Y8230717D01*
X7260081Y8228838D01*
X7252716Y8226602D01*
X7246061Y8223046D01*
X7240219Y8218271D01*
X7235393Y8212429D01*
X7231837Y8205724D01*
X7229652Y8198510D01*
X7228890Y8190484D01*
G37*
G36*
X10534091Y8464956D02*
G01*
X10552430Y8466378D01*
X10570514Y8469680D01*
X10588142Y8474811D01*
X10605211Y8481720D01*
X10621416Y8490407D01*
X10636707Y8500668D01*
X10650778Y8512403D01*
X10663631Y8525611D01*
X10675061Y8540038D01*
X10684916Y8555532D01*
X10693146Y8571992D01*
X10699648Y8589162D01*
X10704322Y8606942D01*
X10707116Y8625128D01*
X10708081Y8643518D01*
X10707116Y8661857D01*
X10704322Y8680043D01*
X10699648Y8697823D01*
X10693146Y8714994D01*
X10684916Y8731453D01*
X10675061Y8746998D01*
X10663631Y8761374D01*
X10650778Y8774582D01*
X10636707Y8786317D01*
X10621416Y8796629D01*
X10605211Y8805265D01*
X10588142Y8812174D01*
X10570514Y8817305D01*
X10552430Y8820607D01*
X10534091Y8822029D01*
X10515701Y8821572D01*
X10497464Y8819184D01*
X10479582Y8814968D01*
X10462209Y8808923D01*
X10447426Y8802014D01*
X10443362Y8801049D01*
X10439298Y8801811D01*
X10435844Y8804148D01*
X10433608Y8807653D01*
X10432948Y8811717D01*
X10434015Y8815781D01*
X10439146Y8825992D01*
X10445648Y8843162D01*
X10450322Y8860942D01*
X10453116Y8879128D01*
X10454081Y8897518D01*
X10453116Y8915857D01*
X10450322Y8934043D01*
X10445648Y8951823D01*
X10439146Y8968994D01*
X10430916Y8985453D01*
X10421061Y9000998D01*
X10409631Y9015374D01*
X10396778Y9028582D01*
X10382707Y9040317D01*
X10367416Y9050629D01*
X10351211Y9059265D01*
X10334142Y9066174D01*
X10316514Y9071305D01*
X10298430Y9074607D01*
X10280091Y9076029D01*
X10261701Y9075572D01*
X10243464Y9073184D01*
X10225582Y9068968D01*
X10208209Y9062923D01*
X10191546Y9055150D01*
X10175798Y9045651D01*
X10161066Y9034627D01*
X10147604Y9022130D01*
X10135463Y9008313D01*
X10124795Y8993327D01*
X10115753Y8977325D01*
X10108387Y8960510D01*
X10102799Y8942984D01*
X10099040Y8925001D01*
X10097109Y8906713D01*
X10097109Y8888323D01*
X10099040Y8870035D01*
X10102799Y8852001D01*
X10108387Y8834475D01*
X10115753Y8817660D01*
X10124795Y8801658D01*
X10135463Y8786672D01*
X10147604Y8772855D01*
X10161066Y8760358D01*
X10175798Y8749334D01*
X10191546Y8739835D01*
X10208209Y8732062D01*
X10225582Y8726017D01*
X10243464Y8721801D01*
X10261701Y8719413D01*
X10280091Y8718956D01*
X10298430Y8720378D01*
X10316514Y8723680D01*
X10334142Y8728811D01*
X10351211Y8735720D01*
X10356951Y8738819D01*
X10361117Y8739987D01*
X10365435Y8739327D01*
X10369042Y8736939D01*
X10371328Y8733282D01*
X10371886Y8728964D01*
X10370566Y8724849D01*
X10362387Y8706510D01*
X10356799Y8688984D01*
X10353040Y8671001D01*
X10351109Y8652713D01*
X10351109Y8634323D01*
X10353040Y8616035D01*
X10356799Y8598001D01*
X10362387Y8580475D01*
X10369753Y8563660D01*
X10378795Y8547658D01*
X10389463Y8532672D01*
X10401604Y8518855D01*
X10415066Y8506358D01*
X10429798Y8495334D01*
X10445546Y8485835D01*
X10462209Y8478062D01*
X10479582Y8472017D01*
X10497464Y8467801D01*
X10515701Y8465413D01*
G37*
G36*
X11550091Y8464956D02*
G01*
X11568430Y8466378D01*
X11586514Y8469680D01*
X11604142Y8474811D01*
X11621211Y8481720D01*
X11637416Y8490407D01*
X11652707Y8500668D01*
X11666778Y8512403D01*
X11679631Y8525611D01*
X11691061Y8540038D01*
X11700916Y8555532D01*
X11709146Y8571992D01*
X11715648Y8589162D01*
X11720322Y8606942D01*
X11723116Y8625128D01*
X11724081Y8643518D01*
X11723116Y8661857D01*
X11720322Y8680043D01*
X11715648Y8697823D01*
X11709146Y8714994D01*
X11704015Y8725255D01*
X11702948Y8729268D01*
X11703608Y8733383D01*
X11705844Y8736888D01*
X11709298Y8739174D01*
X11713362Y8739936D01*
X11717426Y8738971D01*
X11732209Y8732062D01*
X11749582Y8726017D01*
X11767464Y8721801D01*
X11785701Y8719413D01*
X11804091Y8718956D01*
X11822430Y8720378D01*
X11840514Y8723680D01*
X11858142Y8728811D01*
X11875211Y8735720D01*
X11891416Y8744407D01*
X11906707Y8754668D01*
X11920778Y8766403D01*
X11933631Y8779611D01*
X11945061Y8794038D01*
X11954916Y8809532D01*
X11963146Y8825992D01*
X11969648Y8843162D01*
X11974322Y8860942D01*
X11977116Y8879128D01*
X11978081Y8897518D01*
X11977116Y8915857D01*
X11974322Y8934043D01*
X11969648Y8951823D01*
X11963146Y8968994D01*
X11954916Y8985453D01*
X11945061Y9000998D01*
X11933631Y9015374D01*
X11920778Y9028582D01*
X11906707Y9040317D01*
X11891416Y9050629D01*
X11875211Y9059265D01*
X11858142Y9066174D01*
X11840514Y9071305D01*
X11822430Y9074607D01*
X11804091Y9076029D01*
X11785701Y9075572D01*
X11767464Y9073184D01*
X11749582Y9068968D01*
X11732209Y9062923D01*
X11715546Y9055150D01*
X11699798Y9045651D01*
X11685066Y9034627D01*
X11671604Y9022130D01*
X11659463Y9008313D01*
X11648795Y8993327D01*
X11639753Y8977325D01*
X11632387Y8960510D01*
X11626799Y8942984D01*
X11623040Y8925001D01*
X11621109Y8906713D01*
X11621109Y8888323D01*
X11623040Y8870035D01*
X11626799Y8852001D01*
X11632387Y8834475D01*
X11640566Y8816136D01*
X11641886Y8812022D01*
X11641328Y8807704D01*
X11639042Y8804046D01*
X11635435Y8801658D01*
X11631117Y8800998D01*
X11626951Y8802166D01*
X11621211Y8805265D01*
X11604142Y8812174D01*
X11586514Y8817305D01*
X11568430Y8820607D01*
X11550091Y8822029D01*
X11531701Y8821572D01*
X11513464Y8819184D01*
X11495582Y8814968D01*
X11478209Y8808923D01*
X11461546Y8801150D01*
X11445798Y8791651D01*
X11431066Y8780627D01*
X11417604Y8768130D01*
X11405463Y8754313D01*
X11394795Y8739327D01*
X11385753Y8723325D01*
X11378387Y8706510D01*
X11372799Y8688984D01*
X11369040Y8671001D01*
X11367109Y8652713D01*
X11367109Y8634323D01*
X11369040Y8616035D01*
X11372799Y8598001D01*
X11378387Y8580475D01*
X11385753Y8563660D01*
X11394795Y8547658D01*
X11405463Y8532672D01*
X11417604Y8518855D01*
X11431066Y8506358D01*
X11445798Y8495334D01*
X11461546Y8485835D01*
X11478209Y8478062D01*
X11495582Y8472017D01*
X11513464Y8467801D01*
X11531701Y8465413D01*
G37*
G36*
X9532569Y8464956D02*
G01*
X9550908Y8466378D01*
X9568992Y8469680D01*
X9586671Y8474811D01*
X9603689Y8481771D01*
X9619945Y8490407D01*
X9635185Y8500668D01*
X9649307Y8512454D01*
X9662160Y8525611D01*
X9673539Y8540038D01*
X9683394Y8555532D01*
X9691624Y8571992D01*
X9698126Y8589213D01*
X9702800Y8606993D01*
X9705644Y8625128D01*
X9706559Y8643518D01*
X9705644Y8661857D01*
X9702800Y8680043D01*
X9698126Y8697823D01*
X9691624Y8715044D01*
X9686544Y8725255D01*
X9685477Y8729268D01*
X9686086Y8733383D01*
X9688322Y8736888D01*
X9691776Y8739174D01*
X9695891Y8739936D01*
X9699904Y8738971D01*
X9714687Y8732062D01*
X9732060Y8726017D01*
X9749993Y8721801D01*
X9768179Y8719464D01*
X9786569Y8718956D01*
X9804908Y8720378D01*
X9822992Y8723680D01*
X9840671Y8728811D01*
X9857689Y8735771D01*
X9873945Y8744407D01*
X9889185Y8754668D01*
X9903307Y8766454D01*
X9916160Y8779611D01*
X9927539Y8794038D01*
X9937394Y8809532D01*
X9945624Y8825992D01*
X9952126Y8843213D01*
X9956800Y8860993D01*
X9959644Y8879128D01*
X9960559Y8897518D01*
X9959644Y8915857D01*
X9956800Y8934043D01*
X9952126Y8951823D01*
X9945624Y8969044D01*
X9937394Y8985453D01*
X9927539Y9000998D01*
X9916160Y9015425D01*
X9903307Y9028582D01*
X9889185Y9040368D01*
X9873945Y9050629D01*
X9857689Y9059265D01*
X9840671Y9066174D01*
X9822992Y9071305D01*
X9804908Y9074607D01*
X9786569Y9076029D01*
X9768179Y9075572D01*
X9749993Y9073184D01*
X9732060Y9068968D01*
X9714687Y9062923D01*
X9698075Y9055150D01*
X9682276Y9045702D01*
X9667595Y9034627D01*
X9654082Y9022130D01*
X9641941Y9008364D01*
X9631273Y8993378D01*
X9622231Y8977376D01*
X9614865Y8960510D01*
X9609277Y8942984D01*
X9605518Y8925001D01*
X9603638Y8906713D01*
X9603638Y8888323D01*
X9605518Y8870035D01*
X9609277Y8852001D01*
X9614865Y8834526D01*
X9622231Y8817660D01*
X9623094Y8816136D01*
X9624364Y8812022D01*
X9623806Y8807754D01*
X9621520Y8804046D01*
X9617913Y8801658D01*
X9613646Y8800998D01*
X9609480Y8802166D01*
X9603689Y8805265D01*
X9586671Y8812174D01*
X9568992Y8817305D01*
X9550908Y8820607D01*
X9532569Y8822029D01*
X9514179Y8821572D01*
X9495993Y8819184D01*
X9478060Y8814968D01*
X9460687Y8808923D01*
X9444075Y8801150D01*
X9428276Y8791702D01*
X9413595Y8780627D01*
X9400082Y8768130D01*
X9387941Y8754364D01*
X9377273Y8739378D01*
X9368231Y8723376D01*
X9360865Y8706510D01*
X9355277Y8688984D01*
X9351518Y8671001D01*
X9349638Y8652713D01*
X9349638Y8634323D01*
X9351518Y8616035D01*
X9355277Y8598001D01*
X9360865Y8580526D01*
X9368231Y8563660D01*
X9377273Y8547658D01*
X9387941Y8532672D01*
X9400082Y8518855D01*
X9413595Y8506358D01*
X9428276Y8495334D01*
X9444075Y8485886D01*
X9460687Y8478062D01*
X9478060Y8472017D01*
X9495993Y8467801D01*
X9514179Y8465464D01*
G37*
G36*
X8516569Y8464956D02*
G01*
X8534908Y8466378D01*
X8552992Y8469680D01*
X8570671Y8474811D01*
X8587689Y8481771D01*
X8603945Y8490407D01*
X8619185Y8500668D01*
X8633307Y8512454D01*
X8646160Y8525611D01*
X8657539Y8540038D01*
X8667394Y8555532D01*
X8675624Y8571992D01*
X8682126Y8589213D01*
X8686800Y8606993D01*
X8689644Y8625128D01*
X8690559Y8643518D01*
X8689644Y8661857D01*
X8686800Y8680043D01*
X8682126Y8697823D01*
X8675624Y8715044D01*
X8667394Y8731453D01*
X8657539Y8746998D01*
X8646160Y8761425D01*
X8633307Y8774582D01*
X8619185Y8786368D01*
X8603945Y8796629D01*
X8587689Y8805265D01*
X8570671Y8812174D01*
X8552992Y8817305D01*
X8534908Y8820607D01*
X8516569Y8822029D01*
X8498179Y8821572D01*
X8479993Y8819184D01*
X8462060Y8814968D01*
X8444687Y8808923D01*
X8429904Y8802014D01*
X8425891Y8801049D01*
X8421776Y8801811D01*
X8418322Y8804148D01*
X8416086Y8807653D01*
X8415477Y8811768D01*
X8416544Y8815781D01*
X8421624Y8825992D01*
X8428126Y8843213D01*
X8432800Y8860993D01*
X8435644Y8879128D01*
X8436559Y8897518D01*
X8435644Y8915857D01*
X8432800Y8934043D01*
X8428126Y8951823D01*
X8421624Y8969044D01*
X8413394Y8985453D01*
X8403539Y9000998D01*
X8392160Y9015425D01*
X8379307Y9028582D01*
X8365185Y9040368D01*
X8349945Y9050629D01*
X8333689Y9059265D01*
X8316671Y9066174D01*
X8298992Y9071305D01*
X8280908Y9074607D01*
X8262569Y9076029D01*
X8244179Y9075572D01*
X8225993Y9073184D01*
X8208060Y9068968D01*
X8190687Y9062923D01*
X8174075Y9055150D01*
X8158276Y9045702D01*
X8143595Y9034627D01*
X8130082Y9022130D01*
X8117941Y9008364D01*
X8107273Y8993378D01*
X8098231Y8977376D01*
X8090865Y8960510D01*
X8085277Y8942984D01*
X8081518Y8925001D01*
X8079638Y8906713D01*
X8079638Y8888323D01*
X8081518Y8870035D01*
X8085277Y8852001D01*
X8090865Y8834526D01*
X8098231Y8817660D01*
X8107273Y8801658D01*
X8117941Y8786672D01*
X8130082Y8772855D01*
X8143595Y8760358D01*
X8158276Y8749334D01*
X8174075Y8739886D01*
X8190687Y8732062D01*
X8208060Y8726017D01*
X8225993Y8721801D01*
X8244179Y8719464D01*
X8262569Y8718956D01*
X8280908Y8720378D01*
X8298992Y8723680D01*
X8316671Y8728811D01*
X8333689Y8735771D01*
X8339480Y8738819D01*
X8343646Y8739987D01*
X8347913Y8739327D01*
X8351520Y8736939D01*
X8353806Y8733282D01*
X8354364Y8728964D01*
X8353094Y8724849D01*
X8352231Y8723376D01*
X8344865Y8706510D01*
X8339277Y8688984D01*
X8335518Y8671001D01*
X8333638Y8652713D01*
X8333638Y8634323D01*
X8335518Y8616035D01*
X8339277Y8598001D01*
X8344865Y8580526D01*
X8352231Y8563660D01*
X8361273Y8547658D01*
X8371941Y8532672D01*
X8384082Y8518855D01*
X8397595Y8506358D01*
X8412276Y8495334D01*
X8428075Y8485886D01*
X8444687Y8478062D01*
X8462060Y8472017D01*
X8479993Y8467801D01*
X8498179Y8465464D01*
G37*
G36*
X6233972Y8687866D02*
G01*
X6722973Y8687866D01*
X6731000Y8688679D01*
X6738264Y8690864D01*
X6744919Y8694420D01*
X6750761Y8699246D01*
X6755536Y8705088D01*
X6759143Y8711742D01*
X6761327Y8718956D01*
X6762089Y8726982D01*
X6762089Y8871000D01*
X6761327Y8879027D01*
X6759143Y8886240D01*
X6755536Y8892895D01*
X6750761Y8898737D01*
X6744919Y8903563D01*
X6738264Y8907119D01*
X6731000Y8909304D01*
X6722973Y8910116D01*
X6663740Y8910116D01*
X6660083Y8910777D01*
X6656933Y8912707D01*
X6654698Y8915603D01*
X6653631Y8919159D01*
X6657187Y8942730D01*
X6658152Y8961120D01*
X6657187Y8979458D01*
X6654393Y8997645D01*
X6649669Y9015425D01*
X6643217Y9032646D01*
X6634988Y9049054D01*
X6625132Y9064599D01*
X6613702Y9079026D01*
X6600850Y9092184D01*
X6586728Y9103969D01*
X6571488Y9114231D01*
X6555282Y9122867D01*
X6538214Y9129776D01*
X6520586Y9134906D01*
X6502501Y9138208D01*
X6484162Y9139631D01*
X6465773Y9139174D01*
X6447536Y9136786D01*
X6429654Y9132570D01*
X6412280Y9126524D01*
X6395618Y9118752D01*
X6379870Y9109303D01*
X6365138Y9098229D01*
X6351625Y9085732D01*
X6339535Y9071965D01*
X6328867Y9056979D01*
X6319824Y9040977D01*
X6312458Y9024112D01*
X6306820Y9006586D01*
X6303060Y8988602D01*
X6301181Y8970314D01*
X6301181Y8951925D01*
X6303060Y8933637D01*
X6305448Y8922359D01*
X6305346Y8917838D01*
X6303365Y8913825D01*
X6299860Y8911082D01*
X6295491Y8910116D01*
X6233972Y8910116D01*
X6225997Y8909304D01*
X6218732Y8907119D01*
X6212078Y8903563D01*
X6206236Y8898737D01*
X6201410Y8892895D01*
X6197854Y8886240D01*
X6195669Y8879027D01*
X6194907Y8871000D01*
X6194907Y8726982D01*
X6195669Y8718956D01*
X6197854Y8711742D01*
X6201410Y8705088D01*
X6206236Y8699246D01*
X6212078Y8694420D01*
X6218732Y8690864D01*
X6225997Y8688679D01*
G37*
G36*
X8880500Y8718854D02*
G01*
X8943644Y8718854D01*
X8943644Y8821115D01*
X8841384Y8821115D01*
X8841384Y8757970D01*
X8842197Y8749944D01*
X8844381Y8742730D01*
X8847937Y8736076D01*
X8852712Y8730183D01*
X8858554Y8725408D01*
X8865260Y8721852D01*
X8872474Y8719667D01*
G37*
G36*
X9096349Y8718854D02*
G01*
X9159494Y8718854D01*
X9167520Y8719667D01*
X9174734Y8721852D01*
X9181439Y8725408D01*
X9187281Y8730183D01*
X9192056Y8736076D01*
X9195612Y8742730D01*
X9197797Y8749944D01*
X9198610Y8757970D01*
X9198610Y8821115D01*
X9096349Y8821115D01*
G37*
G36*
X11042091Y8718956D02*
G01*
X11060430Y8720378D01*
X11078514Y8723680D01*
X11096142Y8728811D01*
X11113211Y8735720D01*
X11129416Y8744407D01*
X11144707Y8754668D01*
X11158778Y8766403D01*
X11171631Y8779611D01*
X11183061Y8794038D01*
X11192916Y8809532D01*
X11201146Y8825992D01*
X11207648Y8843162D01*
X11212322Y8860942D01*
X11215116Y8879128D01*
X11216081Y8897518D01*
X11215116Y8915857D01*
X11212322Y8934043D01*
X11207648Y8951823D01*
X11201146Y8968994D01*
X11192916Y8985453D01*
X11183061Y9000998D01*
X11171631Y9015374D01*
X11158778Y9028582D01*
X11144707Y9040317D01*
X11129416Y9050629D01*
X11113211Y9059265D01*
X11096142Y9066174D01*
X11078514Y9071305D01*
X11060430Y9074607D01*
X11042091Y9076029D01*
X11023701Y9075572D01*
X11005464Y9073184D01*
X10987582Y9068968D01*
X10970209Y9062923D01*
X10953546Y9055150D01*
X10937798Y9045651D01*
X10923066Y9034627D01*
X10909604Y9022130D01*
X10897463Y9008313D01*
X10886795Y8993327D01*
X10877753Y8977325D01*
X10870387Y8960510D01*
X10864799Y8942984D01*
X10861040Y8925001D01*
X10859109Y8906713D01*
X10859109Y8888323D01*
X10861040Y8870035D01*
X10864799Y8852001D01*
X10870387Y8834475D01*
X10877753Y8817660D01*
X10886795Y8801658D01*
X10897463Y8786672D01*
X10909604Y8772855D01*
X10923066Y8760358D01*
X10937798Y8749334D01*
X10953546Y8739835D01*
X10970209Y8732062D01*
X10987582Y8726017D01*
X11005464Y8721801D01*
X11023701Y8719413D01*
G37*
G36*
X7004303Y8811361D02*
G01*
X7039965Y8811361D01*
X7047992Y8812174D01*
X7055205Y8814358D01*
X7061911Y8817914D01*
X7067753Y8822690D01*
X7072528Y8828532D01*
X7076084Y8835237D01*
X7078268Y8842451D01*
X7079081Y8850477D01*
X7079081Y8948623D01*
X7004303Y8948623D01*
G37*
G36*
X6870953Y8811361D02*
G01*
X6906615Y8811361D01*
X6906615Y8948623D01*
X6831838Y8948623D01*
X6831838Y8850477D01*
X6832650Y8842451D01*
X6834835Y8835237D01*
X6838391Y8828532D01*
X6843217Y8822690D01*
X6849059Y8817914D01*
X6855714Y8814358D01*
X6862927Y8812174D01*
G37*
G36*
X8841384Y8973820D02*
G01*
X8943644Y8973820D01*
X8943644Y9076080D01*
X8880500Y9076080D01*
X8872474Y9075267D01*
X8865260Y9073083D01*
X8858554Y9069527D01*
X8852712Y9064752D01*
X8847937Y9058910D01*
X8844381Y9052204D01*
X8842197Y9044990D01*
X8841384Y9036964D01*
G37*
G36*
X9096349Y8973820D02*
G01*
X9198610Y8973820D01*
X9198610Y9036964D01*
X9197797Y9044990D01*
X9195612Y9052204D01*
X9192056Y9058910D01*
X9187281Y9064752D01*
X9181439Y9069527D01*
X9174734Y9073083D01*
X9167520Y9075267D01*
X9159494Y9076080D01*
X9096349Y9076080D01*
G37*
G36*
X7004303Y9171330D02*
G01*
X7079081Y9171330D01*
X7079081Y9269476D01*
X7078268Y9277502D01*
X7076084Y9284716D01*
X7072528Y9291421D01*
X7067753Y9297263D01*
X7061911Y9302038D01*
X7055205Y9305594D01*
X7047992Y9307779D01*
X7039965Y9308592D01*
X7004303Y9308592D01*
G37*
G36*
X6831838Y9171330D02*
G01*
X6906615Y9171330D01*
X6906615Y9308592D01*
X6870953Y9308592D01*
X6862927Y9307779D01*
X6855714Y9305594D01*
X6849059Y9302038D01*
X6843217Y9297263D01*
X6838391Y9291421D01*
X6834835Y9284716D01*
X6832650Y9277502D01*
X6831838Y9269476D01*
G37*
G36*
X6594856Y9287865D02*
G01*
X6695490Y9287865D01*
X6703517Y9288678D01*
X6710730Y9290862D01*
X6717436Y9294418D01*
X6723278Y9299244D01*
X6728053Y9305086D01*
X6731609Y9311741D01*
X6733794Y9318955D01*
X6734606Y9326981D01*
X6734606Y9365132D01*
X6594856Y9365132D01*
G37*
G36*
X6266484Y9287865D02*
G01*
X6367170Y9287865D01*
X6367170Y9365132D01*
X6227368Y9365132D01*
X6227368Y9326981D01*
X6228181Y9318955D01*
X6230366Y9311741D01*
X6233922Y9305086D01*
X6238748Y9299244D01*
X6244590Y9294418D01*
X6251244Y9290862D01*
X6258458Y9288678D01*
G37*
G36*
X6906463Y9401352D02*
G01*
X6937095Y9401352D01*
X6937095Y9518650D01*
X6867347Y9518650D01*
X6867347Y9440468D01*
X6868159Y9432442D01*
X6870344Y9425228D01*
X6873900Y9418574D01*
X6878726Y9412732D01*
X6884568Y9407906D01*
X6891223Y9404350D01*
X6898436Y9402165D01*
G37*
G36*
X6037326Y9401352D02*
G01*
X6080455Y9401352D01*
X6088481Y9402165D01*
X6095746Y9404350D01*
X6102400Y9407906D01*
X6108242Y9412732D01*
X6113018Y9418574D01*
X6116574Y9425228D01*
X6118809Y9432442D01*
X6119571Y9440468D01*
X6119571Y9518650D01*
X6037326Y9518650D01*
G37*
G36*
X5881471Y9401352D02*
G01*
X5924600Y9401352D01*
X5924600Y9518650D01*
X5842355Y9518650D01*
X5842355Y9440468D01*
X5843168Y9432442D01*
X5845352Y9425228D01*
X5848908Y9418574D01*
X5853684Y9412732D01*
X5859526Y9407906D01*
X5866231Y9404350D01*
X5873445Y9402165D01*
G37*
G36*
X6594856Y9467850D02*
G01*
X6734606Y9467850D01*
X6734606Y9493656D01*
X6594856Y9493656D01*
G37*
G36*
X6227368Y9467850D02*
G01*
X6367119Y9467850D01*
X6367119Y9493656D01*
X6227368Y9493656D01*
G37*
G36*
X12346838Y9484969D02*
G01*
X12366244Y9486341D01*
X12385395Y9489643D01*
X12404140Y9494723D01*
X12422276Y9501632D01*
X12439700Y9510217D01*
X12456210Y9520478D01*
X12471654Y9532264D01*
X12485878Y9545523D01*
X12498781Y9560052D01*
X12510211Y9575800D01*
X12520066Y9592513D01*
X12528245Y9610140D01*
X12534696Y9628479D01*
X12539319Y9647326D01*
X12542164Y9666579D01*
X12543078Y9685985D01*
X12542164Y9705390D01*
X12539319Y9724644D01*
X12534696Y9743490D01*
X12528245Y9761829D01*
X12520066Y9779457D01*
X12510211Y9796170D01*
X12498781Y9811918D01*
X12485878Y9826447D01*
X12471654Y9839706D01*
X12456210Y9851491D01*
X12439700Y9861753D01*
X12422276Y9870338D01*
X12404140Y9877247D01*
X12385395Y9882327D01*
X12366244Y9885629D01*
X12346838Y9887000D01*
X12327432Y9886543D01*
X12308128Y9884206D01*
X12289180Y9880041D01*
X12270689Y9873996D01*
X12252858Y9866274D01*
X12235891Y9856825D01*
X12219889Y9845751D01*
X12205055Y9833254D01*
X12191441Y9819335D01*
X12179300Y9804196D01*
X12168632Y9787940D01*
X12159640Y9770719D01*
X12152274Y9752736D01*
X12146737Y9734092D01*
X12142978Y9715042D01*
X12141149Y9695688D01*
X12141149Y9676282D01*
X12142978Y9656927D01*
X12146737Y9637877D01*
X12152274Y9619234D01*
X12159640Y9601250D01*
X12168632Y9584029D01*
X12179300Y9567773D01*
X12191441Y9552635D01*
X12205055Y9538716D01*
X12219889Y9526219D01*
X12235891Y9515144D01*
X12252858Y9505696D01*
X12270689Y9497974D01*
X12289180Y9491929D01*
X12308128Y9487763D01*
X12327432Y9485426D01*
G37*
G36*
X5561838Y9484969D02*
G01*
X5581243Y9486341D01*
X5600395Y9489643D01*
X5619140Y9494723D01*
X5637276Y9501632D01*
X5654700Y9510217D01*
X5671210Y9520478D01*
X5686653Y9532264D01*
X5700877Y9545523D01*
X5713780Y9560052D01*
X5725210Y9575800D01*
X5735066Y9592513D01*
X5743244Y9610140D01*
X5749696Y9628479D01*
X5754319Y9647326D01*
X5757164Y9666579D01*
X5758078Y9685985D01*
X5757164Y9705390D01*
X5754319Y9724644D01*
X5749696Y9743490D01*
X5743244Y9761829D01*
X5735066Y9779457D01*
X5725210Y9796170D01*
X5713780Y9811918D01*
X5700877Y9826447D01*
X5686653Y9839706D01*
X5671210Y9851491D01*
X5654700Y9861753D01*
X5637276Y9870338D01*
X5619140Y9877247D01*
X5600395Y9882327D01*
X5581243Y9885629D01*
X5561838Y9887000D01*
X5542432Y9886543D01*
X5523128Y9884206D01*
X5504180Y9880041D01*
X5485688Y9873996D01*
X5467858Y9866274D01*
X5450890Y9856825D01*
X5434888Y9845751D01*
X5420055Y9833254D01*
X5406440Y9819335D01*
X5394299Y9804196D01*
X5383631Y9787940D01*
X5374640Y9770719D01*
X5367274Y9752736D01*
X5361736Y9734092D01*
X5357977Y9715042D01*
X5356148Y9695688D01*
X5356148Y9676282D01*
X5357977Y9656927D01*
X5361736Y9637877D01*
X5367274Y9619234D01*
X5374640Y9601250D01*
X5383631Y9584029D01*
X5394299Y9567773D01*
X5406440Y9552635D01*
X5420055Y9538716D01*
X5434888Y9526219D01*
X5450890Y9515144D01*
X5467858Y9505696D01*
X5485688Y9497974D01*
X5504180Y9491929D01*
X5523128Y9487763D01*
X5542432Y9485426D01*
G37*
G36*
X6227368Y9626346D02*
G01*
X6367119Y9626346D01*
X6367119Y9718598D01*
X6266484Y9718598D01*
X6258458Y9717786D01*
X6251194Y9715601D01*
X6244539Y9712045D01*
X6238697Y9707270D01*
X6233922Y9701428D01*
X6230366Y9694722D01*
X6228130Y9687509D01*
X6227368Y9679482D01*
G37*
G36*
X6594805Y9626346D02*
G01*
X6734556Y9626346D01*
X6734556Y9679482D01*
X6733794Y9687509D01*
X6731609Y9694722D01*
X6728053Y9701428D01*
X6723227Y9707270D01*
X6717385Y9712045D01*
X6710730Y9715601D01*
X6703517Y9717786D01*
X6695490Y9718598D01*
X6594805Y9718598D01*
G37*
G36*
X6867347Y9701326D02*
G01*
X6937095Y9701326D01*
X6937095Y9818573D01*
X6906463Y9818573D01*
X6898436Y9817811D01*
X6891223Y9815626D01*
X6884568Y9812020D01*
X6878726Y9807244D01*
X6873900Y9801402D01*
X6870344Y9794748D01*
X6868159Y9787483D01*
X6867347Y9779508D01*
G37*
G36*
X5842355Y9701326D02*
G01*
X5924600Y9701326D01*
X5924600Y9818573D01*
X5881471Y9818573D01*
X5873445Y9817811D01*
X5866231Y9815626D01*
X5859526Y9812020D01*
X5853684Y9807244D01*
X5848908Y9801402D01*
X5845352Y9794748D01*
X5843168Y9787483D01*
X5842355Y9779508D01*
G37*
G36*
X6037326Y9701326D02*
G01*
X6119571Y9701326D01*
X6119571Y9779508D01*
X6118809Y9787483D01*
X6116574Y9794748D01*
X6113018Y9801402D01*
X6108242Y9807244D01*
X6102400Y9812020D01*
X6095746Y9815626D01*
X6088481Y9817811D01*
X6080455Y9818573D01*
X6037326Y9818573D01*
G37*
G36*
X6477203Y9762439D02*
G01*
X6492392Y9762947D01*
X6507429Y9765233D01*
X6522059Y9769398D01*
X6536080Y9775342D01*
X6549237Y9782962D01*
X6561378Y9792106D01*
X6572300Y9802723D01*
X6581851Y9814560D01*
X6589877Y9827514D01*
X6596227Y9841331D01*
X6600850Y9855860D01*
X6603644Y9870795D01*
X6604558Y9885984D01*
X6603644Y9901174D01*
X6600850Y9916109D01*
X6596227Y9930638D01*
X6589877Y9944455D01*
X6581851Y9957409D01*
X6572300Y9969246D01*
X6561378Y9979863D01*
X6549237Y9989007D01*
X6536080Y9996627D01*
X6522059Y10002570D01*
X6507429Y10006736D01*
X6492392Y10009022D01*
X6477203Y10009530D01*
X6462014Y10008108D01*
X6447180Y10004856D01*
X6432804Y9999776D01*
X6419189Y9993020D01*
X6406489Y9984587D01*
X6394958Y9974732D01*
X6384696Y9963454D01*
X6375908Y9951059D01*
X6368694Y9937648D01*
X6363208Y9923475D01*
X6359499Y9908692D01*
X6357620Y9893604D01*
X6357620Y9878364D01*
X6359499Y9863277D01*
X6363208Y9848494D01*
X6368694Y9834321D01*
X6375908Y9820910D01*
X6384696Y9808514D01*
X6394958Y9797237D01*
X6406489Y9787382D01*
X6419189Y9778949D01*
X6432804Y9772192D01*
X6447180Y9767112D01*
X6462014Y9763861D01*
G37*

%LPD*%
G36*
X10287000Y10160000D02*
G01*
X10287000Y9525000D01*
X11810949Y9525000D01*
X11810949Y10160000D01*
G37*
G36*
X8255000Y10160000D02*
G01*
X8255000Y9525000D01*
X9779000Y9525000D01*
X9779000Y10160000D01*
G37*
G36*
X5715000Y7556500D02*
G01*
X5163515Y7555992D01*
X5161991Y7322007D01*
X5715000Y7319975D01*
G37*
G36*
X5715000Y6540500D02*
G01*
X5163515Y6539992D01*
X5161991Y6306007D01*
X5715000Y6303975D01*
G37*
D10*
X12763500Y5207000D02*
G01*
X9080500Y5207000D01*
X5132064Y5207000D01*
D11*
G01*
X7810500Y6096000D03*
G01*
X8064500Y6096000D03*
G01*
X8318500Y6096000D03*
G01*
X8572500Y6096000D03*
G01*
X8826500Y6096000D03*
D12*
G01*
X7810500Y7620000D03*
D11*
G01*
X8572500Y7620000D03*
G01*
X8318500Y7620000D03*
G01*
X8826500Y7620000D03*
G01*
X9080474Y7619974D03*
D12*
G01*
X9334500Y7620000D03*
G01*
X9588500Y7620000D03*
D11*
G01*
X9842500Y7620000D03*
G01*
X10096500Y7620000D03*
D13*
G01*
X10350500Y7620000D03*
D11*
G01*
X10604500Y7620000D03*
G01*
X9080500Y6096000D03*
D14*
G01*
X10096500Y6096000D03*
D11*
G01*
X10604500Y6096000D03*
G01*
X11245977Y7350480D03*
G01*
X11249482Y8105978D03*
D15*
G01*
X9019997Y8897467D03*
D16*
G01*
X8257997Y8897493D03*
G01*
X9781997Y8897493D03*
G01*
X9527997Y8643493D03*
G01*
X8511997Y8643493D03*
G01*
X10275493Y8897493D03*
G01*
X11037493Y8897493D03*
G01*
X11799493Y8897493D03*
G01*
X11545493Y8643493D03*
G01*
X10529493Y8643493D03*
D17*
G01*
X8511997Y9842372D03*
G01*
X9527997Y9842372D03*
D12*
G01*
X8064500Y7620000D03*
D17*
G01*
X10529646Y9842627D03*
G01*
X11545646Y9842627D03*
G01*
X11291493Y9842093D03*
G01*
X10783493Y9842093D03*
G01*
X8766403Y9843465D03*
G01*
X9274403Y9843465D03*
D18*
G01*
X5980988Y9609988D03*
D19*
G01*
X6980986Y9609988D03*
D20*
G01*
X6480962Y9559975D03*
D16*
G01*
X6479590Y8961094D03*
D21*
G01*
X7372477Y7831988D03*
D11*
G01*
X11594972Y7348473D03*
G01*
X11599468Y8104479D03*
G01*
X11909958Y7345476D03*
G01*
X11916968Y8104479D03*
G01*
X12257963Y7342479D03*
G01*
X12263475Y8104987D03*
D22*
G01*
X7372477Y8085988D03*
D21*
G01*
X7372477Y8339988D03*
D11*
G01*
X7712963Y8088960D03*
D13*
G01*
X7966963Y8088985D03*
D23*
G01*
X7846491Y9012478D03*
G01*
X7276490Y9012478D03*
G01*
X7899476Y9816972D03*
D24*
G01*
X7214488Y9816972D03*
D11*
G01*
X9461500Y7366000D03*
G01*
X9715474Y7365974D03*
G01*
X8503996Y8027492D03*
G01*
X9265996Y8027492D03*
G01*
X10547477Y8036483D03*
G01*
X9785477Y8036483D03*
D25*
G01*
X6480987Y9416491D03*
D26*
G01*
X6478498Y8798991D03*
D27*
G01*
X6955485Y9059976D03*
D13*
G01*
X11159464Y6476974D03*
D11*
G01*
X11159490Y6730949D03*
G01*
X12260478Y6232982D03*
G01*
X12260478Y6486982D03*
G01*
X12260478Y6740982D03*
G01*
X12260478Y6994982D03*
D13*
G01*
X11498478Y6232982D03*
D11*
G01*
X11498478Y6486982D03*
G01*
X11498478Y6740982D03*
G01*
X11498478Y6994982D03*
G01*
X11493474Y5714974D03*
D13*
G01*
X9716490Y5713984D03*
G01*
X9462490Y5713984D03*
D14*
G01*
X9208490Y5713958D03*
D11*
G01*
X11239474Y5714974D03*
D13*
G01*
X7476464Y6731000D03*
D11*
G01*
X7476490Y6476974D03*
D14*
G01*
X10350500Y6096000D03*
D11*
G01*
X6921474Y5714974D03*
G01*
X7175474Y5714974D03*
G01*
X7429474Y5714974D03*
G01*
X7683474Y5714974D03*
G01*
X7937474Y5714974D03*
G01*
X8191474Y5714974D03*
G01*
X8445474Y5714974D03*
G01*
X8699474Y5714974D03*
G01*
X8953474Y5714974D03*
G01*
X9842474Y6095974D03*
G01*
X9588474Y6095974D03*
G01*
X9334474Y6095974D03*
G01*
X7154951Y6196964D03*
G01*
X7154951Y6450964D03*
G01*
X7154951Y6704939D03*
G01*
X7154951Y6958939D03*
G01*
X6392976Y6196964D03*
G01*
X6392976Y6450964D03*
G01*
X6392976Y6704939D03*
D13*
G01*
X6392951Y6958964D03*
D21*
G01*
X5594502Y7439482D03*
D22*
G01*
X5594502Y6423482D03*
D13*
G01*
X7476997Y7450988D03*
D11*
G01*
X7222997Y7450988D03*
D28*
G01*
X7564983Y8919489D03*
D11*
G01*
X12300737Y8636990D03*
G01*
X12554737Y8636990D03*
G01*
X12554737Y8890990D03*
G01*
X12300737Y8890990D03*
G01*
X10985474Y5714974D03*
D13*
G01*
X9969474Y5714974D03*
G01*
X10223474Y5714974D03*
D11*
G01*
X10477474Y5714974D03*
G01*
X10731474Y5714974D03*
G01*
X12301702Y9144965D03*
G01*
X12555702Y9144965D03*
M02*
