G04 Layer: BottomSilkscreenLayer*
G04 EasyEDA v6.5.50, 2025-04-22 20:35:32*
G04 2447ad7b923c4463a7a2b320b029b0bb,035c650733ab4bc79dd6698c18aa45da,10*
G04 Gerber Generator version 0.2*
G04 Scale: 100 percent, Rotated: No, Reflected: No *
G04 Dimensions in millimeters *
G04 leading zeros omitted , absolute positions ,4 integer and 5 decimal *
%FSLAX45Y45*%
%MOMM*%

%ADD10C,0.2032*%
%ADD11C,0.2030*%
%ADD12C,0.1800*%
%ADD13C,0.1600*%
%ADD14C,0.3810*%
%ADD15C,0.3000*%
%ADD16C,0.2540*%
%ADD17C,0.5000*%
%ADD18C,0.7000*%
%ADD19C,0.0101*%

%LPD*%
D10*
X9283570Y7189757D02*
G01*
X9334479Y7056120D01*
X9283570Y7189757D02*
G01*
X9232661Y7056120D01*
X9315389Y7100666D02*
G01*
X9251751Y7100666D01*
X9190662Y7189757D02*
G01*
X9190662Y7056120D01*
X9190662Y7189757D02*
G01*
X9133390Y7189757D01*
X9114297Y7183394D01*
X9107934Y7177029D01*
X9101571Y7164303D01*
X9101571Y7151575D01*
X9107934Y7138847D01*
X9114297Y7132485D01*
X9133390Y7126119D01*
X9190662Y7126119D01*
X9146115Y7126119D02*
G01*
X9101571Y7056120D01*
X9059570Y7189757D02*
G01*
X9059570Y7056120D01*
X9059570Y7189757D02*
G01*
X9015026Y7189757D01*
X8995935Y7183394D01*
X8983207Y7170666D01*
X8976845Y7157938D01*
X8970479Y7138847D01*
X8970479Y7107029D01*
X8976845Y7087938D01*
X8983207Y7075213D01*
X8995935Y7062485D01*
X9015026Y7056120D01*
X9059570Y7056120D01*
X8928481Y7189757D02*
G01*
X8928481Y7094303D01*
X8922115Y7075213D01*
X8909390Y7062485D01*
X8890299Y7056120D01*
X8877571Y7056120D01*
X8858481Y7062485D01*
X8845753Y7075213D01*
X8839390Y7094303D01*
X8839390Y7189757D01*
X8797389Y7189757D02*
G01*
X8797389Y7056120D01*
X8755390Y7189757D02*
G01*
X8755390Y7056120D01*
X8755390Y7189757D02*
G01*
X8666299Y7056120D01*
X8666299Y7189757D02*
G01*
X8666299Y7056120D01*
X8586116Y7189757D02*
G01*
X8598844Y7183394D01*
X8611572Y7170666D01*
X8617935Y7157938D01*
X8624298Y7138847D01*
X8624298Y7107029D01*
X8617935Y7087938D01*
X8611572Y7075213D01*
X8598844Y7062485D01*
X8586116Y7056120D01*
X8560663Y7056120D01*
X8547935Y7062485D01*
X8535207Y7075213D01*
X8528845Y7087938D01*
X8522482Y7107029D01*
X8522482Y7138847D01*
X8528845Y7157938D01*
X8535207Y7170666D01*
X8547935Y7183394D01*
X8560663Y7189757D01*
X8586116Y7189757D01*
X11854817Y6761673D02*
G01*
X11841180Y6768490D01*
X11834362Y6788945D01*
X11834362Y6802582D01*
X11841180Y6823036D01*
X11861634Y6836674D01*
X11895726Y6843491D01*
X11929818Y6843491D01*
X11957090Y6836674D01*
X11970727Y6823036D01*
X11977545Y6802582D01*
X11977545Y6795764D01*
X11970727Y6775310D01*
X11957090Y6761673D01*
X11936636Y6754855D01*
X11929818Y6754855D01*
X11909364Y6761673D01*
X11895726Y6775310D01*
X11888909Y6795764D01*
X11888909Y6802582D01*
X11895726Y6823036D01*
X11909364Y6836674D01*
X11929818Y6843491D01*
X11834362Y6709854D02*
G01*
X11977545Y6709854D01*
X11834362Y6709854D02*
G01*
X11977545Y6614401D01*
X11834362Y6614401D02*
G01*
X11977545Y6614401D01*
X11861634Y6569400D02*
G01*
X11854817Y6555765D01*
X11834362Y6535310D01*
X11977545Y6535310D01*
X11834362Y6476674D02*
G01*
X11834362Y6401673D01*
X11888909Y6442582D01*
X11888909Y6422128D01*
X11895726Y6408491D01*
X11902544Y6401673D01*
X11922998Y6394856D01*
X11936636Y6394856D01*
X11957090Y6401673D01*
X11970727Y6415311D01*
X11977545Y6435765D01*
X11977545Y6456220D01*
X11970727Y6476674D01*
X11963908Y6483492D01*
X11950273Y6490309D01*
X11834362Y6254402D02*
G01*
X11977545Y6322583D01*
X11834362Y6349855D02*
G01*
X11834362Y6254402D01*
X11348158Y5508536D02*
G01*
X11348158Y5344899D01*
X11429977Y5426717D02*
G01*
X11266340Y5426717D01*
X11097249Y5535808D02*
G01*
X11188158Y5535808D01*
X11197249Y5453989D01*
X11188158Y5463080D01*
X11160886Y5472170D01*
X11133615Y5472170D01*
X11106340Y5463080D01*
X11088159Y5444898D01*
X11079068Y5417626D01*
X11079068Y5399443D01*
X11088159Y5372171D01*
X11106340Y5353989D01*
X11133615Y5344899D01*
X11160886Y5344899D01*
X11188158Y5353989D01*
X11197249Y5363080D01*
X11206340Y5381261D01*
X11019068Y5535808D02*
G01*
X10946340Y5344899D01*
X10873615Y5535808D02*
G01*
X10946340Y5344899D01*
D11*
X9960117Y5490352D02*
G01*
X9969207Y5508536D01*
X9987389Y5526717D01*
X10005570Y5535808D01*
X10041933Y5535808D01*
X10060117Y5526717D01*
X10078298Y5508536D01*
X10087389Y5490352D01*
X10096479Y5463080D01*
X10096479Y5417626D01*
X10087389Y5390352D01*
X10078298Y5372171D01*
X10060117Y5353989D01*
X10041933Y5344899D01*
X10005570Y5344899D01*
X9987389Y5353989D01*
X9969207Y5372171D01*
X9960117Y5390352D01*
X9960117Y5417626D01*
X10005570Y5417626D02*
G01*
X9960117Y5417626D01*
X9900117Y5535808D02*
G01*
X9900117Y5344899D01*
X9900117Y5535808D02*
G01*
X9772843Y5344899D01*
X9772843Y5535808D02*
G01*
X9772843Y5344899D01*
X9712843Y5535808D02*
G01*
X9712843Y5344899D01*
X9712843Y5535808D02*
G01*
X9649208Y5535808D01*
X9621934Y5526717D01*
X9603752Y5508536D01*
X9594662Y5490352D01*
X9585571Y5463080D01*
X9585571Y5417626D01*
X9594662Y5390352D01*
X9603752Y5372171D01*
X9621934Y5353989D01*
X9649208Y5344899D01*
X9712843Y5344899D01*
D10*
X9501489Y9301853D02*
G01*
X9501489Y9158671D01*
X9501489Y9301853D02*
G01*
X9453763Y9301853D01*
X9433308Y9295036D01*
X9419671Y9281398D01*
X9412853Y9267761D01*
X9406036Y9247306D01*
X9406036Y9213217D01*
X9412853Y9192762D01*
X9419671Y9179125D01*
X9433308Y9165488D01*
X9453763Y9158671D01*
X9501489Y9158671D01*
X9361035Y9301853D02*
G01*
X9361035Y9158671D01*
X9316036Y9301853D02*
G01*
X9316036Y9158671D01*
X9316036Y9301853D02*
G01*
X9220581Y9158671D01*
X9220581Y9301853D02*
G01*
X9220581Y9158671D01*
X8988762Y9301853D02*
G01*
X9056944Y9301853D01*
X9063763Y9240489D01*
X9056944Y9247306D01*
X9036489Y9254126D01*
X9016037Y9254126D01*
X8995582Y9247306D01*
X8981945Y9233672D01*
X8975128Y9213217D01*
X8975128Y9199580D01*
X8981945Y9179125D01*
X8995582Y9165488D01*
X9016037Y9158671D01*
X9036489Y9158671D01*
X9056944Y9165488D01*
X9063763Y9172308D01*
X9070581Y9185943D01*
X8825128Y9301853D02*
G01*
X8825128Y9158671D01*
X8825128Y9301853D02*
G01*
X8763764Y9301853D01*
X8743309Y9295036D01*
X8736490Y9288216D01*
X8729672Y9274581D01*
X8729672Y9254126D01*
X8736490Y9240489D01*
X8743309Y9233672D01*
X8763764Y9226852D01*
X8825128Y9226852D01*
X8684674Y9301853D02*
G01*
X8684674Y9158671D01*
X8639672Y9301853D02*
G01*
X8639672Y9158671D01*
X8639672Y9301853D02*
G01*
X8544219Y9158671D01*
X8544219Y9301853D02*
G01*
X8544219Y9158671D01*
X11500479Y9301845D02*
G01*
X11500479Y9158663D01*
X11500479Y9301845D02*
G01*
X11452753Y9301845D01*
X11432298Y9295028D01*
X11418661Y9281391D01*
X11411844Y9267753D01*
X11405026Y9247299D01*
X11405026Y9213209D01*
X11411844Y9192755D01*
X11418661Y9179118D01*
X11432298Y9165480D01*
X11452753Y9158663D01*
X11500479Y9158663D01*
X11360022Y9301845D02*
G01*
X11360022Y9158663D01*
X11315024Y9301845D02*
G01*
X11315024Y9158663D01*
X11315024Y9301845D02*
G01*
X11219568Y9158663D01*
X11219568Y9301845D02*
G01*
X11219568Y9158663D01*
X10987752Y9301845D02*
G01*
X11055934Y9301845D01*
X11062754Y9240481D01*
X11055934Y9247299D01*
X11035479Y9254119D01*
X11015027Y9254119D01*
X10994572Y9247299D01*
X10980935Y9233664D01*
X10974118Y9213209D01*
X10974118Y9199572D01*
X10980935Y9179118D01*
X10994572Y9165480D01*
X11015027Y9158663D01*
X11035479Y9158663D01*
X11055934Y9165480D01*
X11062754Y9172300D01*
X11069571Y9185935D01*
X10824116Y9301845D02*
G01*
X10824116Y9158663D01*
X10824116Y9301845D02*
G01*
X10762752Y9301845D01*
X10742297Y9295028D01*
X10735477Y9288208D01*
X10728660Y9274573D01*
X10728660Y9254119D01*
X10735477Y9240481D01*
X10742297Y9233664D01*
X10762752Y9226844D01*
X10824116Y9226844D01*
X10683661Y9301845D02*
G01*
X10683661Y9158663D01*
X10638663Y9301845D02*
G01*
X10638663Y9158663D01*
X10638663Y9301845D02*
G01*
X10543207Y9158663D01*
X10543207Y9301845D02*
G01*
X10543207Y9158663D01*
X9143080Y8666853D02*
G01*
X9156717Y8660036D01*
X9170352Y8646398D01*
X9177172Y8632761D01*
X9183989Y8612306D01*
X9183989Y8578217D01*
X9177172Y8557762D01*
X9170352Y8544125D01*
X9156717Y8530488D01*
X9143080Y8523671D01*
X9115808Y8523671D01*
X9102171Y8530488D01*
X9088536Y8544125D01*
X9081716Y8557762D01*
X9074899Y8578217D01*
X9074899Y8612306D01*
X9081716Y8632761D01*
X9088536Y8646398D01*
X9102171Y8660036D01*
X9115808Y8666853D01*
X9143080Y8666853D01*
X9029898Y8666853D02*
G01*
X9029898Y8564580D01*
X9023080Y8544125D01*
X9009443Y8530488D01*
X8988988Y8523671D01*
X8975354Y8523671D01*
X8954899Y8530488D01*
X8941262Y8544125D01*
X8934444Y8564580D01*
X8934444Y8666853D01*
X8841717Y8666853D02*
G01*
X8841717Y8523671D01*
X8889443Y8666853D02*
G01*
X8793990Y8666853D01*
X11093980Y8666845D02*
G01*
X11093980Y8523663D01*
X11048982Y8666845D02*
G01*
X11048982Y8523663D01*
X11048982Y8666845D02*
G01*
X10953526Y8523663D01*
X10953526Y8666845D02*
G01*
X10953526Y8523663D01*
X7958437Y8515085D02*
G01*
X8012983Y8438723D01*
X7931165Y8438723D01*
X7958437Y8515085D02*
G01*
X7958437Y8400542D01*
X7889712Y8427813D02*
G01*
X7895165Y8422360D01*
X7889712Y8416904D01*
X7884256Y8422360D01*
X7889712Y8427813D01*
X7771894Y8515085D02*
G01*
X7826438Y8400542D01*
X7848257Y8515085D02*
G01*
X7771894Y8515085D01*
X7735892Y8476904D02*
G01*
X7735892Y8422360D01*
X7730439Y8405995D01*
X7719529Y8400542D01*
X7703167Y8400542D01*
X7692257Y8405995D01*
X7675892Y8422360D01*
X7675892Y8476904D02*
G01*
X7675892Y8400542D01*
X7639893Y8515085D02*
G01*
X7639893Y8400542D01*
X7639893Y8515085D02*
G01*
X7568984Y8515085D01*
X7639893Y8460541D02*
G01*
X7596256Y8460541D01*
D12*
X5279217Y8543983D02*
G01*
X5412854Y8543983D01*
X5412854Y8543983D02*
G01*
X5412854Y8467620D01*
X5279217Y8336528D02*
G01*
X5412854Y8400166D01*
X5279217Y8425619D02*
G01*
X5279217Y8336528D01*
X5279217Y8262711D02*
G01*
X5285579Y8281802D01*
X5298307Y8288164D01*
X5311035Y8288164D01*
X5323761Y8281802D01*
X5330126Y8269074D01*
X5336489Y8243620D01*
X5342854Y8224530D01*
X5355579Y8211802D01*
X5368307Y8205439D01*
X5387398Y8205439D01*
X5400126Y8211802D01*
X5406489Y8218164D01*
X5412854Y8237255D01*
X5412854Y8262711D01*
X5406489Y8281802D01*
X5400126Y8288164D01*
X5387398Y8294530D01*
X5368307Y8294530D01*
X5355579Y8288164D01*
X5342854Y8275439D01*
X5336489Y8256348D01*
X5330126Y8230892D01*
X5323761Y8218164D01*
X5311035Y8211802D01*
X5298307Y8211802D01*
X5285579Y8218164D01*
X5279217Y8237255D01*
X5279217Y8262711D01*
X5279217Y8125256D02*
G01*
X5285579Y8144347D01*
X5304670Y8157075D01*
X5336489Y8163438D01*
X5355579Y8163438D01*
X5387398Y8157075D01*
X5406489Y8144347D01*
X5412854Y8125256D01*
X5412854Y8112528D01*
X5406489Y8093438D01*
X5387398Y8080712D01*
X5355579Y8074347D01*
X5336489Y8074347D01*
X5304670Y8080712D01*
X5285579Y8093438D01*
X5279217Y8112528D01*
X5279217Y8125256D01*
X5279217Y7955983D02*
G01*
X5279217Y8019620D01*
X5336489Y8025983D01*
X5330126Y8019620D01*
X5323761Y8000530D01*
X5323761Y7981439D01*
X5330126Y7962348D01*
X5342854Y7949620D01*
X5361945Y7943258D01*
X5374670Y7943258D01*
X5393761Y7949620D01*
X5406489Y7962348D01*
X5412854Y7981439D01*
X5412854Y8000530D01*
X5406489Y8019620D01*
X5400126Y8025983D01*
X5387398Y8032348D01*
X5311035Y7805803D02*
G01*
X5298307Y7812166D01*
X5285579Y7824894D01*
X5279217Y7837622D01*
X5279217Y7863075D01*
X5285579Y7875803D01*
X5298307Y7888531D01*
X5311035Y7894894D01*
X5330126Y7901256D01*
X5361945Y7901256D01*
X5381035Y7894894D01*
X5393761Y7888531D01*
X5406489Y7875803D01*
X5412854Y7863075D01*
X5412854Y7837622D01*
X5406489Y7824894D01*
X5393761Y7812166D01*
X5381035Y7805803D01*
X5279217Y7763802D02*
G01*
X5412854Y7712895D01*
X5279217Y7661986D02*
G01*
X5412854Y7712895D01*
D10*
X7699258Y9739848D02*
G01*
X7699258Y9596666D01*
X7746984Y9739848D02*
G01*
X7651531Y9739848D01*
X7606530Y9739848D02*
G01*
X7606530Y9596666D01*
X7606530Y9739848D02*
G01*
X7545166Y9739848D01*
X7524711Y9733031D01*
X7517894Y9726211D01*
X7511077Y9712576D01*
X7511077Y9698939D01*
X7517894Y9685301D01*
X7524711Y9678484D01*
X7545166Y9671667D01*
X7606530Y9671667D01*
X7558803Y9671667D02*
G01*
X7511077Y9596666D01*
X7370622Y9719393D02*
G01*
X7384257Y9733031D01*
X7404712Y9739848D01*
X7431986Y9739848D01*
X7452438Y9733031D01*
X7466075Y9719393D01*
X7466075Y9705756D01*
X7459258Y9692121D01*
X7452438Y9685301D01*
X7438804Y9678484D01*
X7397894Y9664847D01*
X7384257Y9658029D01*
X7377440Y9651212D01*
X7370622Y9637575D01*
X7370622Y9617120D01*
X7384257Y9603483D01*
X7404712Y9596666D01*
X7431986Y9596666D01*
X7452438Y9603483D01*
X7466075Y9617120D01*
D12*
X6718759Y10105478D02*
G01*
X6847624Y10105478D01*
X6718759Y10105478D02*
G01*
X6718759Y10062524D01*
X6724896Y10044115D01*
X6737169Y10031841D01*
X6749442Y10025705D01*
X6767850Y10019571D01*
X6798533Y10019571D01*
X6816943Y10025705D01*
X6829214Y10031841D01*
X6841487Y10044115D01*
X6847624Y10062524D01*
X6847624Y10105478D01*
X6749442Y9887023D02*
G01*
X6737169Y9893160D01*
X6724896Y9905433D01*
X6718759Y9917706D01*
X6718759Y9942250D01*
X6724896Y9954524D01*
X6737169Y9966797D01*
X6749442Y9972934D01*
X6767850Y9979070D01*
X6798533Y9979070D01*
X6816943Y9972934D01*
X6829214Y9966797D01*
X6841487Y9954524D01*
X6847624Y9942250D01*
X6847624Y9917706D01*
X6841487Y9905433D01*
X6829214Y9893160D01*
X6816943Y9887023D01*
X6718759Y9690661D02*
G01*
X6816943Y9690661D01*
X6835350Y9696797D01*
X6841487Y9702934D01*
X6847624Y9715207D01*
X6847624Y9727478D01*
X6841487Y9739751D01*
X6835350Y9745888D01*
X6816943Y9752025D01*
X6804670Y9752025D01*
X6718759Y9601070D02*
G01*
X6847624Y9650161D01*
X6718759Y9601070D02*
G01*
X6847624Y9551979D01*
X6804670Y9631753D02*
G01*
X6804670Y9570389D01*
X6749442Y9419435D02*
G01*
X6737169Y9425571D01*
X6724896Y9437844D01*
X6718759Y9450115D01*
X6718759Y9474662D01*
X6724896Y9486935D01*
X6737169Y9499206D01*
X6749442Y9505342D01*
X6767850Y9511479D01*
X6798533Y9511479D01*
X6816943Y9505342D01*
X6829214Y9499206D01*
X6841487Y9486935D01*
X6847624Y9474662D01*
X6847624Y9450115D01*
X6841487Y9437844D01*
X6829214Y9425571D01*
X6816943Y9419435D01*
X6718759Y9378934D02*
G01*
X6847624Y9378934D01*
X6718759Y9293026D02*
G01*
X6804670Y9378934D01*
X6773986Y9348254D02*
G01*
X6847624Y9293026D01*
D10*
X6656877Y7493807D02*
G01*
X6747786Y7493807D01*
X6756877Y7411989D01*
X6747786Y7421079D01*
X6720514Y7430170D01*
X6693240Y7430170D01*
X6665968Y7421079D01*
X6647787Y7402898D01*
X6638696Y7375626D01*
X6638696Y7357442D01*
X6647787Y7330170D01*
X6665968Y7311989D01*
X6693240Y7302898D01*
X6720514Y7302898D01*
X6747786Y7311989D01*
X6756877Y7321080D01*
X6765968Y7339261D01*
X6578696Y7493807D02*
G01*
X6505968Y7302898D01*
X6433240Y7493807D02*
G01*
X6505968Y7302898D01*
X6115060Y7430170D02*
G01*
X6124150Y7402898D01*
X6142332Y7384717D01*
X6169606Y7375626D01*
X6178697Y7375626D01*
X6205969Y7384717D01*
X6224150Y7402898D01*
X6233241Y7430170D01*
X6233241Y7439261D01*
X6224150Y7466535D01*
X6205969Y7484717D01*
X6178697Y7493807D01*
X6169606Y7493807D01*
X6142332Y7484717D01*
X6124150Y7466535D01*
X6115060Y7430170D01*
X6115060Y7384717D01*
X6124150Y7339261D01*
X6142332Y7311989D01*
X6169606Y7302898D01*
X6187787Y7302898D01*
X6215059Y7311989D01*
X6224150Y7330170D01*
X6055060Y7493807D02*
G01*
X5982332Y7302898D01*
X5909607Y7493807D02*
G01*
X5982332Y7302898D01*
D13*
X5896170Y8856799D02*
G01*
X5901626Y8867708D01*
X5912535Y8878618D01*
X5923442Y8884071D01*
X5945261Y8884071D01*
X5956170Y8878618D01*
X5967079Y8867708D01*
X5972535Y8856799D01*
X5977989Y8840436D01*
X5977989Y8813164D01*
X5972535Y8796799D01*
X5967079Y8785890D01*
X5956170Y8774981D01*
X5945261Y8769527D01*
X5923442Y8769527D01*
X5912535Y8774981D01*
X5901626Y8785890D01*
X5896170Y8796799D01*
X5860171Y8884071D02*
G01*
X5860171Y8769527D01*
X5860171Y8884071D02*
G01*
X5789261Y8884071D01*
X5860171Y8829527D02*
G01*
X5816533Y8829527D01*
X5860171Y8769527D02*
G01*
X5789261Y8769527D01*
X5753262Y8884071D02*
G01*
X5753262Y8769527D01*
X5753262Y8884071D02*
G01*
X5676900Y8769527D01*
X5676900Y8884071D02*
G01*
X5676900Y8769527D01*
X5602716Y8884071D02*
G01*
X5602716Y8769527D01*
X5640898Y8884071D02*
G01*
X5564535Y8884071D01*
X5528536Y8884071D02*
G01*
X5528536Y8769527D01*
X5528536Y8884071D02*
G01*
X5457626Y8884071D01*
X5528536Y8829527D02*
G01*
X5484898Y8829527D01*
X5528536Y8769527D02*
G01*
X5457626Y8769527D01*
X5421627Y8884071D02*
G01*
X5421627Y8769527D01*
X5421627Y8884071D02*
G01*
X5372536Y8884071D01*
X5356171Y8878618D01*
X5350718Y8873164D01*
X5345262Y8862255D01*
X5345262Y8851346D01*
X5350718Y8840436D01*
X5356171Y8834981D01*
X5372536Y8829527D01*
X5421627Y8829527D01*
X5383443Y8829527D02*
G01*
X5345262Y8769527D01*
D10*
X9066987Y8061284D02*
G01*
X9056077Y8066737D01*
X9039715Y8083100D01*
X9039715Y7968556D01*
X8976441Y8083100D02*
G01*
X8992806Y8077647D01*
X8998259Y8066737D01*
X8998259Y8055828D01*
X8992806Y8044919D01*
X8981897Y8039465D01*
X8960078Y8034010D01*
X8943715Y8028556D01*
X8932806Y8017647D01*
X8927350Y8006737D01*
X8927350Y7990375D01*
X8932806Y7979465D01*
X8938259Y7974010D01*
X8954622Y7968556D01*
X8976441Y7968556D01*
X8992806Y7974010D01*
X8998259Y7979465D01*
X9003715Y7990375D01*
X9003715Y8006737D01*
X8998259Y8017647D01*
X8987350Y8028556D01*
X8970987Y8034010D01*
X8949169Y8039465D01*
X8938259Y8044919D01*
X8932806Y8055828D01*
X8932806Y8066737D01*
X8938259Y8077647D01*
X8954622Y8083100D01*
X8976441Y8083100D01*
X8858623Y8083100D02*
G01*
X8874988Y8077647D01*
X8885897Y8061284D01*
X8891351Y8034010D01*
X8891351Y8017647D01*
X8885897Y7990375D01*
X8874988Y7974010D01*
X8858623Y7968556D01*
X8847714Y7968556D01*
X8831351Y7974010D01*
X8820442Y7990375D01*
X8814987Y8017647D01*
X8814987Y8034010D01*
X8820442Y8061284D01*
X8831351Y8077647D01*
X8847714Y8083100D01*
X8858623Y8083100D01*
X8778986Y8083100D02*
G01*
X8778986Y7968556D01*
X8778986Y8083100D02*
G01*
X8729896Y8083100D01*
X8713533Y8077647D01*
X8708077Y8072193D01*
X8702624Y8061284D01*
X8702624Y8050375D01*
X8708077Y8039465D01*
X8713533Y8034010D01*
X8729896Y8028556D01*
X8778986Y8028556D01*
X8740805Y8028556D02*
G01*
X8702624Y7968556D01*
X10317568Y8093082D02*
G01*
X10257569Y8093082D01*
X10290296Y8049447D01*
X10273931Y8049447D01*
X10263024Y8043993D01*
X10257569Y8038538D01*
X10252115Y8022175D01*
X10252115Y8011266D01*
X10257569Y7994901D01*
X10268478Y7983993D01*
X10284840Y7978538D01*
X10301206Y7978538D01*
X10317568Y7983993D01*
X10323024Y7989448D01*
X10328478Y8000357D01*
X10205206Y8093082D02*
G01*
X10145207Y8093082D01*
X10177932Y8049447D01*
X10161569Y8049447D01*
X10150660Y8043993D01*
X10145207Y8038538D01*
X10139751Y8022175D01*
X10139751Y8011266D01*
X10145207Y7994901D01*
X10156113Y7983993D01*
X10172478Y7978538D01*
X10188841Y7978538D01*
X10205206Y7983993D01*
X10210660Y7989448D01*
X10216113Y8000357D01*
X10103751Y8093082D02*
G01*
X10103751Y7978538D01*
X10103751Y8093082D02*
G01*
X10054661Y8093082D01*
X10038295Y8087629D01*
X10032842Y8082175D01*
X10027389Y8071266D01*
X10027389Y8060357D01*
X10032842Y8049447D01*
X10038295Y8043993D01*
X10054661Y8038538D01*
X10103751Y8038538D01*
X10065570Y8038538D02*
G01*
X10027389Y7978538D01*
X11217214Y7850479D02*
G01*
X11211760Y7839570D01*
X11195397Y7823207D01*
X11309941Y7823207D01*
X11195397Y7754479D02*
G01*
X11200851Y7770842D01*
X11217214Y7781752D01*
X11244487Y7787208D01*
X11260851Y7787208D01*
X11288123Y7781752D01*
X11304488Y7770842D01*
X11309941Y7754479D01*
X11309941Y7743570D01*
X11304488Y7727208D01*
X11288123Y7716299D01*
X11260851Y7710843D01*
X11244487Y7710843D01*
X11217214Y7716299D01*
X11200851Y7727208D01*
X11195397Y7743570D01*
X11195397Y7754479D01*
X11195397Y7674843D02*
G01*
X11309941Y7674843D01*
X11195397Y7674843D02*
G01*
X11195397Y7625753D01*
X11200851Y7609390D01*
X11206304Y7603934D01*
X11217214Y7598481D01*
X11228123Y7598481D01*
X11239032Y7603934D01*
X11244487Y7609390D01*
X11249941Y7625753D01*
X11249941Y7674843D01*
X11249941Y7636662D02*
G01*
X11309941Y7598481D01*
X11561196Y7793997D02*
G01*
X11555742Y7783088D01*
X11539380Y7766725D01*
X11653923Y7766725D01*
X11539380Y7730726D02*
G01*
X11653923Y7730726D01*
X11577561Y7676179D02*
G01*
X11632105Y7730726D01*
X11610286Y7708907D02*
G01*
X11653923Y7670726D01*
X11902145Y7925036D02*
G01*
X11896689Y7925036D01*
X11885780Y7919580D01*
X11880326Y7914126D01*
X11874873Y7903217D01*
X11874873Y7881399D01*
X11880326Y7870489D01*
X11885780Y7865036D01*
X11896689Y7859580D01*
X11907598Y7859580D01*
X11918508Y7865036D01*
X11934873Y7875943D01*
X11989417Y7930489D01*
X11989417Y7854127D01*
X11902145Y7812671D02*
G01*
X11896689Y7812671D01*
X11885780Y7807218D01*
X11880326Y7801762D01*
X11874873Y7790853D01*
X11874873Y7769034D01*
X11880326Y7758125D01*
X11885780Y7752671D01*
X11896689Y7747218D01*
X11907598Y7747218D01*
X11918508Y7752671D01*
X11934873Y7763581D01*
X11989417Y7818125D01*
X11989417Y7741762D01*
X11874873Y7673035D02*
G01*
X11880326Y7689400D01*
X11896689Y7700307D01*
X11923962Y7705763D01*
X11940326Y7705763D01*
X11967598Y7700307D01*
X11983962Y7689400D01*
X11989417Y7673035D01*
X11989417Y7662125D01*
X11983962Y7645763D01*
X11967598Y7634853D01*
X11940326Y7629400D01*
X11923962Y7629400D01*
X11896689Y7634853D01*
X11880326Y7645763D01*
X11874873Y7662125D01*
X11874873Y7673035D01*
X11874873Y7593398D02*
G01*
X11989417Y7593398D01*
X11874873Y7593398D02*
G01*
X11874873Y7544308D01*
X11880326Y7527945D01*
X11885780Y7522489D01*
X11896689Y7517036D01*
X11907598Y7517036D01*
X11918508Y7522489D01*
X11923962Y7527945D01*
X11929417Y7544308D01*
X11929417Y7593398D01*
X11929417Y7555217D02*
G01*
X11989417Y7517036D01*
X12488712Y7988477D02*
G01*
X12483259Y7977568D01*
X12466896Y7961205D01*
X12581440Y7961205D01*
X12466896Y7925206D02*
G01*
X12581440Y7925206D01*
X12466896Y7925206D02*
G01*
X12581440Y7848841D01*
X12466896Y7848841D02*
G01*
X12581440Y7848841D01*
X12466896Y7758295D02*
G01*
X12543259Y7812841D01*
X12543259Y7731023D01*
X12466896Y7758295D02*
G01*
X12581440Y7758295D01*
X12466896Y7629568D02*
G01*
X12466896Y7684114D01*
X12515986Y7689568D01*
X12510531Y7684114D01*
X12505077Y7667752D01*
X12505077Y7651386D01*
X12510531Y7635024D01*
X12521440Y7624114D01*
X12537803Y7618661D01*
X12548712Y7618661D01*
X12565077Y7624114D01*
X12575987Y7635024D01*
X12581440Y7651386D01*
X12581440Y7667752D01*
X12575987Y7684114D01*
X12570531Y7689568D01*
X12559621Y7695023D01*
X12466896Y7571750D02*
G01*
X12466896Y7511750D01*
X12510531Y7544478D01*
X12510531Y7528115D01*
X12515986Y7517206D01*
X12521440Y7511750D01*
X12537803Y7506296D01*
X12548712Y7506296D01*
X12565077Y7511750D01*
X12575987Y7522659D01*
X12581440Y7539024D01*
X12581440Y7555387D01*
X12575987Y7571750D01*
X12570531Y7577206D01*
X12559621Y7582659D01*
X12488712Y7470297D02*
G01*
X12483259Y7459388D01*
X12466896Y7443025D01*
X12581440Y7443025D01*
X8530671Y8984353D02*
G01*
X8598852Y8984353D01*
X8605672Y8922989D01*
X8598852Y8929806D01*
X8578397Y8936626D01*
X8557943Y8936626D01*
X8537488Y8929806D01*
X8523853Y8916172D01*
X8517036Y8895717D01*
X8517036Y8882080D01*
X8523853Y8861625D01*
X8537488Y8847988D01*
X8557943Y8841171D01*
X8578397Y8841171D01*
X8598852Y8847988D01*
X8605672Y8854808D01*
X8612489Y8868443D01*
X9433308Y8984353D02*
G01*
X9501489Y8888897D01*
X9399216Y8888897D01*
X9433308Y8984353D02*
G01*
X9433308Y8841171D01*
X10782602Y6777101D02*
G01*
X10789419Y6797555D01*
X10809881Y6811192D01*
X10843966Y6818010D01*
X10864420Y6818010D01*
X10898512Y6811192D01*
X10918967Y6797555D01*
X10925792Y6777101D01*
X10925792Y6763463D01*
X10918967Y6743009D01*
X10898512Y6729374D01*
X10864420Y6722557D01*
X10843966Y6722557D01*
X10809881Y6729374D01*
X10789419Y6743009D01*
X10782602Y6763463D01*
X10782602Y6777101D01*
X10891697Y6670738D02*
G01*
X10898512Y6677555D01*
X10905329Y6670738D01*
X10898512Y6663918D01*
X10891697Y6670738D01*
X10809881Y6618922D02*
G01*
X10803056Y6605285D01*
X10782602Y6584830D01*
X10925792Y6584830D01*
X10830333Y6539831D02*
G01*
X10898512Y6539831D01*
X10918967Y6533014D01*
X10925792Y6519377D01*
X10925792Y6498922D01*
X10918967Y6485285D01*
X10898512Y6464830D01*
X10830333Y6464830D02*
G01*
X10925792Y6464830D01*
X10782602Y6419832D02*
G01*
X10925792Y6419832D01*
X10782602Y6419832D02*
G01*
X10782602Y6331196D01*
X10850788Y6419832D02*
G01*
X10850788Y6365285D01*
X7697109Y6817075D02*
G01*
X7703926Y6837530D01*
X7724381Y6851167D01*
X7758473Y6857984D01*
X7778927Y6857984D01*
X7813019Y6851167D01*
X7833474Y6837530D01*
X7840291Y6817075D01*
X7840291Y6803438D01*
X7833474Y6782983D01*
X7813019Y6769348D01*
X7778927Y6762531D01*
X7758473Y6762531D01*
X7724381Y6769348D01*
X7703926Y6782983D01*
X7697109Y6803438D01*
X7697109Y6817075D01*
X7806199Y6710713D02*
G01*
X7813019Y6717530D01*
X7819837Y6710713D01*
X7813019Y6703893D01*
X7806199Y6710713D01*
X7724381Y6658894D02*
G01*
X7717563Y6645257D01*
X7697109Y6624802D01*
X7840291Y6624802D01*
X7744835Y6579803D02*
G01*
X7813019Y6579803D01*
X7833474Y6572986D01*
X7840291Y6559349D01*
X7840291Y6538894D01*
X7833474Y6525257D01*
X7813019Y6504802D01*
X7744835Y6504802D02*
G01*
X7840291Y6504802D01*
X7697109Y6459804D02*
G01*
X7840291Y6459804D01*
X7697109Y6459804D02*
G01*
X7697109Y6371168D01*
X7765290Y6459804D02*
G01*
X7765290Y6405257D01*
X7400531Y5446943D02*
G01*
X7406893Y5459671D01*
X7419621Y5472399D01*
X7432347Y5478762D01*
X7457803Y5478762D01*
X7470531Y5472399D01*
X7483256Y5459671D01*
X7489621Y5446943D01*
X7495984Y5427853D01*
X7495984Y5396034D01*
X7489621Y5376943D01*
X7483256Y5364218D01*
X7470531Y5351490D01*
X7457803Y5345125D01*
X7432347Y5345125D01*
X7419621Y5351490D01*
X7406893Y5364218D01*
X7400531Y5376943D01*
X7358529Y5478762D02*
G01*
X7358529Y5345125D01*
X7358529Y5345125D02*
G01*
X7282167Y5345125D01*
X7201984Y5478762D02*
G01*
X7214712Y5472399D01*
X7227440Y5459671D01*
X7233803Y5446943D01*
X7240165Y5427853D01*
X7240165Y5396034D01*
X7233803Y5376943D01*
X7227440Y5364218D01*
X7214712Y5351490D01*
X7201984Y5345125D01*
X7176531Y5345125D01*
X7163803Y5351490D01*
X7151075Y5364218D01*
X7144712Y5376943D01*
X7138349Y5396034D01*
X7138349Y5427853D01*
X7144712Y5446943D01*
X7151075Y5459671D01*
X7163803Y5472399D01*
X7176531Y5478762D01*
X7201984Y5478762D01*
X7000895Y5446943D02*
G01*
X7007258Y5459671D01*
X7019985Y5472399D01*
X7032713Y5478762D01*
X7058167Y5478762D01*
X7070895Y5472399D01*
X7083620Y5459671D01*
X7089985Y5446943D01*
X7096348Y5427853D01*
X7096348Y5396034D01*
X7089985Y5376943D01*
X7083620Y5364218D01*
X7070895Y5351490D01*
X7058167Y5345125D01*
X7032713Y5345125D01*
X7019985Y5351490D01*
X7007258Y5364218D01*
X7000895Y5376943D01*
X6958893Y5478762D02*
G01*
X6958893Y5345125D01*
X6869803Y5478762D02*
G01*
X6958893Y5389671D01*
X6927075Y5421490D02*
G01*
X6869803Y5345125D01*
X8990482Y5303580D02*
G01*
X8875936Y5303580D01*
X8833937Y5481761D02*
G01*
X8833937Y5348124D01*
X8833937Y5481761D02*
G01*
X8789393Y5481761D01*
X8770299Y5475399D01*
X8757574Y5462671D01*
X8751209Y5449943D01*
X8744846Y5430852D01*
X8744846Y5399034D01*
X8751209Y5379943D01*
X8757574Y5367218D01*
X8770299Y5354490D01*
X8789393Y5348124D01*
X8833937Y5348124D01*
X8702847Y5481761D02*
G01*
X8702847Y5348124D01*
X8622665Y5481761D02*
G01*
X8635392Y5475399D01*
X8648118Y5462671D01*
X8654483Y5449943D01*
X8660846Y5430852D01*
X8660846Y5399034D01*
X8654483Y5379943D01*
X8648118Y5367218D01*
X8635392Y5354490D01*
X8622665Y5348124D01*
X8597211Y5348124D01*
X8584483Y5354490D01*
X8571755Y5367218D01*
X8565393Y5379943D01*
X8559027Y5399034D01*
X8559027Y5430852D01*
X8565393Y5449943D01*
X8571755Y5462671D01*
X8584483Y5475399D01*
X8597211Y5481761D01*
X8622665Y5481761D01*
X8517028Y5303580D02*
G01*
X8402482Y5303580D01*
X8083892Y5459671D02*
G01*
X8096620Y5472399D01*
X8115711Y5478762D01*
X8141164Y5478762D01*
X8160255Y5472399D01*
X8172983Y5459671D01*
X8172983Y5446943D01*
X8166620Y5434218D01*
X8160255Y5427853D01*
X8147530Y5421490D01*
X8109346Y5408762D01*
X8096620Y5402399D01*
X8090255Y5396034D01*
X8083892Y5383309D01*
X8083892Y5364218D01*
X8096620Y5351490D01*
X8115711Y5345125D01*
X8141164Y5345125D01*
X8160255Y5351490D01*
X8172983Y5364218D01*
X7997347Y5478762D02*
G01*
X7997347Y5345125D01*
X8041893Y5478762D02*
G01*
X7952800Y5478762D01*
X7910802Y5478762D02*
G01*
X7910802Y5345125D01*
X7910802Y5478762D02*
G01*
X7853530Y5478762D01*
X7834439Y5472399D01*
X7828074Y5466034D01*
X7821711Y5453308D01*
X7821711Y5440580D01*
X7828074Y5427853D01*
X7834439Y5421490D01*
X7853530Y5415125D01*
X7910802Y5415125D01*
X7866255Y5415125D02*
G01*
X7821711Y5345125D01*
X7779712Y5478762D02*
G01*
X7779712Y5345125D01*
X7779712Y5478762D02*
G01*
X7722438Y5478762D01*
X7703347Y5472399D01*
X7696984Y5466034D01*
X7690619Y5453308D01*
X7690619Y5440580D01*
X7696984Y5427853D01*
X7703347Y5421490D01*
X7722438Y5415125D01*
X7779712Y5415125D02*
G01*
X7722438Y5415125D01*
X7703347Y5408762D01*
X7696984Y5402399D01*
X7690619Y5389671D01*
X7690619Y5370581D01*
X7696984Y5357853D01*
X7703347Y5351490D01*
X7722438Y5345125D01*
X7779712Y5345125D01*
X6833626Y6921492D02*
G01*
X6976803Y6921492D01*
X6833626Y6921492D02*
G01*
X6833626Y6832856D01*
X6901802Y6921492D02*
G01*
X6901802Y6866945D01*
X6833626Y6787855D02*
G01*
X6976803Y6733311D01*
X6833626Y6678764D02*
G01*
X6976803Y6733311D01*
X6833626Y6579219D02*
G01*
X6976803Y6633766D01*
X6833626Y6579219D02*
G01*
X6976803Y6524675D01*
X6929081Y6613311D02*
G01*
X6929081Y6545130D01*
X6833626Y6479674D02*
G01*
X6976803Y6479674D01*
X6867718Y6332402D02*
G01*
X6854078Y6339220D01*
X6840438Y6352857D01*
X6833626Y6366492D01*
X6833626Y6393766D01*
X6840438Y6407401D01*
X6854078Y6421038D01*
X6867718Y6427856D01*
X6888172Y6434675D01*
X6922256Y6434675D01*
X6942711Y6427856D01*
X6956348Y6421038D01*
X6969988Y6407401D01*
X6976803Y6393766D01*
X6976803Y6366492D01*
X6969988Y6352857D01*
X6956348Y6339220D01*
X6942711Y6332402D01*
X6922256Y6332402D01*
X6922256Y6366492D02*
G01*
X6922256Y6332402D01*
X6613718Y6978175D02*
G01*
X6606893Y6978175D01*
X6593260Y6971355D01*
X6586438Y6964537D01*
X6579626Y6950900D01*
X6579626Y6923628D01*
X6586438Y6909991D01*
X6593260Y6903173D01*
X6606893Y6896356D01*
X6620532Y6896356D01*
X6634172Y6903173D01*
X6654627Y6916811D01*
X6722803Y6984992D01*
X6722803Y6889539D01*
X6579626Y6762719D02*
G01*
X6579626Y6830900D01*
X6640987Y6837720D01*
X6634172Y6830900D01*
X6627347Y6810446D01*
X6627347Y6789991D01*
X6634172Y6769539D01*
X6647802Y6755902D01*
X6668256Y6749084D01*
X6681894Y6749084D01*
X6702348Y6755902D01*
X6715988Y6769539D01*
X6722803Y6789991D01*
X6722803Y6810446D01*
X6715988Y6830900D01*
X6709166Y6837720D01*
X6695536Y6844537D01*
X6579626Y6663174D02*
G01*
X6586438Y6676811D01*
X6600078Y6690446D01*
X6613718Y6697266D01*
X6634172Y6704083D01*
X6668256Y6704083D01*
X6688711Y6697266D01*
X6702348Y6690446D01*
X6715988Y6676811D01*
X6722803Y6663174D01*
X6722803Y6635902D01*
X6715988Y6622265D01*
X6702348Y6608630D01*
X6688711Y6601810D01*
X6668256Y6594993D01*
X6634172Y6594993D01*
X6613718Y6601810D01*
X6600078Y6608630D01*
X6586438Y6622265D01*
X6579626Y6635902D01*
X6579626Y6663174D01*
X6695536Y6642719D02*
G01*
X6736440Y6601810D01*
X6600078Y6468176D02*
G01*
X6586438Y6474993D01*
X6579626Y6495448D01*
X6579626Y6509085D01*
X6586438Y6529539D01*
X6606893Y6543174D01*
X6640987Y6549991D01*
X6675081Y6549991D01*
X6702348Y6543174D01*
X6715988Y6529539D01*
X6722803Y6509085D01*
X6722803Y6502265D01*
X6715988Y6481810D01*
X6702348Y6468176D01*
X6681894Y6461356D01*
X6675081Y6461356D01*
X6654627Y6468176D01*
X6640987Y6481810D01*
X6634172Y6502265D01*
X6634172Y6509085D01*
X6640987Y6529539D01*
X6654627Y6543174D01*
X6675081Y6549991D01*
X6579626Y6348176D02*
G01*
X6675081Y6416357D01*
X6675081Y6314084D01*
X6579626Y6348176D02*
G01*
X6722803Y6348176D01*
X7514744Y7285583D02*
G01*
X7531110Y7280130D01*
X7542016Y7263767D01*
X7547470Y7236493D01*
X7547470Y7220130D01*
X7542016Y7192858D01*
X7531110Y7176493D01*
X7514744Y7171039D01*
X7503833Y7171039D01*
X7487472Y7176493D01*
X7476563Y7192858D01*
X7471107Y7220130D01*
X7471107Y7236493D01*
X7476563Y7263767D01*
X7487472Y7280130D01*
X7503833Y7285583D01*
X7514744Y7285583D01*
X7429652Y7198311D02*
G01*
X7435108Y7192858D01*
X7429652Y7187402D01*
X7424199Y7192858D01*
X7429652Y7198311D01*
X7388202Y7263767D02*
G01*
X7377287Y7269220D01*
X7360927Y7285583D01*
X7360927Y7171039D01*
X7324930Y7247402D02*
G01*
X7324930Y7192858D01*
X7319469Y7176493D01*
X7308562Y7171039D01*
X7292197Y7171039D01*
X7281290Y7176493D01*
X7264925Y7192858D01*
X7264925Y7247402D02*
G01*
X7264925Y7171039D01*
X7228926Y7285583D02*
G01*
X7228926Y7171039D01*
X7228926Y7285583D02*
G01*
X7158017Y7285583D01*
X7228926Y7231039D02*
G01*
X7185289Y7231039D01*
X6628305Y8576983D02*
G01*
X6752394Y8576983D01*
X6628305Y8576983D02*
G01*
X6628305Y8523800D01*
X6634213Y8506073D01*
X6640123Y8500165D01*
X6651939Y8494255D01*
X6663758Y8494255D01*
X6675577Y8500165D01*
X6681485Y8506073D01*
X6687395Y8523800D01*
X6687395Y8576983D02*
G01*
X6687395Y8523800D01*
X6693303Y8506073D01*
X6699214Y8500165D01*
X6711030Y8494255D01*
X6728759Y8494255D01*
X6740575Y8500165D01*
X6746486Y8506073D01*
X6752394Y8523800D01*
X6752394Y8576983D01*
X6669669Y8455256D02*
G01*
X6752394Y8455256D01*
X6705122Y8455256D02*
G01*
X6687395Y8449348D01*
X6675577Y8437529D01*
X6669669Y8425710D01*
X6669669Y8407984D01*
X6628305Y8368982D02*
G01*
X6634213Y8363074D01*
X6628305Y8357166D01*
X6622394Y8363074D01*
X6628305Y8368982D01*
X6669669Y8363074D02*
G01*
X6752394Y8363074D01*
X6628305Y8247255D02*
G01*
X6752394Y8247255D01*
X6687395Y8247255D02*
G01*
X6675577Y8259074D01*
X6669669Y8270892D01*
X6669669Y8288619D01*
X6675577Y8300438D01*
X6687395Y8312256D01*
X6705122Y8318164D01*
X6716941Y8318164D01*
X6734667Y8312256D01*
X6746486Y8300438D01*
X6752394Y8288619D01*
X6752394Y8270892D01*
X6746486Y8259074D01*
X6734667Y8247255D01*
X6669669Y8137347D02*
G01*
X6764213Y8137347D01*
X6781939Y8143257D01*
X6787850Y8149165D01*
X6793758Y8160984D01*
X6793758Y8178711D01*
X6787850Y8190529D01*
X6687395Y8137347D02*
G01*
X6675577Y8149165D01*
X6669669Y8160984D01*
X6669669Y8178711D01*
X6675577Y8190529D01*
X6687395Y8202348D01*
X6705122Y8208256D01*
X6716941Y8208256D01*
X6734667Y8202348D01*
X6746486Y8190529D01*
X6752394Y8178711D01*
X6752394Y8160984D01*
X6746486Y8149165D01*
X6734667Y8137347D01*
X6705122Y8098348D02*
G01*
X6705122Y8027438D01*
X6693303Y8027438D01*
X6681485Y8033346D01*
X6675577Y8039257D01*
X6669669Y8051076D01*
X6669669Y8068802D01*
X6675577Y8080621D01*
X6687395Y8092437D01*
X6705122Y8098348D01*
X6716941Y8098348D01*
X6734667Y8092437D01*
X6746486Y8080621D01*
X6752394Y8068802D01*
X6752394Y8051076D01*
X6746486Y8039257D01*
X6734667Y8027438D01*
X6628305Y7850167D02*
G01*
X6628305Y7861983D01*
X6634213Y7873801D01*
X6651939Y7879712D01*
X6752394Y7879712D01*
X6669669Y7897439D02*
G01*
X6669669Y7856075D01*
X6669669Y7781620D02*
G01*
X6675577Y7793438D01*
X6687395Y7805257D01*
X6705122Y7811165D01*
X6716941Y7811165D01*
X6734667Y7805257D01*
X6746486Y7793438D01*
X6752394Y7781620D01*
X6752394Y7763893D01*
X6746486Y7752074D01*
X6734667Y7740256D01*
X6716941Y7734348D01*
X6705122Y7734348D01*
X6687395Y7740256D01*
X6675577Y7752074D01*
X6669669Y7763893D01*
X6669669Y7781620D01*
X6669669Y7695349D02*
G01*
X6752394Y7695349D01*
X6705122Y7695349D02*
G01*
X6687395Y7689438D01*
X6675577Y7677622D01*
X6669669Y7665803D01*
X6669669Y7648074D01*
X6813806Y8478573D02*
G01*
X6813806Y8537663D01*
X6866986Y8543574D01*
X6861078Y8537663D01*
X6855170Y8519937D01*
X6855170Y8502210D01*
X6861078Y8484481D01*
X6872897Y8472665D01*
X6890623Y8466754D01*
X6902442Y8466754D01*
X6920169Y8472665D01*
X6931987Y8484481D01*
X6937895Y8502210D01*
X6937895Y8519937D01*
X6931987Y8537663D01*
X6926077Y8543574D01*
X6914261Y8549482D01*
X6813806Y8427755D02*
G01*
X6937895Y8380483D01*
X6813806Y8333209D02*
G01*
X6937895Y8380483D01*
X6872897Y8138210D02*
G01*
X6861078Y8144118D01*
X6855170Y8161848D01*
X6855170Y8179574D01*
X6861078Y8197301D01*
X6872897Y8203209D01*
X6884715Y8197301D01*
X6890623Y8185482D01*
X6896531Y8155937D01*
X6902442Y8144118D01*
X6914261Y8138210D01*
X6920169Y8138210D01*
X6931987Y8144118D01*
X6937895Y8161848D01*
X6937895Y8179574D01*
X6931987Y8197301D01*
X6920169Y8203209D01*
X6855170Y8099211D02*
G01*
X6914261Y8099211D01*
X6931987Y8093301D01*
X6937895Y8081482D01*
X6937895Y8063755D01*
X6931987Y8051937D01*
X6914261Y8034210D01*
X6855170Y8034210D02*
G01*
X6937895Y8034210D01*
X6855170Y7995211D02*
G01*
X6979259Y7995211D01*
X6872897Y7995211D02*
G01*
X6861078Y7983392D01*
X6855170Y7971574D01*
X6855170Y7953847D01*
X6861078Y7942028D01*
X6872897Y7930210D01*
X6890623Y7924302D01*
X6902442Y7924302D01*
X6920169Y7930210D01*
X6931987Y7942028D01*
X6937895Y7953847D01*
X6937895Y7971574D01*
X6931987Y7983392D01*
X6920169Y7995211D01*
X6855170Y7885303D02*
G01*
X6979259Y7885303D01*
X6872897Y7885303D02*
G01*
X6861078Y7873484D01*
X6855170Y7861665D01*
X6855170Y7843939D01*
X6861078Y7832120D01*
X6872897Y7820301D01*
X6890623Y7814393D01*
X6902442Y7814393D01*
X6920169Y7820301D01*
X6931987Y7832120D01*
X6937895Y7843939D01*
X6937895Y7861665D01*
X6931987Y7873484D01*
X6920169Y7885303D01*
X6813806Y7775392D02*
G01*
X6937895Y7775392D01*
X6855170Y7730484D02*
G01*
X6937895Y7695029D01*
X6855170Y7659575D02*
G01*
X6937895Y7695029D01*
X6961532Y7706847D01*
X6973351Y7718666D01*
X6979259Y7730484D01*
X6979259Y7736392D01*
D13*
X6039484Y9139480D02*
G01*
X6039484Y9034480D01*
X6039484Y9139480D02*
G01*
X5994485Y9139480D01*
X5979485Y9134480D01*
X5974485Y9129480D01*
X5969485Y9119480D01*
X5969485Y9104480D01*
X5974485Y9094480D01*
X5979485Y9089480D01*
X5994485Y9084480D01*
X6039484Y9084480D01*
X5906485Y9139480D02*
G01*
X5916485Y9134480D01*
X5926485Y9124480D01*
X5931484Y9114480D01*
X5936485Y9099481D01*
X5936485Y9074480D01*
X5931484Y9059481D01*
X5926485Y9049481D01*
X5916485Y9039481D01*
X5906485Y9034480D01*
X5886485Y9034480D01*
X5876485Y9039481D01*
X5866485Y9049481D01*
X5861484Y9059481D01*
X5856485Y9074480D01*
X5856485Y9099481D01*
X5861484Y9114480D01*
X5866485Y9124480D01*
X5876485Y9134480D01*
X5886485Y9139480D01*
X5906485Y9139480D01*
X5753486Y9124480D02*
G01*
X5763485Y9134480D01*
X5778485Y9139480D01*
X5798484Y9139480D01*
X5813485Y9134480D01*
X5823485Y9124480D01*
X5823485Y9114480D01*
X5818484Y9104480D01*
X5813485Y9099481D01*
X5803485Y9094480D01*
X5773485Y9084480D01*
X5763485Y9079480D01*
X5758485Y9074480D01*
X5753486Y9064480D01*
X5753486Y9049481D01*
X5763485Y9039481D01*
X5778485Y9034480D01*
X5798484Y9034480D01*
X5813485Y9039481D01*
X5823485Y9049481D01*
X5720486Y9139480D02*
G01*
X5720486Y9034480D01*
X5652485Y9139480D02*
G01*
X5652485Y9034480D01*
X5687486Y9139480D02*
G01*
X5617486Y9139480D01*
X5584484Y9139480D02*
G01*
X5584484Y9034480D01*
X5551484Y9139480D02*
G01*
X5511485Y9034480D01*
X5471485Y9139480D02*
G01*
X5511485Y9034480D01*
X5438485Y9139480D02*
G01*
X5438485Y9034480D01*
X5438485Y9139480D02*
G01*
X5373486Y9139480D01*
X5438485Y9089480D02*
G01*
X5398485Y9089480D01*
X5438485Y9034480D02*
G01*
X5373486Y9034480D01*
D10*
X5797489Y9403798D02*
G01*
X5797489Y9212889D01*
X5797489Y9403798D02*
G01*
X5733851Y9403798D01*
X5706579Y9394708D01*
X5688398Y9376526D01*
X5679307Y9358342D01*
X5670217Y9331070D01*
X5670217Y9285617D01*
X5679307Y9258343D01*
X5688398Y9240161D01*
X5706579Y9221980D01*
X5733851Y9212889D01*
X5797489Y9212889D01*
X5473852Y9358342D02*
G01*
X5482943Y9376526D01*
X5501126Y9394708D01*
X5519308Y9403798D01*
X5555670Y9403798D01*
X5573852Y9394708D01*
X5592036Y9376526D01*
X5601126Y9358342D01*
X5610217Y9331070D01*
X5610217Y9285617D01*
X5601126Y9258343D01*
X5592036Y9240161D01*
X5573852Y9221980D01*
X5555670Y9212889D01*
X5519308Y9212889D01*
X5501126Y9221980D01*
X5482943Y9240161D01*
X5473852Y9258343D01*
X5726170Y8477166D02*
G01*
X5743897Y8483074D01*
X5755716Y8494892D01*
X5761624Y8512619D01*
X5761624Y8518530D01*
X5755716Y8536256D01*
X5743897Y8548075D01*
X5726170Y8553983D01*
X5720260Y8553983D01*
X5702533Y8548075D01*
X5690715Y8536256D01*
X5684807Y8518530D01*
X5684807Y8512619D01*
X5690715Y8494892D01*
X5702533Y8483074D01*
X5726170Y8477166D01*
X5755716Y8477166D01*
X5785261Y8483074D01*
X5802988Y8494892D01*
X5808896Y8512619D01*
X5808896Y8524438D01*
X5802988Y8542164D01*
X5791169Y8548075D01*
X5684807Y8438164D02*
G01*
X5808896Y8390892D01*
X5684807Y8343620D02*
G01*
X5808896Y8390892D01*
X5743897Y8148619D02*
G01*
X5732078Y8154530D01*
X5726170Y8172256D01*
X5726170Y8189983D01*
X5732078Y8207710D01*
X5743897Y8213620D01*
X5755716Y8207710D01*
X5761624Y8195894D01*
X5767532Y8166348D01*
X5773442Y8154530D01*
X5785261Y8148619D01*
X5791169Y8148619D01*
X5802988Y8154530D01*
X5808896Y8172256D01*
X5808896Y8189983D01*
X5802988Y8207710D01*
X5791169Y8213620D01*
X5726170Y8109620D02*
G01*
X5785261Y8109620D01*
X5802988Y8103712D01*
X5808896Y8091893D01*
X5808896Y8074167D01*
X5802988Y8062348D01*
X5785261Y8044621D01*
X5726170Y8044621D02*
G01*
X5808896Y8044621D01*
X5726170Y8005620D02*
G01*
X5850260Y8005620D01*
X5743897Y8005620D02*
G01*
X5732078Y7993801D01*
X5726170Y7981985D01*
X5726170Y7964256D01*
X5732078Y7952440D01*
X5743897Y7940621D01*
X5761624Y7934711D01*
X5773442Y7934711D01*
X5791169Y7940621D01*
X5802988Y7952440D01*
X5808896Y7964256D01*
X5808896Y7981985D01*
X5802988Y7993801D01*
X5791169Y8005620D01*
X5726170Y7895711D02*
G01*
X5850260Y7895711D01*
X5743897Y7895711D02*
G01*
X5732078Y7883893D01*
X5726170Y7872074D01*
X5726170Y7854348D01*
X5732078Y7842529D01*
X5743897Y7830713D01*
X5761624Y7824802D01*
X5773442Y7824802D01*
X5791169Y7830713D01*
X5802988Y7842529D01*
X5808896Y7854348D01*
X5808896Y7872074D01*
X5802988Y7883893D01*
X5791169Y7895711D01*
X5684807Y7785803D02*
G01*
X5808896Y7785803D01*
X5726170Y7740893D02*
G01*
X5808896Y7705440D01*
X5726170Y7669984D02*
G01*
X5808896Y7705440D01*
X5832533Y7717256D01*
X5844352Y7729075D01*
X5850260Y7740893D01*
X5850260Y7746804D01*
X5489808Y8527483D02*
G01*
X5613897Y8527483D01*
X5489808Y8527483D02*
G01*
X5489808Y8474301D01*
X5495716Y8456574D01*
X5501627Y8450666D01*
X5513443Y8444755D01*
X5525261Y8444755D01*
X5537080Y8450666D01*
X5542988Y8456574D01*
X5548899Y8474301D01*
X5548899Y8527483D01*
X5548899Y8486119D02*
G01*
X5613897Y8444755D01*
X5566625Y8405756D02*
G01*
X5566625Y8334847D01*
X5554807Y8334847D01*
X5542988Y8340755D01*
X5537080Y8346666D01*
X5531172Y8358484D01*
X5531172Y8376211D01*
X5537080Y8388029D01*
X5548899Y8399848D01*
X5566625Y8405756D01*
X5578444Y8405756D01*
X5596171Y8399848D01*
X5607989Y8388029D01*
X5613897Y8376211D01*
X5613897Y8358484D01*
X5607989Y8346666D01*
X5596171Y8334847D01*
X5531172Y8224939D02*
G01*
X5625716Y8224939D01*
X5643443Y8230847D01*
X5649353Y8236757D01*
X5655261Y8248573D01*
X5655261Y8266303D01*
X5649353Y8278121D01*
X5548899Y8224939D02*
G01*
X5537080Y8236757D01*
X5531172Y8248573D01*
X5531172Y8266303D01*
X5537080Y8278121D01*
X5548899Y8289937D01*
X5566625Y8295848D01*
X5578444Y8295848D01*
X5596171Y8289937D01*
X5607989Y8278121D01*
X5613897Y8266303D01*
X5613897Y8248573D01*
X5607989Y8236757D01*
X5596171Y8224939D01*
X5531172Y8185939D02*
G01*
X5590263Y8185939D01*
X5607989Y8180029D01*
X5613897Y8168210D01*
X5613897Y8150484D01*
X5607989Y8138665D01*
X5590263Y8120938D01*
X5531172Y8120938D02*
G01*
X5613897Y8120938D01*
X5489808Y8081939D02*
G01*
X5613897Y8081939D01*
X5531172Y7972031D02*
G01*
X5613897Y7972031D01*
X5548899Y7972031D02*
G01*
X5537080Y7983847D01*
X5531172Y7995665D01*
X5531172Y8013392D01*
X5537080Y8025211D01*
X5548899Y8037029D01*
X5566625Y8042937D01*
X5578444Y8042937D01*
X5596171Y8037029D01*
X5607989Y8025211D01*
X5613897Y8013392D01*
X5613897Y7995665D01*
X5607989Y7983847D01*
X5596171Y7972031D01*
X5489808Y7915302D02*
G01*
X5590263Y7915302D01*
X5607989Y7909394D01*
X5613897Y7897576D01*
X5613897Y7885757D01*
X5531172Y7933029D02*
G01*
X5531172Y7891665D01*
X5531172Y7817213D02*
G01*
X5537080Y7829029D01*
X5548899Y7840847D01*
X5566625Y7846758D01*
X5578444Y7846758D01*
X5596171Y7840847D01*
X5607989Y7829029D01*
X5613897Y7817213D01*
X5613897Y7799484D01*
X5607989Y7787667D01*
X5596171Y7775849D01*
X5578444Y7769938D01*
X5566625Y7769938D01*
X5548899Y7775849D01*
X5537080Y7787667D01*
X5531172Y7799484D01*
X5531172Y7817213D01*
X5531172Y7730939D02*
G01*
X5613897Y7730939D01*
X5566625Y7730939D02*
G01*
X5548899Y7725031D01*
X5537080Y7713212D01*
X5531172Y7701394D01*
X5531172Y7683667D01*
X6180244Y8504839D02*
G01*
X6189789Y8523930D01*
X6208882Y8543020D01*
X6227973Y8552566D01*
X6256609Y8562111D01*
X6304335Y8562111D01*
X6332971Y8552566D01*
X6352062Y8543020D01*
X6371153Y8523930D01*
X6380698Y8504839D01*
X6380698Y8466658D01*
X6371153Y8447565D01*
X6352062Y8428474D01*
X6332971Y8418929D01*
X6304335Y8409383D01*
X6256609Y8409383D01*
X6227973Y8418929D01*
X6208882Y8428474D01*
X6189789Y8447565D01*
X6180244Y8466658D01*
X6180244Y8504839D01*
X6247063Y8346384D02*
G01*
X6447518Y8346384D01*
X6275699Y8346384D02*
G01*
X6256609Y8327293D01*
X6247063Y8308202D01*
X6247063Y8279566D01*
X6256609Y8260476D01*
X6275699Y8241385D01*
X6304335Y8231840D01*
X6323426Y8231840D01*
X6352062Y8241385D01*
X6371153Y8260476D01*
X6380698Y8279566D01*
X6380698Y8308202D01*
X6371153Y8327293D01*
X6352062Y8346384D01*
X6180244Y8140202D02*
G01*
X6342517Y8140202D01*
X6371153Y8130656D01*
X6380698Y8111566D01*
X6380698Y8092475D01*
X6247063Y8168840D02*
G01*
X6247063Y8102020D01*
X6180244Y8029475D02*
G01*
X6189789Y8019930D01*
X6180244Y8010385D01*
X6170698Y8019930D01*
X6180244Y8029475D01*
X6247063Y8019930D02*
G01*
X6380698Y8019930D01*
X6247063Y7899659D02*
G01*
X6256609Y7918749D01*
X6275699Y7937840D01*
X6304335Y7947385D01*
X6323426Y7947385D01*
X6352062Y7937840D01*
X6371153Y7918749D01*
X6380698Y7899659D01*
X6380698Y7871023D01*
X6371153Y7851929D01*
X6352062Y7832839D01*
X6323426Y7823293D01*
X6304335Y7823293D01*
X6275699Y7832839D01*
X6256609Y7851929D01*
X6247063Y7871023D01*
X6247063Y7899659D01*
X6247063Y7760294D02*
G01*
X6380698Y7760294D01*
X6285245Y7760294D02*
G01*
X6256609Y7731658D01*
X6247063Y7712567D01*
X6247063Y7683931D01*
X6256609Y7664841D01*
X6285245Y7655295D01*
X6380698Y7655295D01*
D11*
X5305719Y7215987D02*
G01*
X5300266Y7205078D01*
X5283903Y7188715D01*
X5398447Y7188715D01*
X5283903Y7152716D02*
G01*
X5398447Y7152716D01*
X5283903Y7152716D02*
G01*
X5398447Y7076351D01*
X5283903Y7076351D02*
G01*
X5398447Y7076351D01*
X5283903Y6985805D02*
G01*
X5360266Y7040351D01*
X5360266Y6958533D01*
X5283903Y6985805D02*
G01*
X5398447Y6985805D01*
X5283903Y6889805D02*
G01*
X5289356Y6906171D01*
X5305719Y6917077D01*
X5332993Y6922533D01*
X5349356Y6922533D01*
X5376628Y6917077D01*
X5392994Y6906171D01*
X5398447Y6889805D01*
X5398447Y6878896D01*
X5392994Y6862533D01*
X5376628Y6851624D01*
X5349356Y6846171D01*
X5332993Y6846171D01*
X5305719Y6851624D01*
X5289356Y6862533D01*
X5283903Y6878896D01*
X5283903Y6889805D01*
X5283903Y6777443D02*
G01*
X5289356Y6793806D01*
X5305719Y6804715D01*
X5332993Y6810169D01*
X5349356Y6810169D01*
X5376628Y6804715D01*
X5392994Y6793806D01*
X5398447Y6777443D01*
X5398447Y6766534D01*
X5392994Y6750169D01*
X5376628Y6739260D01*
X5349356Y6733806D01*
X5332993Y6733806D01*
X5305719Y6739260D01*
X5289356Y6750169D01*
X5283903Y6766534D01*
X5283903Y6777443D01*
X5283903Y6643260D02*
G01*
X5360266Y6697807D01*
X5360266Y6615988D01*
X5283903Y6643260D02*
G01*
X5398447Y6643260D01*
D10*
X10083751Y6681759D02*
G01*
X10013751Y6681759D01*
X10051933Y6630850D01*
X10032842Y6630850D01*
X10020117Y6624487D01*
X10013751Y6618122D01*
X10007389Y6599031D01*
X10007389Y6586306D01*
X10013751Y6567215D01*
X10026479Y6554487D01*
X10045570Y6548122D01*
X10064661Y6548122D01*
X10083751Y6554487D01*
X10090116Y6560850D01*
X10096479Y6573578D01*
X9959025Y6649940D02*
G01*
X9959025Y6656306D01*
X9952662Y6669031D01*
X9946297Y6675396D01*
X9933571Y6681759D01*
X9908115Y6681759D01*
X9895390Y6675396D01*
X9889025Y6669031D01*
X9882662Y6656306D01*
X9882662Y6643578D01*
X9889025Y6630850D01*
X9901753Y6611759D01*
X9965390Y6548122D01*
X9876297Y6548122D01*
X9802479Y6681759D02*
G01*
X9821570Y6675396D01*
X9827935Y6662668D01*
X9827935Y6649940D01*
X9821570Y6637215D01*
X9808845Y6630850D01*
X9783389Y6624487D01*
X9764298Y6618122D01*
X9751570Y6605396D01*
X9745207Y6592669D01*
X9745207Y6573578D01*
X9751570Y6560850D01*
X9757935Y6554487D01*
X9777026Y6548122D01*
X9802479Y6548122D01*
X9821570Y6554487D01*
X9827935Y6560850D01*
X9834298Y6573578D01*
X9834298Y6592669D01*
X9827935Y6605396D01*
X9815207Y6618122D01*
X9796117Y6624487D01*
X9770661Y6630850D01*
X9757935Y6637215D01*
X9751570Y6649940D01*
X9751570Y6662668D01*
X9757935Y6675396D01*
X9777026Y6681759D01*
X9802479Y6681759D01*
X9703208Y6681759D02*
G01*
X9703208Y6548122D01*
X9703208Y6681759D02*
G01*
X9645934Y6681759D01*
X9626843Y6675396D01*
X9620481Y6669031D01*
X9614115Y6656306D01*
X9614115Y6637215D01*
X9620481Y6624487D01*
X9626843Y6618122D01*
X9645934Y6611759D01*
X9703208Y6611759D01*
X9527570Y6707215D02*
G01*
X9540298Y6694486D01*
X9553026Y6675396D01*
X9565754Y6649940D01*
X9572116Y6618122D01*
X9572116Y6592669D01*
X9565754Y6560850D01*
X9553026Y6535397D01*
X9540298Y6516306D01*
X9527570Y6503578D01*
X9485571Y6681759D02*
G01*
X9485571Y6548122D01*
X9485571Y6681759D02*
G01*
X9428299Y6681759D01*
X9409209Y6675396D01*
X9402843Y6669031D01*
X9396481Y6656306D01*
X9396481Y6643578D01*
X9402843Y6630850D01*
X9409209Y6624487D01*
X9428299Y6618122D01*
X9485571Y6618122D02*
G01*
X9428299Y6618122D01*
X9409209Y6611759D01*
X9402843Y6605396D01*
X9396481Y6592669D01*
X9396481Y6573578D01*
X9402843Y6560850D01*
X9409209Y6554487D01*
X9428299Y6548122D01*
X9485571Y6548122D01*
X9354482Y6707215D02*
G01*
X9341754Y6694486D01*
X9329026Y6675396D01*
X9316298Y6649940D01*
X9309935Y6618122D01*
X9309935Y6592669D01*
X9316298Y6560850D01*
X9329026Y6535397D01*
X9341754Y6516306D01*
X9354482Y6503578D01*
X9157208Y6681759D02*
G01*
X9087208Y6681759D01*
X9125391Y6630850D01*
X9106298Y6630850D01*
X9093573Y6624487D01*
X9087208Y6618122D01*
X9080845Y6599031D01*
X9080845Y6586306D01*
X9087208Y6567215D01*
X9099936Y6554487D01*
X9119026Y6548122D01*
X9138117Y6548122D01*
X9157208Y6554487D01*
X9163573Y6560850D01*
X9169935Y6573578D01*
X9032481Y6579941D02*
G01*
X9038846Y6573578D01*
X9032481Y6567215D01*
X9026118Y6573578D01*
X9032481Y6579941D01*
X8971391Y6681759D02*
G01*
X8901391Y6681759D01*
X8939573Y6630850D01*
X8920482Y6630850D01*
X8907754Y6624487D01*
X8901391Y6618122D01*
X8895026Y6599031D01*
X8895026Y6586306D01*
X8901391Y6567215D01*
X8914117Y6554487D01*
X8933210Y6548122D01*
X8952301Y6548122D01*
X8971391Y6554487D01*
X8977754Y6560850D01*
X8984117Y6573578D01*
X8853027Y6681759D02*
G01*
X8802118Y6548122D01*
X8751209Y6681759D02*
G01*
X8802118Y6548122D01*
X8579391Y6681759D02*
G01*
X8598481Y6675396D01*
X8604846Y6662668D01*
X8604846Y6649940D01*
X8598481Y6637215D01*
X8585756Y6630850D01*
X8560300Y6624487D01*
X8541209Y6618122D01*
X8528481Y6605396D01*
X8522119Y6592669D01*
X8522119Y6573578D01*
X8528481Y6560850D01*
X8534847Y6554487D01*
X8553937Y6548122D01*
X8579391Y6548122D01*
X8598481Y6554487D01*
X8604846Y6560850D01*
X8611209Y6573578D01*
X8611209Y6592669D01*
X8604846Y6605396D01*
X8592118Y6618122D01*
X8573028Y6624487D01*
X8547572Y6630850D01*
X8534847Y6637215D01*
X8528481Y6649940D01*
X8528481Y6662668D01*
X8534847Y6675396D01*
X8553937Y6681759D01*
X8579391Y6681759D01*
X8480120Y6681759D02*
G01*
X8480120Y6548122D01*
X8480120Y6681759D02*
G01*
X8429210Y6548122D01*
X8378301Y6681759D02*
G01*
X8429210Y6548122D01*
X8378301Y6681759D02*
G01*
X8378301Y6548122D01*
X8336300Y6681759D02*
G01*
X8336300Y6548122D01*
X8247209Y6681759D02*
G01*
X8247209Y6548122D01*
X8336300Y6618122D02*
G01*
X8247209Y6618122D01*
X8116120Y6681759D02*
G01*
X8205210Y6548122D01*
X8205210Y6681759D02*
G01*
X8116120Y6681759D01*
X8205210Y6548122D02*
G01*
X8116120Y6548122D01*
X9270982Y6935759D02*
G01*
X9270982Y6802122D01*
X9270982Y6935759D02*
G01*
X9213710Y6935759D01*
X9194619Y6929396D01*
X9188254Y6923031D01*
X9181891Y6910306D01*
X9181891Y6891215D01*
X9188254Y6878487D01*
X9194619Y6872122D01*
X9213710Y6865759D01*
X9270982Y6865759D01*
X9139892Y6935759D02*
G01*
X9139892Y6802122D01*
X9139892Y6935759D02*
G01*
X9082618Y6935759D01*
X9063527Y6929396D01*
X9057165Y6923031D01*
X9050799Y6910306D01*
X9050799Y6897578D01*
X9057165Y6884850D01*
X9063527Y6878487D01*
X9082618Y6872122D01*
X9139892Y6872122D01*
X9095346Y6872122D02*
G01*
X9050799Y6802122D01*
X8970619Y6935759D02*
G01*
X8983347Y6929396D01*
X8996072Y6916668D01*
X9002438Y6903940D01*
X9008800Y6884850D01*
X9008800Y6853031D01*
X9002438Y6833941D01*
X8996072Y6821215D01*
X8983347Y6808487D01*
X8970619Y6802122D01*
X8945163Y6802122D01*
X8932438Y6808487D01*
X8919710Y6821215D01*
X8913347Y6833941D01*
X8906982Y6853031D01*
X8906982Y6884850D01*
X8913347Y6903940D01*
X8919710Y6916668D01*
X8932438Y6929396D01*
X8945163Y6935759D01*
X8970619Y6935759D01*
X8766982Y6935759D02*
G01*
X8766982Y6802122D01*
X8766982Y6935759D02*
G01*
X8716073Y6802122D01*
X8665164Y6935759D02*
G01*
X8716073Y6802122D01*
X8665164Y6935759D02*
G01*
X8665164Y6802122D01*
X8623165Y6935759D02*
G01*
X8623165Y6802122D01*
X8581166Y6935759D02*
G01*
X8581166Y6802122D01*
X8581166Y6935759D02*
G01*
X8492073Y6802122D01*
X8492073Y6935759D02*
G01*
X8492073Y6802122D01*
X8450074Y6935759D02*
G01*
X8450074Y6802122D01*
X7634394Y8359708D02*
G01*
X7634394Y8261527D01*
X7683484Y8310618D02*
G01*
X7585303Y8310618D01*
X10555871Y9034599D02*
G01*
X10624052Y9034599D01*
X10630872Y8973235D01*
X10624052Y8980050D01*
X10603598Y8986867D01*
X10583143Y8986867D01*
X10562689Y8980050D01*
X10549054Y8966413D01*
X10542234Y8945958D01*
X10542234Y8932321D01*
X10549054Y8911866D01*
X10562689Y8898234D01*
X10583143Y8891412D01*
X10603598Y8891412D01*
X10624052Y8898234D01*
X10630872Y8905049D01*
X10637690Y8918689D01*
X11458508Y9034599D02*
G01*
X11526690Y8939143D01*
X11424417Y8939143D01*
X11458508Y9034599D02*
G01*
X11458508Y8891412D01*
D14*
G75*
G01*
X12020733Y7164497D02*
G02*
X11766733Y7164497I-127000J0D01*
G75*
G01*
X6877451Y6056465D02*
G03*
X6623451Y6056465I-127000J0D01*
D15*
G75*
G01
X8085480Y8087995D02*
G03X8085480Y8087995I-238989J0D01*
D16*
X11334724Y7175474D02*
G01*
X12414224Y7175474D01*
X12414224Y6032474D01*
X11334724Y6032474D01*
X11334724Y7175474D01*
X8046999Y10140975D02*
G01*
X10022992Y10140975D01*
X10022992Y8261985D01*
X8046999Y8261985D01*
X8046999Y10140975D01*
X10052989Y10140975D02*
G01*
X12028982Y10140975D01*
X12028982Y8261985D01*
X10052989Y8261985D01*
X10052989Y10140975D01*
X7110984Y10130967D02*
G01*
X8014995Y10130967D01*
X8014995Y8792946D01*
X7110984Y8792946D01*
X7110984Y10130967D01*
X5204002Y8603970D02*
G01*
X7533233Y8603970D01*
X7533233Y7606969D01*
X5204002Y7606969D01*
X5204002Y8603970D01*
X7650479Y7746974D02*
G01*
X10980470Y7746974D01*
X10980470Y5946978D01*
X7650479Y5946978D01*
X7650479Y7746974D01*
X8665235Y8155508D02*
G01*
X9109735Y8155508D01*
X9109735Y7901508D01*
X8665235Y7901508D01*
X8665235Y8155508D01*
X9951974Y8163991D02*
G01*
X10396474Y8163991D01*
X10396474Y7909991D01*
X9951974Y7909991D01*
X9951974Y8163991D01*
X11126470Y7969478D02*
G01*
X11380470Y7969478D01*
X11380470Y7484465D01*
X11126470Y7484465D01*
X11126470Y7969478D01*
X11482984Y7967471D02*
G01*
X11736984Y7967471D01*
X11736984Y7482459D01*
X11482984Y7482459D01*
X11482984Y7967471D01*
X11807977Y7967471D02*
G01*
X12061977Y7967471D01*
X12061977Y7482459D01*
X11807977Y7482459D01*
X11807977Y7967471D01*
X12142977Y7994980D02*
G01*
X12384481Y7994980D01*
X12384481Y7494955D01*
X12142977Y7494955D01*
X12142977Y7994980D01*
D17*
X12141479Y7474991D02*
G01*
X12395479Y7474991D01*
X12395479Y7449743D01*
X12141479Y7449743D01*
X12141479Y7474991D01*
D16*
X11032490Y6857974D02*
G01*
X11286490Y6857974D01*
X11286490Y6349974D01*
X11032490Y6349974D01*
X11032490Y6857974D01*
X7349490Y6858000D02*
G01*
X7603490Y6858000D01*
X7603490Y6350000D01*
X7349490Y6350000D01*
X7349490Y6858000D01*
X6221475Y7118959D02*
G01*
X7300975Y7118959D01*
X7300975Y6039459D01*
X6221475Y6039459D01*
X6221475Y7118959D01*
X7106005Y7566456D02*
G01*
X7593507Y7566456D01*
X7593507Y7330465D01*
X7106005Y7330465D01*
X7106005Y7566456D01*
D18*
X7082866Y7829346D02*
G01*
X7373111Y7829346D01*
X7373111Y7828610D01*
X7082866Y7828610D01*
X7082866Y7829346D01*
X7078852Y8340344D02*
G01*
X7369098Y8340344D01*
X7369098Y8339607D01*
X7078852Y8339607D01*
X7078852Y8340344D01*
X7073493Y8340470D02*
G01*
X7086498Y8340470D01*
X7086498Y7832470D01*
X7073493Y7832470D01*
X7073493Y8340470D01*
D17*
X5284495Y8945981D02*
G01*
X6109995Y8945981D01*
X6109995Y8706485D01*
X5284495Y8706485D01*
X5284495Y8945981D01*
D12*
X6101486Y10138486D02*
G01*
X6886473Y10138486D01*
X6886473Y8692489D01*
X6101486Y8692489D01*
X6101486Y10138486D01*
D16*
X6848246Y9290227D02*
G01*
X7057745Y9290227D01*
X7057745Y8837726D01*
X6848246Y8837726D01*
X6848246Y9290227D01*
D18*
X5831484Y7567980D02*
G01*
X6834860Y7567980D01*
X6834860Y7228230D01*
X5831484Y7228230D01*
X5831484Y7567980D01*
X5842000Y7556474D02*
G01*
X6336512Y7556474D01*
X6336512Y7228967D01*
X5842000Y7228967D01*
X5842000Y7556474D01*
D16*
X9334474Y5841974D02*
G01*
X10350474Y5841974D01*
X10350474Y5270474D01*
X9334474Y5270474D01*
X9334474Y5841974D01*
X12158725Y9286976D02*
G01*
X12691236Y9286976D01*
X12691236Y8493988D01*
X12158725Y8493988D01*
X12158725Y9286976D01*
X10604474Y5841974D02*
G01*
X11620474Y5841974D01*
X11620474Y5270474D01*
X10604474Y5270474D01*
X10604474Y5841974D01*
X5462498Y7264476D02*
G01*
X5719495Y7264476D01*
X5719495Y6601739D01*
X5462498Y6601739D01*
X5462498Y7264476D01*
X6774484Y5876975D02*
G01*
X7537475Y5876975D01*
X7537475Y5270474D01*
X6774484Y5270474D01*
X6774484Y5876975D01*
X7568488Y5874740D02*
G01*
X8336508Y5874740D01*
X8336508Y5272989D01*
X7568488Y5272989D01*
X7568488Y5874740D01*
X8307501Y5876239D02*
G01*
X9089491Y5876239D01*
X9089491Y5269737D01*
X8307501Y5269737D01*
X8307501Y5876239D01*
X5465978Y7200976D02*
G01*
X5719978Y7200976D01*
X5719978Y7137476D01*
X5465978Y7137476D01*
X5465978Y7200976D01*
D17*
X12142470Y7511491D02*
G01*
X12396470Y7511491D01*
X12396470Y7486243D01*
X12142470Y7486243D01*
X12142470Y7511491D01*
D16*
X5465978Y7232726D02*
G01*
X5719978Y7232726D01*
X5719978Y7169226D01*
X5465978Y7169226D01*
X5465978Y7232726D01*
X5465978Y7264476D02*
G01*
X5719978Y7264476D01*
X5719978Y7200976D01*
X5465978Y7200976D01*
X5465978Y7264476D01*
M02*
