G04 Layer: TopSolderMaskLayer*
G04 EasyEDA v6.5.50, 2025-04-22 20:35:32*
G04 2447ad7b923c4463a7a2b320b029b0bb,035c650733ab4bc79dd6698c18aa45da,10*
G04 Gerber Generator version 0.2*
G04 Scale: 100 percent, Rotated: No, Reflected: No *
G04 Dimensions in millimeters *
G04 leading zeros omitted , absolute positions ,4 integer and 5 decimal *
%FSLAX45Y45*%
%MOMM*%

%AMMACRO1*4,1,8,-0.9101,-0.9398,-0.9398,-0.9098,-0.9398,0.9101,-0.9101,0.9398,0.9098,0.9398,0.9398,0.9101,0.9398,-0.9098,0.9098,-0.9398,-0.9101,-0.9398,0*%
%AMMACRO2*4,1,8,-1.4211,-1.4508,-1.4508,-1.4209,-1.4508,1.4211,-1.4211,1.4508,1.4209,1.4508,1.4508,1.4211,1.4508,-1.4209,1.4209,-1.4508,-1.4211,-1.4508,0*%
%AMMACRO3*4,1,8,-1.0211,-1.7508,-1.0508,-1.7209,-1.0508,1.7211,-1.0211,1.7508,1.0208,1.7508,1.0508,1.7211,1.0508,-1.7209,1.0208,-1.7508,-1.0211,-1.7508,0*%
%AMMACRO4*4,1,8,-0.7711,-1.7508,-0.8009,-1.7209,-0.8009,1.7211,-0.7711,1.7508,0.7709,1.7508,0.8009,1.7211,0.8009,-1.7209,0.7709,-1.7508,-0.7711,-1.7508,0*%
%AMMACRO5*4,1,8,-2.1711,-1.2507,-2.2008,-1.2207,-2.2008,1.221,-2.1711,1.2507,2.1708,1.2507,2.2008,1.221,2.2008,-1.2207,2.1708,-1.2507,-2.1711,-1.2507,0*%
%AMMACRO6*4,1,8,-1.0711,-1.1008,-1.1008,-1.0709,-1.1008,1.0711,-1.0711,1.1008,1.0709,1.1008,1.1008,1.0711,1.1008,-1.0709,1.0709,-1.1008,-1.0711,-1.1008,0*%
%AMMACRO7*4,1,8,-2.1711,-0.9508,-2.2008,-0.9209,-2.2008,0.9211,-2.1711,0.9508,2.1708,0.9508,2.2008,0.9211,2.2008,-0.9209,2.1708,-0.9508,-2.1711,-0.9508,0*%
%AMMACRO8*4,1,8,-2.471,-0.7758,-2.5008,-0.7459,-2.5008,0.7461,-2.471,0.7758,2.4708,0.7758,2.5008,0.7461,2.5008,-0.7459,2.4708,-0.7758,-2.471,-0.7758,0*%
%AMMACRO9*4,1,8,-0.8711,-2.1509,-0.9008,-2.1209,-0.9008,2.1212,-0.8711,2.1509,0.8708,2.1509,0.9008,2.1212,0.9008,-2.1209,0.8708,-2.1509,-0.8711,-2.1509,0*%
%AMMACRO10*4,1,8,-1.071,-1.1008,-1.1007,-1.0709,-1.1007,1.0711,-1.071,1.1008,1.0707,1.1008,1.1007,1.0711,1.1007,-1.0709,1.0707,-1.1008,-1.071,-1.1008,0*%
%AMMACRO11*4,1,8,-1.3211,-0.9008,-1.3508,-0.8708,-1.3508,0.8711,-1.3211,0.9008,1.3208,0.9008,1.3508,0.8711,1.3508,-0.8708,1.3208,-0.9008,-1.3211,-0.9008,0*%
%ADD10C,2.1016*%
%ADD11O,1.8796000000000002X1.8796000000000002*%
%ADD12O,1.3716000000000002X2.1336*%
%ADD13MACRO1*%
%ADD14C,1.8796*%
%ADD15MACRO2*%
%ADD16C,2.9016*%
%ADD17C,3.2016*%
%ADD18MACRO3*%
%ADD19MACRO4*%
%ADD20MACRO5*%
%ADD21C,2.2016*%
%ADD22MACRO6*%
%ADD23O,1.8015966X4.101592*%
%ADD24O,1.6015970000000002X4.101592*%
%ADD25MACRO7*%
%ADD26MACRO8*%
%ADD27MACRO9*%
%ADD28MACRO10*%
%ADD29MACRO11*%
%ADD30C,0.0197*%

%LPD*%
D10*
X8001000Y8427720D02*
G01*
X8000984Y8416241D01*
X8000984Y8635982D02*
G01*
X8001000Y8636000D01*
X8445482Y9143982D02*
G01*
X8255271Y8913200D01*
X11429982Y8953482D02*
G01*
X11545496Y8643493D01*
X10667982Y8953482D02*
G01*
X10544281Y8666711D01*
X9588479Y9143982D02*
G01*
X9767496Y8897493D01*
X9397982Y8889982D02*
G01*
X9519236Y8671488D01*
X8635982Y8889982D02*
G01*
X8512284Y8666711D01*
X8127984Y9334482D02*
G01*
X8191484Y9334482D01*
X8127979Y9588477D02*
G01*
X8191484Y9588479D01*
X8127979Y9588477D02*
G01*
X8191484Y9588479D01*
X11429982Y8953482D02*
G01*
X11545496Y8643493D01*
X10667982Y8953482D02*
G01*
X10544281Y8666711D01*
X9842479Y6476987D02*
G01*
X9842479Y6095997D01*
X9588479Y6476987D02*
G01*
X9588479Y6095997D01*
X9334482Y6476987D02*
G01*
X9334482Y6095997D01*
X9080484Y6476979D02*
G01*
X9080484Y6095989D01*
X8826482Y6476987D02*
G01*
X8826482Y6095997D01*
X8572482Y6476987D02*
G01*
X8572482Y6095997D01*
X8318482Y6476987D02*
G01*
X8318482Y6095997D01*
X9080474Y7619974D02*
G01*
X9080474Y7238984D01*
X8826500Y7620000D02*
G01*
X8826500Y7239010D01*
X9019997Y8897467D02*
G01*
X9016982Y8508982D01*
X11493477Y5397500D02*
G01*
X11493477Y5714987D01*
X11239477Y5397500D02*
G01*
X11239477Y5714987D01*
X10985477Y5397500D02*
G01*
X10985477Y5714987D01*
X10731484Y5397500D02*
G01*
X10731484Y5714987D01*
X10223487Y5714982D02*
G01*
X10223487Y5397482D01*
X9969487Y5714982D02*
G01*
X9969487Y5397482D01*
X9716493Y5713971D02*
G01*
X9716493Y5396471D01*
X9462493Y5713971D02*
G01*
X9462493Y5396471D01*
X8953482Y5714987D02*
G01*
X8953482Y5397487D01*
X8699494Y5715000D02*
G01*
X8699494Y5397500D01*
X8445482Y5714987D02*
G01*
X8445482Y5397487D01*
X8191484Y5714987D02*
G01*
X8191484Y5397487D01*
X7937484Y5714987D02*
G01*
X7937484Y5397487D01*
X7683484Y5714987D02*
G01*
X7683484Y5397487D01*
X7429487Y5714987D02*
G01*
X7429487Y5397487D01*
X7175487Y5714987D02*
G01*
X7175487Y5397487D01*
X6921487Y5714987D02*
G01*
X6921487Y5397487D01*
X7937484Y5714987D02*
G01*
X7937484Y5397487D01*
X10985477Y5397500D02*
G01*
X10985477Y5714987D01*
X11239477Y5397500D02*
G01*
X11239477Y5714987D01*
X11493477Y5397500D02*
G01*
X11493477Y5714987D01*
X10731484Y5397500D02*
G01*
X10731484Y5714987D01*
X9462493Y5713971D02*
G01*
X9462493Y5396471D01*
X9716493Y5713971D02*
G01*
X9716493Y5396471D01*
X9969487Y5714982D02*
G01*
X9969487Y5397482D01*
X10223487Y5714982D02*
G01*
X10223487Y5397482D01*
X8953482Y5714987D02*
G01*
X8953482Y5397487D01*
X8699494Y5715000D02*
G01*
X8699494Y5397500D01*
X8445482Y5714987D02*
G01*
X8445482Y5397487D01*
X8191484Y5714987D02*
G01*
X8191484Y5397487D01*
X7683484Y5714987D02*
G01*
X7683484Y5397487D01*
X7429484Y5714987D02*
G01*
X7429484Y5397487D01*
X7175484Y5714987D02*
G01*
X7175484Y5397487D01*
X6921484Y5714987D02*
G01*
X6921484Y5397487D01*
X8826500Y7620000D02*
G01*
X8826500Y7239010D01*
X9080474Y7619974D02*
G01*
X9080474Y7238984D01*
X9842479Y6476987D02*
G01*
X9842479Y6095997D01*
X9588479Y6476987D02*
G01*
X9588479Y6095997D01*
X9334482Y6476987D02*
G01*
X9334482Y6095997D01*
X9080484Y6476979D02*
G01*
X9080484Y6095989D01*
X8826482Y6476987D02*
G01*
X8826482Y6095997D01*
X8572482Y6476987D02*
G01*
X8572482Y6095997D01*
X8318482Y6476987D02*
G01*
X8318482Y6095997D01*
D11*
G01*
X7810500Y6096000D03*
G01*
X8064500Y6096000D03*
G01*
X8318500Y6096000D03*
G01*
X8572500Y6096000D03*
G01*
X8826500Y6096000D03*
D12*
G01*
X7810500Y7620000D03*
D11*
G01*
X8572500Y7620000D03*
G01*
X8318500Y7620000D03*
G01*
X8826500Y7620000D03*
G01*
X9080474Y7619974D03*
D12*
G01*
X9334500Y7620000D03*
G01*
X9588500Y7620000D03*
D11*
G01*
X9842500Y7620000D03*
G01*
X10096500Y7620000D03*
D13*
G01*
X10350500Y7620000D03*
D11*
G01*
X10604500Y7620000D03*
G01*
X9080500Y6096000D03*
D14*
G01*
X10096500Y6096000D03*
D11*
G01*
X10604500Y6096000D03*
G01*
X11245977Y7350480D03*
G01*
X11249482Y8105978D03*
D15*
G01*
X9019997Y8897467D03*
D16*
G01*
X8257997Y8897493D03*
G01*
X9781997Y8897493D03*
G01*
X9527997Y8643493D03*
G01*
X8511997Y8643493D03*
G01*
X10275493Y8897493D03*
G01*
X11037493Y8897493D03*
G01*
X11799493Y8897493D03*
G01*
X11545493Y8643493D03*
G01*
X10529493Y8643493D03*
D17*
G01*
X8511997Y9842372D03*
G01*
X9527997Y9842372D03*
D12*
G01*
X8064500Y7620000D03*
D17*
G01*
X10529646Y9842627D03*
G01*
X11545646Y9842627D03*
G01*
X11291493Y9842093D03*
G01*
X10783493Y9842093D03*
G01*
X8766403Y9843465D03*
G01*
X9274403Y9843465D03*
D18*
G01*
X5980988Y9609988D03*
D19*
G01*
X6980986Y9609988D03*
D20*
G01*
X6480975Y9559975D03*
D16*
G01*
X6479590Y8961094D03*
D21*
G01*
X7372477Y7831988D03*
D11*
G01*
X11594972Y7348473D03*
G01*
X11599468Y8104479D03*
G01*
X11909958Y7345476D03*
G01*
X11916968Y8104479D03*
G01*
X12257963Y7342479D03*
G01*
X12263475Y8104987D03*
D22*
G01*
X7372477Y8085988D03*
D21*
G01*
X7372477Y8339988D03*
D11*
G01*
X7712963Y8088960D03*
D13*
G01*
X7966963Y8088985D03*
D23*
G01*
X7846491Y9012478D03*
G01*
X7276490Y9012478D03*
G01*
X7899476Y9816972D03*
D24*
G01*
X7214488Y9816972D03*
D11*
G01*
X9461500Y7366000D03*
G01*
X9715474Y7365974D03*
G01*
X8503996Y8027492D03*
G01*
X9265996Y8027492D03*
G01*
X10547477Y8036483D03*
G01*
X9785477Y8036483D03*
D25*
G01*
X6481000Y9416478D03*
D26*
G01*
X6478485Y8798979D03*
D27*
G01*
X6955497Y9059976D03*
D13*
G01*
X11159464Y6476974D03*
D11*
G01*
X11159490Y6730949D03*
G01*
X12260478Y6232982D03*
G01*
X12260478Y6486982D03*
G01*
X12260478Y6740982D03*
G01*
X12260478Y6994982D03*
D13*
G01*
X11498478Y6232982D03*
D11*
G01*
X11498478Y6486982D03*
G01*
X11498478Y6740982D03*
G01*
X11498478Y6994982D03*
G01*
X11493474Y5714974D03*
D13*
G01*
X9716490Y5713984D03*
G01*
X9462490Y5713984D03*
D14*
G01*
X9208490Y5713958D03*
D11*
G01*
X11239474Y5714974D03*
D13*
G01*
X7476464Y6731000D03*
D11*
G01*
X7476490Y6476974D03*
D14*
G01*
X10350500Y6096000D03*
D11*
G01*
X6921474Y5714974D03*
G01*
X7175474Y5714974D03*
G01*
X7429474Y5714974D03*
G01*
X7683474Y5714974D03*
G01*
X7937474Y5714974D03*
G01*
X8191474Y5714974D03*
G01*
X8445474Y5714974D03*
G01*
X8699474Y5714974D03*
G01*
X8953474Y5714974D03*
G01*
X9842474Y6095974D03*
G01*
X9588474Y6095974D03*
G01*
X9334474Y6095974D03*
G01*
X7154951Y6196964D03*
G01*
X7154951Y6450964D03*
G01*
X7154951Y6704939D03*
G01*
X7154951Y6958939D03*
G01*
X6392976Y6196964D03*
G01*
X6392976Y6450964D03*
G01*
X6392976Y6704939D03*
D13*
G01*
X6392951Y6958965D03*
D21*
G01*
X5594502Y7439482D03*
D28*
G01*
X5594489Y6423482D03*
D13*
G01*
X7476997Y7450988D03*
D11*
G01*
X7222997Y7450988D03*
D29*
G01*
X7564983Y8919476D03*
D11*
G01*
X12300737Y8636990D03*
G01*
X12554737Y8636990D03*
G01*
X12554737Y8890990D03*
G01*
X12300737Y8890990D03*
G01*
X10985474Y5714974D03*
D13*
G01*
X9969474Y5714974D03*
G01*
X10223474Y5714974D03*
D11*
G01*
X10477474Y5714974D03*
G01*
X10731474Y5714974D03*
G01*
X12301702Y9144965D03*
G01*
X12555702Y9144965D03*
M02*
